gur5-110.ufo
<glyph name="quotedbl" format="1">
  <unicode hex="0022"/>
  <advance width="428"/>
  <outline>
    <contour>
      <point x="79" y="628" type="line"/>
      <point x="106" y="456" type="line"/>
      <point x="130" y="456" type="line"/>
      <point x="164" y="657" type="line"/>
      <point x="164" y="708"/>
      <point x="128" y="708"/>
      <point x="119" y="708" type="curve" smooth="yes"/>
      <point x="104" y="708"/>
      <point x="74" y="708"/>
      <point x="74" y="657" type="curve"/>
    </contour>
    <contour>
      <point x="268" y="628" type="line"/>
      <point x="295" y="456" type="line"/>
      <point x="319" y="456" type="line"/>
      <point x="353" y="657" type="line"/>
      <point x="353" y="708"/>
      <point x="317" y="708"/>
      <point x="308" y="708" type="curve" smooth="yes"/>
      <point x="293" y="708"/>
      <point x="263" y="708"/>
      <point x="263" y="657" type="curve"/>
    </contour>
  </outline>
</glyph>
<glyph name="numbersign" format="1">
  <unicode hex="0023"/>
  <advance width="524"/>
  <outline>
    <contour>
      <point x="414" y="483" type="line"/>
      <point x="447" y="694" type="line"/>
      <point x="387" y="694" type="line"/>
      <point x="353" y="483" type="line"/>
      <point x="214" y="483" type="line"/>
      <point x="248" y="694" type="line"/>
      <point x="187" y="694" type="line"/>
      <point x="155" y="483" type="line"/>
      <point x="33" y="483" type="line"/>
      <point x="33" y="428" type="line"/>
      <point x="145" y="428" type="line"/>
      <point x="123" y="281" type="line"/>
      <point x="4" y="281" type="line"/>
      <point x="4" y="225" type="line"/>
      <point x="114" y="225" type="line"/>
      <point x="79" y="0" type="line"/>
      <point x="138" y="0" type="line"/>
      <point x="174" y="225" type="line"/>
      <point x="313" y="225" type="line"/>
      <point x="278" y="0" type="line"/>
      <point x="339" y="0" type="line"/>
      <point x="374" y="225" type="line"/>
      <point x="493" y="225" type="line"/>
      <point x="493" y="281" type="line"/>
      <point x="383" y="281" type="line"/>
      <point x="406" y="428" type="line"/>
      <point x="519" y="428" type="line"/>
      <point x="519" y="483" type="line"/>
    </contour>
    <contour>
      <point x="322" y="281" type="line"/>
      <point x="182" y="281" type="line"/>
      <point x="206" y="428" type="line"/>
      <point x="345" y="428" type="line"/>
    </contour>
  </outline>
</glyph>
<glyph name="dollar" format="1">
  <unicode hex="0024"/>
  <advance width="524"/>
  <outline>
    <contour>
      <point x="446" y="524" type="line"/>
      <point x="446" y="640" type="line"/>
      <point x="403" y="675"/>
      <point x="347" y="693"/>
      <point x="278" y="694" type="curve" name="hr01"/>
      <point x="278" y="761" type="line"/>
      <point x="240" y="761" type="line"/>
      <point x="240" y="694" type="line"/>
      <point x="127" y="687"/>
      <point x="54" y="624"/>
      <point x="54" y="531" type="curve" smooth="yes"/>
      <point x="54" y="460"/>
      <point x="96" y="407"/>
      <point x="188" y="354" type="curve" smooth="yes"/>
      <point x="240" y="325" type="line"/>
      <point x="240" y="32" type="line"/>
      <point x="143" y="33"/>
      <point x="84" y="85"/>
      <point x="63" y="189" type="curve"/>
      <point x="46" y="189" type="line"/>
      <point x="46" y="53" type="line"/>
      <point x="109" y="18"/>
      <point x="165" y="1"/>
      <point x="240" y="0" type="curve"/>
      <point x="240" y="-91" type="line"/>
      <point x="278" y="-91" type="line"/>
      <point x="278" y="0" type="line"/>
      <point x="397" y="8"/>
      <point x="478" y="81"/>
      <point x="478" y="186" type="curve" smooth="yes"/>
      <point x="478" y="267"/>
      <point x="437" y="323"/>
      <point x="338" y="380" type="curve" smooth="yes"/>
      <point x="278" y="414" type="line"/>
      <point x="278" y="665" type="line" name="hr02"/>
      <point x="358" y="658"/>
      <point x="414" y="608"/>
      <point x="429" y="524" type="curve"/>
    </contour>
    <contour>
      <point x="240" y="436" type="line"/>
      <point x="221" y="447" type="line" smooth="yes"/>
      <point x="157" y="486"/>
      <point x="135" y="514"/>
      <point x="135" y="561" type="curve" smooth="yes"/>
      <point x="135" y="620"/>
      <point x="179" y="662"/>
      <point x="240" y="665" type="curve"/>
    </contour>
    <contour>
      <point x="278" y="303" type="line" name="hr03"/>
      <point x="299" y="291" type="line" smooth="yes"/>
      <point x="367" y="250"/>
      <point x="395" y="213"/>
      <point x="395" y="160" type="curve" smooth="yes"/>
      <point x="395" y="87"/>
      <point x="351" y="40"/>
      <point x="278" y="32" type="curve"/>
    </contour>
  </outline>
</glyph>
<glyph name="percent" format="1">
  <unicode hex="0025"/>
  <advance width="873"/>
  <outline>
    <contour>
      <point x="614" y="718" type="line"/>
      <point x="574" y="673"/>
      <point x="530" y="655"/>
      <point x="454" y="655" type="curve" smooth="yes"/>
      <point x="354" y="655"/>
      <point x="343" y="712"/>
      <point x="282" y="712" type="curve" smooth="yes" name="hr01"/>
      <point x="174" y="712"/>
      <point x="63" y="590"/>
      <point x="63" y="470" type="curve" smooth="yes"/>
      <point x="63" y="391"/>
      <point x="109" y="341"/>
      <point x="176" y="341" type="curve" smooth="yes"/>
      <point x="285" y="341"/>
      <point x="390" y="466"/>
      <point x="390" y="595" type="curve" smooth="yes"/>
      <point x="390" y="607"/>
      <point x="389" y="618"/>
      <point x="386" y="635" type="curve" smooth="yes"/>
      <point x="385" y="640" type="line"/>
      <point x="404" y="633"/>
      <point x="421" y="631"/>
      <point x="453" y="631" type="curve" smooth="yes"/>
      <point x="505" y="631"/>
      <point x="531" y="635"/>
      <point x="582" y="657" type="curve"/>
      <point x="206" y="-18" type="line"/>
      <point x="257" y="-18" type="line"/>
      <point x="669" y="718" type="line" name="hr02"/>
    </contour>
    <contour>
      <point x="292" y="684" type="line"/>
      <point x="317" y="658"/>
      <point x="359" y="669"/>
      <point x="359" y="593" type="curve" smooth="yes"/>
      <point x="359" y="483"/>
      <point x="279" y="374"/>
      <point x="200" y="374" type="curve" smooth="yes"/>
      <point x="161" y="374"/>
      <point x="141" y="400"/>
      <point x="141" y="453" type="curve" smooth="yes"/>
      <point x="141" y="550"/>
      <point x="217" y="663"/>
      <point x="292" y="684" type="curve"/>
    </contour>
    <contour>
      <point x="706" y="356" type="line" name="hr03"/>
      <point x="590" y="356"/>
      <point x="480" y="241"/>
      <point x="480" y="116" type="curve" smooth="yes"/>
      <point x="480" y="29"/>
      <point x="522" y="-18"/>
      <point x="597" y="-18" type="curve" smooth="yes"/>
      <point x="705" y="-18"/>
      <point x="810" y="105"/>
      <point x="810" y="237" type="curve" smooth="yes"/>
      <point x="810" y="313"/>
      <point x="771" y="356"/>
      <point x="706" y="356" type="curve"/>
    </contour>
    <contour>
      <point x="717" y="318" type="line"/>
      <point x="754" y="318"/>
      <point x="780" y="285"/>
      <point x="780" y="232" type="curve" smooth="yes"/>
      <point x="780" y="128"/>
      <point x="695" y="12"/>
      <point x="618" y="12" type="curve" smooth="yes"/>
      <point x="579" y="12"/>
      <point x="558" y="42"/>
      <point x="558" y="95" type="curve" smooth="yes"/>
      <point x="558" y="203"/>
      <point x="641" y="318"/>
      <point x="717" y="318" type="curve"/>
    </contour>
  </outline>
</glyph>
<glyph name="ampersand" format="1">
  <unicode hex="0026"/>
  <advance width="816"/>
  <outline>
    <contour>
      <point x="520" y="446" type="line"/>
      <point x="520" y="426" type="line"/>
      <point x="569" y="423"/>
      <point x="587" y="408"/>
      <point x="587" y="376" type="curve" smooth="yes"/>
      <point x="587" y="330"/>
      <point x="546" y="251"/>
      <point x="490" y="187" type="curve"/>
      <point x="452" y="236"/>
      <point x="394" y="322"/>
      <point x="356" y="400" type="curve"/>
      <point x="469" y="453"/>
      <point x="518" y="507"/>
      <point x="518" y="582" type="curve" smooth="yes"/>
      <point x="518" y="654"/>
      <point x="460" y="708"/>
      <point x="380" y="708" type="curve" smooth="yes"/>
      <point x="291" y="708"/>
      <point x="214" y="633"/>
      <point x="214" y="545" type="curve" smooth="yes"/>
      <point x="214" y="500"/>
      <point x="227" y="448"/>
      <point x="253" y="389" type="curve"/>
      <point x="99" y="312"/>
      <point x="44" y="251"/>
      <point x="44" y="156" type="curve" smooth="yes"/>
      <point x="44" y="52"/>
      <point x="116" y="-13"/>
      <point x="229" y="-13" type="curve" smooth="yes"/>
      <point x="314" y="-13"/>
      <point x="388" y="19"/>
      <point x="451" y="82" type="curve"/>
      <point x="507" y="19"/>
      <point x="567" y="-13"/>
      <point x="632" y="-13" type="curve" smooth="yes"/>
      <point x="696" y="-13"/>
      <point x="738" y="21"/>
      <point x="786" y="104" type="curve"/>
      <point x="770" y="119" type="line"/>
      <point x="738" y="78"/>
      <point x="714" y="60"/>
      <point x="679" y="60" type="curve" smooth="yes" name="hr01"/>
      <point x="624" y="60"/>
      <point x="573" y="89"/>
      <point x="517" y="158" type="curve"/>
      <point x="545" y="190"/>
      <point x="565" y="220"/>
      <point x="589" y="260" type="curve" smooth="yes"/>
      <point x="641" y="348"/>
      <point x="643" y="350"/>
      <point x="644" y="352" type="curve" smooth="yes"/>
      <point x="677" y="407"/>
      <point x="681" y="416"/>
      <point x="749" y="426" type="curve"/>
      <point x="749" y="446" type="line"/>
    </contour>
    <contour>
      <point x="340" y="433" type="line"/>
      <point x="315" y="485"/>
      <point x="299" y="540"/>
      <point x="299" y="579" type="curve" smooth="yes"/>
      <point x="299" y="638"/>
      <point x="329" y="673"/>
      <point x="377" y="673" type="curve" smooth="yes"/>
      <point x="425" y="673"/>
      <point x="461" y="637"/>
      <point x="461" y="582" type="curve" smooth="yes"/>
      <point x="461" y="519"/>
      <point x="423" y="473"/>
      <point x="340" y="433" type="curve"/>
    </contour>
    <contour>
      <point x="268" y="355" type="line"/>
      <point x="326" y="248"/>
      <point x="365" y="178"/>
      <point x="424" y="109" type="curve"/>
      <point x="381" y="64"/>
      <point x="334" y="42"/>
      <point x="285" y="42" type="curve" smooth="yes" name="hr02"/>
      <point x="209" y="42"/>
      <point x="144" y="109"/>
      <point x="144" y="188" type="curve" smooth="yes"/>
      <point x="144" y="261"/>
      <point x="189" y="320"/>
      <point x="268" y="355" type="curve"/>
    </contour>
  </outline>
</glyph>
<glyph name="quotesingle" format="1">
  <unicode hex="0027"/>
  <advance width="188"/>
  <outline>
    <contour>
      <point x="54" y="628" type="line"/>
      <point x="81" y="456" type="line"/>
      <point x="105" y="456" type="line"/>
      <point x="139" y="657" type="line"/>
      <point x="139" y="708"/>
      <point x="103" y="708"/>
      <point x="94" y="708" type="curve" smooth="yes"/>
      <point x="79" y="708"/>
      <point x="49" y="708"/>
      <point x="49" y="657" type="curve"/>
    </contour>
  </outline>
</glyph>
<glyph name="parenleft" format="1">
  <unicode hex="0028"/>
  <advance width="349"/>
  <outline>
    <contour>
      <point x="308" y="715" type="line"/>
      <point x="137" y="608"/>
      <point x="51" y="461"/>
      <point x="51" y="274" type="curve" smooth="yes"/>
      <point x="51" y="86"/>
      <point x="129" y="-55"/>
      <point x="304" y="-178" type="curve"/>
      <point x="316" y="-162" type="line"/>
      <point x="187" y="-46"/>
      <point x="141" y="68"/>
      <point x="141" y="283" type="curve" smooth="yes"/>
      <point x="141" y="469"/>
      <point x="177" y="590"/>
      <point x="318" y="697" type="curve"/>
    </contour>
  </outline>
</glyph>
<glyph name="parenright" format="1">
  <unicode hex="0029"/>
  <advance width="349"/>
  <outline>
    <contour>
      <point x="31" y="697" type="line"/>
      <point x="168" y="595"/>
      <point x="208" y="476"/>
      <point x="208" y="283" type="curve" smooth="yes"/>
      <point x="208" y="68"/>
      <point x="162" y="-46"/>
      <point x="33" y="-162" type="curve"/>
      <point x="45" y="-178" type="line"/>
      <point x="218" y="-55"/>
      <point x="298" y="86"/>
      <point x="298" y="274" type="curve" smooth="yes"/>
      <point x="298" y="461"/>
      <point x="212" y="608"/>
      <point x="41" y="715" type="curve"/>
    </contour>
  </outline>
</glyph>
<glyph name="plus" format="1">
  <unicode hex="002B"/>
  <advance width="592"/>
  <outline>
    <contour>
      <point x="261" y="537" type="line"/>
      <point x="261" y="306" type="line"/>
      <point x="32" y="306" type="line"/>
      <point x="32" y="239" type="line"/>
      <point x="261" y="239" type="line"/>
      <point x="261" y="8" type="line"/>
      <point x="331" y="8" type="line"/>
      <point x="331" y="239" type="line"/>
      <point x="560" y="239" type="line"/>
      <point x="560" y="306" type="line"/>
      <point x="331" y="306" type="line"/>
      <point x="331" y="537" type="line"/>
    </contour>
  </outline>
</glyph>
<glyph name="comma" format="1">
  <unicode hex="002C"/>
  <advance width="262"/>
  <outline>
    <contour>
      <point x="94" y="-150" type="line"/>
      <point x="170" y="-110"/>
      <point x="212" y="-55"/>
      <point x="212" y="6" type="curve" smooth="yes"/>
      <point x="212" y="65"/>
      <point x="178" y="108"/>
      <point x="130" y="108" type="curve" smooth="yes"/>
      <point x="93" y="108"/>
      <point x="67" y="83"/>
      <point x="67" y="48" type="curve" smooth="yes"/>
      <point x="67" y="17"/>
      <point x="90" y="-8"/>
      <point x="122" y="-8" type="curve" smooth="yes"/>
      <point x="125" y="-8"/>
      <point x="138" y="-4"/>
      <point x="148" y="-4" type="curve" smooth="yes" name="hr01"/>
      <point x="161" y="-4"/>
      <point x="167" y="-11"/>
      <point x="167" y="-24" type="curve" smooth="yes"/>
      <point x="167" y="-55"/>
      <point x="132" y="-102"/>
      <point x="83" y="-130" type="curve"/>
    </contour>
  </outline>
</glyph>
<glyph name="period" format="1">
  <unicode hex="002E"/>
  <advance width="262"/>
  <outline>
    <contour>
      <point x="132" y="108" type="line"/>
      <point x="97" y="108"/>
      <point x="72" y="82"/>
      <point x="72" y="47" type="curve" smooth="yes"/>
      <point x="72" y="15"/>
      <point x="97" y="-13"/>
      <point x="132" y="-13" type="curve" smooth="yes"/>
      <point x="167" y="-13"/>
      <point x="193" y="15"/>
      <point x="193" y="47" type="curve" smooth="yes"/>
      <point x="193" y="82"/>
      <point x="167" y="108"/>
      <point x="132" y="108" type="curve"/>
    </contour>
  </outline>
</glyph>
<glyph name="slash" format="1">
  <unicode hex="002F"/>
  <advance width="292"/>
  <outline>
    <contour>
      <point x="252" y="715" type="line"/>
      <point x="-12" y="-113" type="line"/>
      <point x="52" y="-113" type="line"/>
      <point x="316" y="715" type="line"/>
    </contour>
  </outline>
</glyph>
<glyph name="zero" format="1">
  <unicode hex="0030"/>
  <advance width="524"/>
  <outline>
    <contour>
      <point x="262" y="708" type="line"/>
      <point x="122" y="708"/>
      <point x="26" y="560"/>
      <point x="26" y="347" type="curve" smooth="yes"/>
      <point x="26" y="133"/>
      <point x="122" y="-13"/>
      <point x="262" y="-13" type="curve" smooth="yes"/>
      <point x="401" y="-13"/>
      <point x="499" y="133"/>
      <point x="499" y="347" type="curve" smooth="yes"/>
      <point x="499" y="560"/>
      <point x="401" y="708"/>
      <point x="262" y="708" type="curve"/>
    </contour>
    <contour>
      <point x="262" y="678" type="line"/>
      <point x="358" y="678"/>
      <point x="397" y="579"/>
      <point x="397" y="347" type="curve" smooth="yes"/>
      <point x="397" y="114"/>
      <point x="358" y="16"/>
      <point x="262" y="16" type="curve" smooth="yes"/>
      <point x="166" y="16"/>
      <point x="127" y="114"/>
      <point x="127" y="347" type="curve" smooth="yes"/>
      <point x="127" y="579"/>
      <point x="166" y="678"/>
      <point x="262" y="678" type="curve"/>
    </contour>
  </outline>
</glyph>
<glyph name="one" format="1">
  <unicode hex="0031"/>
  <advance width="524"/>
  <outline>
    <contour>
      <point x="313" y="708" type="line"/>
      <point x="117" y="607" type="line"/>
      <point x="117" y="586" type="line"/>
      <point x="157" y="605"/>
      <point x="179" y="611"/>
      <point x="191" y="611" type="curve" smooth="yes"/>
      <point x="218" y="611"/>
      <point x="224" y="591"/>
      <point x="224" y="526" type="curve" smooth="yes"/>
      <point x="224" y="104" type="line" smooth="yes"/>
      <point x="224" y="41"/>
      <point x="205" y="21"/>
      <point x="125" y="18" type="curve"/>
      <point x="125" y="0" type="line"/>
      <point x="413" y="0" type="line"/>
      <point x="413" y="18" type="line"/>
      <point x="334" y="21"/>
      <point x="313" y="41"/>
      <point x="313" y="104" type="curve" smooth="yes"/>
    </contour>
  </outline>
</glyph>
<glyph name="two" format="1">
  <unicode hex="0032"/>
  <advance width="524"/>
  <outline>
    <contour>
      <point x="498" y="143" type="line"/>
      <point x="479" y="151" type="line"/>
      <point x="440" y="82"/>
      <point x="438" y="80"/>
      <point x="354" y="80" type="curve" smooth="yes"/>
      <point x="138" y="80" type="line"/>
      <point x="283" y="230" type="line" smooth="yes"/>
      <point x="406" y="357"/>
      <point x="446" y="434"/>
      <point x="446" y="520" type="curve" smooth="yes"/>
      <point x="446" y="628"/>
      <point x="367" y="708"/>
      <point x="257" y="708" type="curve" smooth="yes"/>
      <point x="148" y="708"/>
      <point x="70" y="653"/>
      <point x="34" y="501" type="curve"/>
      <point x="56" y="495" type="line"/>
      <point x="92" y="591"/>
      <point x="137" y="630"/>
      <point x="209" y="630" type="curve" smooth="yes"/>
      <point x="296" y="630"/>
      <point x="354" y="572"/>
      <point x="354" y="481" type="curve" smooth="yes"/>
      <point x="354" y="398"/>
      <point x="300" y="295"/>
      <point x="205" y="195" type="curve" smooth="yes"/>
      <point x="32" y="14" type="line"/>
      <point x="32" y="0" type="line"/>
      <point x="441" y="0" type="line"/>
    </contour>
  </outline>
</glyph>
<glyph name="three" format="1">
  <unicode hex="0033"/>
  <advance width="524"/>
  <outline>
    <contour>
      <point x="72" y="535" type="line"/>
      <point x="109" y="608"/>
      <point x="157" y="645"/>
      <point x="217" y="645" type="curve" smooth="yes"/>
      <point x="286" y="645"/>
      <point x="332" y="603"/>
      <point x="332" y="536" type="curve" smooth="yes"/>
      <point x="332" y="458"/>
      <point x="295" y="424"/>
      <point x="161" y="364" type="curve"/>
      <point x="161" y="347" type="line"/>
      <point x="303" y="346"/>
      <point x="374" y="291"/>
      <point x="374" y="184" type="curve" smooth="yes" name="hr01"/>
      <point x="374" y="91"/>
      <point x="318" y="26"/>
      <point x="237" y="26" type="curve" smooth="yes"/>
      <point x="198" y="26"/>
      <point x="109" y="83"/>
      <point x="87" y="83" type="curve" smooth="yes" name="hr02"/>
      <point x="64" y="83"/>
      <point x="46" y="66"/>
      <point x="46" y="46" type="curve" smooth="yes"/>
      <point x="46" y="6"/>
      <point x="86" y="-13"/>
      <point x="163" y="-13" type="curve" smooth="yes"/>
      <point x="336" y="-13"/>
      <point x="452" y="82"/>
      <point x="452" y="229" type="curve" smooth="yes"/>
      <point x="452" y="323"/>
      <point x="408" y="387"/>
      <point x="321" y="422" type="curve"/>
      <point x="388" y="466"/>
      <point x="418" y="512"/>
      <point x="418" y="571" type="curve" smooth="yes" name="hr03"/>
      <point x="418" y="654"/>
      <point x="354" y="708"/>
      <point x="257" y="708" type="curve" smooth="yes"/>
      <point x="152" y="708"/>
      <point x="87" y="654"/>
      <point x="48" y="541" type="curve"/>
    </contour>
  </outline>
</glyph>
<glyph name="four" format="1">
  <unicode hex="0034"/>
  <advance width="524"/>
  <outline>
    <contour>
      <point x="340" y="708" type="line"/>
      <point x="12" y="243" type="line"/>
      <point x="12" y="174" type="line"/>
      <point x="306" y="174" type="line"/>
      <point x="306" y="0" type="line"/>
      <point x="388" y="0" type="line"/>
      <point x="388" y="174" type="line"/>
      <point x="495" y="174" type="line"/>
      <point x="495" y="244" type="line"/>
      <point x="388" y="244" type="line"/>
      <point x="388" y="708" type="line"/>
    </contour>
    <contour>
      <point x="58" y="244" type="line"/>
      <point x="306" y="593" type="line"/>
      <point x="306" y="244" type="line"/>
    </contour>
  </outline>
</glyph>
<glyph name="five" format="1">
  <unicode hex="0035"/>
  <advance width="524"/>
  <outline>
    <contour>
      <point x="182" y="694" type="line"/>
      <point x="73" y="451"/>
      <point x="69" y="444"/>
      <point x="69" y="440" type="curve" smooth="yes"/>
      <point x="69" y="435"/>
      <point x="73" y="432"/>
      <point x="82" y="431" type="curve" smooth="yes"/>
      <point x="271" y="416"/>
      <point x="370" y="338"/>
      <point x="370" y="203" type="curve" smooth="yes"/>
      <point x="370" y="100"/>
      <point x="307" y="24"/>
      <point x="227" y="24" type="curve" smooth="yes"/>
      <point x="208" y="24"/>
      <point x="191" y="30"/>
      <point x="174" y="43" type="curve" smooth="yes"/>
      <point x="123" y="84"/>
      <point x="109" y="89"/>
      <point x="81" y="89" type="curve" smooth="yes" name="hr01"/>
      <point x="50" y="89"/>
      <point x="34" y="75"/>
      <point x="34" y="48" type="curve" smooth="yes"/>
      <point x="34" y="7"/>
      <point x="77" y="-13"/>
      <point x="160" y="-13" type="curve" smooth="yes"/>
      <point x="335" y="-13"/>
      <point x="449" y="89"/>
      <point x="449" y="253" type="curve" smooth="yes"/>
      <point x="449" y="410"/>
      <point x="354" y="495"/>
      <point x="145" y="522" type="curve"/>
      <point x="185" y="609" type="line"/>
      <point x="410" y="609" type="line"/>
      <point x="460" y="713" type="line"/>
      <point x="443" y="722" type="line"/>
      <point x="428" y="699"/>
      <point x="417" y="694"/>
      <point x="392" y="694" type="curve" smooth="yes"/>
    </contour>
  </outline>
</glyph>
<glyph name="six" format="1">
  <unicode hex="0036"/>
  <advance width="524"/>
  <outline>
    <contour>
      <point x="463" y="716" type="line"/>
      <point x="205" y="693"/>
      <point x="37" y="498"/>
      <point x="37" y="281" type="curve" smooth="yes"/>
      <point x="37" y="123"/>
      <point x="119" y="-13"/>
      <point x="269" y="-13" type="curve" smooth="yes"/>
      <point x="399" y="-13"/>
      <point x="490" y="88"/>
      <point x="490" y="230" type="curve" smooth="yes"/>
      <point x="490" y="363"/>
      <point x="418" y="445"/>
      <point x="303" y="445" type="curve" smooth="yes"/>
      <point x="249" y="445"/>
      <point x="198" y="426"/>
      <point x="151" y="389" type="curve"/>
      <point x="191" y="554"/>
      <point x="285" y="659"/>
      <point x="467" y="694" type="curve"/>
    </contour>
    <contour>
      <point x="257" y="398" type="line"/>
      <point x="342" y="398"/>
      <point x="393" y="323"/>
      <point x="393" y="194" type="curve" smooth="yes"/>
      <point x="393" y="81"/>
      <point x="352" y="16"/>
      <point x="280" y="16" type="curve" smooth="yes"/>
      <point x="193" y="16"/>
      <point x="137" y="114"/>
      <point x="137" y="267" type="curve" smooth="yes"/>
      <point x="137" y="371"/>
      <point x="183" y="398"/>
      <point x="257" y="398" type="curve"/>
    </contour>
  </outline>
</glyph>
<glyph name="seven" format="1">
  <unicode hex="0037"/>
  <advance width="524"/>
  <outline>
    <contour>
      <point x="82" y="694" type="line"/>
      <point x="20" y="541" type="line"/>
      <point x="40" y="530" type="line"/>
      <point x="84" y="604"/>
      <point x="100" y="614"/>
      <point x="158" y="614" type="curve" smooth="yes"/>
      <point x="409" y="614" type="line"/>
      <point x="173" y="-13" type="line"/>
      <point x="245" y="-13" type="line"/>
      <point x="471" y="676" type="line"/>
      <point x="471" y="694" type="line"/>
    </contour>
  </outline>
</glyph>
<glyph name="eight" format="1">
  <unicode hex="0038"/>
  <advance width="524"/>
  <outline>
    <contour>
      <point x="311" y="386" type="line"/>
      <point x="407" y="438"/>
      <point x="449" y="493"/>
      <point x="449" y="561" type="curve" smooth="yes"/>
      <point x="449" y="647"/>
      <point x="375" y="708"/>
      <point x="269" y="708" type="curve" smooth="yes"/>
      <point x="156" y="708"/>
      <point x="70" y="636"/>
      <point x="70" y="542" type="curve" smooth="yes"/>
      <point x="70" y="471"/>
      <point x="73" y="453"/>
      <point x="211" y="345" type="curve"/>
      <point x="99" y="284"/>
      <point x="55" y="232"/>
      <point x="55" y="156" type="curve" smooth="yes" name="hr01"/>
      <point x="55" y="55"/>
      <point x="139" y="-13"/>
      <point x="256" y="-13" type="curve" smooth="yes"/>
      <point x="379" y="-13"/>
      <point x="464" y="57"/>
      <point x="464" y="165" type="curve" smooth="yes"/>
      <point x="464" y="245"/>
      <point x="441" y="280"/>
      <point x="311" y="386" type="curve"/>
    </contour>
    <contour>
      <point x="291" y="401" type="line"/>
      <point x="158" y="499"/>
      <point x="147" y="518"/>
      <point x="147" y="574" type="curve" smooth="yes" name="hr02"/>
      <point x="147" y="635"/>
      <point x="194" y="679"/>
      <point x="261" y="679" type="curve" smooth="yes"/>
      <point x="330" y="679"/>
      <point x="375" y="630"/>
      <point x="375" y="555" type="curve" smooth="yes"/>
      <point x="375" y="499"/>
      <point x="346" y="445"/>
      <point x="291" y="401" type="curve"/>
    </contour>
    <contour>
      <point x="231" y="327" type="line"/>
      <point x="359" y="231"/>
      <point x="381" y="198"/>
      <point x="381" y="131" type="curve" smooth="yes"/>
      <point x="381" y="60"/>
      <point x="333" y="15"/>
      <point x="260" y="15" type="curve" smooth="yes"/>
      <point x="185" y="15"/>
      <point x="134" y="72"/>
      <point x="134" y="159" type="curve" smooth="yes" name="hr03"/>
      <point x="134" y="226"/>
      <point x="162" y="275"/>
      <point x="231" y="327" type="curve"/>
    </contour>
  </outline>
</glyph>
<glyph name="nine" format="1">
  <unicode hex="0039"/>
  <advance width="524"/>
  <outline>
    <contour>
      <point x="59" y="-23" type="line"/>
      <point x="319" y="8"/>
      <point x="482" y="195"/>
      <point x="482" y="413" type="curve" smooth="yes"/>
      <point x="482" y="566"/>
      <point x="402" y="708"/>
      <point x="253" y="708" type="curve" smooth="yes"/>
      <point x="122" y="708"/>
      <point x="32" y="606"/>
      <point x="32" y="464" type="curve" smooth="yes"/>
      <point x="32" y="332"/>
      <point x="104" y="249"/>
      <point x="219" y="249" type="curve" smooth="yes"/>
      <point x="270" y="249"/>
      <point x="320" y="267"/>
      <point x="368" y="302" type="curve"/>
      <point x="330" y="138"/>
      <point x="233" y="33"/>
      <point x="55" y="0" type="curve"/>
    </contour>
    <contour>
      <point x="243" y="678" type="line"/>
      <point x="330" y="678"/>
      <point x="382" y="581"/>
      <point x="382" y="425" type="curve" smooth="yes"/>
      <point x="382" y="322"/>
      <point x="336" y="296"/>
      <point x="265" y="296" type="curve" smooth="yes"/>
      <point x="181" y="296"/>
      <point x="129" y="371"/>
      <point x="129" y="500" type="curve" smooth="yes"/>
      <point x="129" y="613"/>
      <point x="170" y="678"/>
      <point x="243" y="678" type="curve"/>
    </contour>
  </outline>
</glyph>
<glyph name="colon" format="1">
  <unicode hex="003A"/>
  <advance width="292"/>
  <outline>
    <contour>
      <point x="145" y="481" type="line"/>
      <point x="113" y="481"/>
      <point x="85" y="453"/>
      <point x="85" y="421" type="curve" smooth="yes"/>
      <point x="85" y="386"/>
      <point x="113" y="359"/>
      <point x="145" y="359" type="curve" smooth="yes"/>
      <point x="180" y="359"/>
      <point x="207" y="386"/>
      <point x="207" y="421" type="curve" smooth="yes"/>
      <point x="207" y="453"/>
      <point x="180" y="481"/>
      <point x="145" y="481" type="curve"/>
    </contour>
    <contour>
      <point x="145" y="108" type="line"/>
      <point x="113" y="108"/>
      <point x="85" y="82"/>
      <point x="85" y="47" type="curve" smooth="yes"/>
      <point x="85" y="15"/>
      <point x="113" y="-13"/>
      <point x="145" y="-13" type="curve" smooth="yes"/>
      <point x="180" y="-13"/>
      <point x="207" y="15"/>
      <point x="207" y="47" type="curve" smooth="yes"/>
      <point x="207" y="82"/>
      <point x="180" y="108"/>
      <point x="145" y="108" type="curve"/>
    </contour>
  </outline>
</glyph>
<glyph name="semicolon" format="1">
  <unicode hex="003B"/>
  <advance width="292"/>
  <outline>
    <contour>
      <point x="139" y="481" type="line"/>
      <point x="107" y="481"/>
      <point x="79" y="453"/>
      <point x="79" y="421" type="curve" smooth="yes"/>
      <point x="79" y="386"/>
      <point x="107" y="359"/>
      <point x="139" y="359" type="curve" smooth="yes"/>
      <point x="174" y="359"/>
      <point x="201" y="386"/>
      <point x="201" y="421" type="curve" smooth="yes"/>
      <point x="201" y="453"/>
      <point x="174" y="481"/>
      <point x="139" y="481" type="curve"/>
    </contour>
    <contour>
      <point x="94" y="-150" type="line"/>
      <point x="170" y="-110"/>
      <point x="212" y="-55"/>
      <point x="212" y="6" type="curve" smooth="yes"/>
      <point x="212" y="65"/>
      <point x="178" y="108"/>
      <point x="130" y="108" type="curve" smooth="yes"/>
      <point x="93" y="108"/>
      <point x="67" y="83"/>
      <point x="67" y="48" type="curve" smooth="yes" name="hr01"/>
      <point x="67" y="17"/>
      <point x="90" y="-8"/>
      <point x="122" y="-8" type="curve" smooth="yes"/>
      <point x="125" y="-8"/>
      <point x="138" y="-4"/>
      <point x="143" y="-4" type="curve" smooth="yes" name="hr02"/>
      <point x="161" y="-4"/>
      <point x="167" y="-11"/>
      <point x="167" y="-24" type="curve" smooth="yes"/>
      <point x="167" y="-55"/>
      <point x="132" y="-102"/>
      <point x="83" y="-130" type="curve"/>
    </contour>
  </outline>
</glyph>
<glyph name="less" format="1">
  <unicode hex="003C"/>
  <advance width="592"/>
  <outline>
    <contour>
      <point x="562" y="548" type="line"/>
      <point x="29" y="302" type="line"/>
      <point x="29" y="245" type="line"/>
      <point x="562" y="0" type="line"/>
      <point x="562" y="65" type="line"/>
      <point x="118" y="273" type="line"/>
      <point x="562" y="482" type="line"/>
    </contour>
  </outline>
</glyph>
<glyph name="equal" format="1">
  <unicode hex="003D"/>
  <advance width="592"/>
  <outline>
    <contour>
      <point x="32" y="407" type="line"/>
      <point x="32" y="340" type="line"/>
      <point x="560" y="340" type="line"/>
      <point x="560" y="407" type="line"/>
    </contour>
    <contour>
      <point x="32" y="206" type="line"/>
      <point x="32" y="138" type="line"/>
      <point x="560" y="138" type="line"/>
      <point x="560" y="206" type="line"/>
    </contour>
  </outline>
</glyph>
<glyph name="question" format="1">
  <unicode hex="003F"/>
  <advance width="466"/>
  <outline>
    <contour>
      <point x="237" y="172" type="line"/>
      <point x="252" y="290"/>
      <point x="346" y="384"/>
      <point x="350" y="390" type="curve" smooth="yes"/>
      <point x="397" y="460"/>
      <point x="414" y="496"/>
      <point x="414" y="540" type="curve" smooth="yes"/>
      <point x="414" y="636"/>
      <point x="336" y="708"/>
      <point x="229" y="708" type="curve" smooth="yes"/>
      <point x="130" y="708"/>
      <point x="51" y="643"/>
      <point x="51" y="560" type="curve" smooth="yes"/>
      <point x="51" y="517"/>
      <point x="73" y="492"/>
      <point x="104" y="492" type="curve" smooth="yes"/>
      <point x="131" y="492"/>
      <point x="150" y="511"/>
      <point x="150" y="538" type="curve" smooth="yes"/>
      <point x="150" y="569"/>
      <point x="112" y="591"/>
      <point x="112" y="611" type="curve" smooth="yes" name="hr01"/>
      <point x="112" y="647"/>
      <point x="153" y="675"/>
      <point x="205" y="675" type="curve" smooth="yes"/>
      <point x="272" y="675"/>
      <point x="316" y="621"/>
      <point x="316" y="540" type="curve" smooth="yes"/>
      <point x="316" y="492"/>
      <point x="304" y="447"/>
      <point x="274" y="383" type="curve" smooth="yes"/>
      <point x="228" y="286"/>
      <point x="221" y="254"/>
      <point x="217" y="172" type="curve"/>
    </contour>
    <contour>
      <point x="227" y="108" type="line"/>
      <point x="195" y="108"/>
      <point x="167" y="82"/>
      <point x="167" y="47" type="curve" smooth="yes"/>
      <point x="167" y="15"/>
      <point x="195" y="-13"/>
      <point x="227" y="-13" type="curve" smooth="yes"/>
      <point x="262" y="-13"/>
      <point x="289" y="15"/>
      <point x="289" y="47" type="curve" smooth="yes"/>
      <point x="289" y="82"/>
      <point x="262" y="108"/>
      <point x="227" y="108" type="curve"/>
    </contour>
  </outline>
</glyph>
<glyph name="at" format="1">
  <unicode hex="0040"/>
  <advance width="966"/>
  <outline>
    <contour>
      <point x="601" y="506" type="line"/>
      <point x="585" y="446" type="line"/>
      <point x="578" y="493"/>
      <point x="555" y="513"/>
      <point x="507" y="513" type="curve" smooth="yes"/>
      <point x="366" y="512"/>
      <point x="204" y="322"/>
      <point x="204" y="158" type="curve" smooth="yes"/>
      <point x="204" y="85"/>
      <point x="249" y="35"/>
      <point x="316" y="35" type="curve" smooth="yes"/>
      <point x="397" y="35"/>
      <point x="461" y="90"/>
      <point x="522" y="211" type="curve"/>
      <point x="506" y="166"/>
      <point x="498" y="138"/>
      <point x="498" y="115" type="curve" smooth="yes"/>
      <point x="498" y="64"/>
      <point x="530" y="35"/>
      <point x="589" y="35" type="curve" smooth="yes"/>
      <point x="733" y="35"/>
      <point x="859" y="185"/>
      <point x="859" y="376" type="curve" smooth="yes"/>
      <point x="859" y="578"/>
      <point x="724" y="708"/>
      <point x="511" y="708" type="curve" smooth="yes"/>
      <point x="229" y="708"/>
      <point x="0" y="479"/>
      <point x="0" y="203" type="curve" smooth="yes"/>
      <point x="0" y="-17"/>
      <point x="158" y="-159"/>
      <point x="403" y="-159" type="curve" smooth="yes"/>
      <point x="516" y="-159"/>
      <point x="619" y="-133"/>
      <point x="711" y="-82" type="curve"/>
      <point x="689" y="-44" type="line"/>
      <point x="612" y="-97"/>
      <point x="521" y="-124"/>
      <point x="417" y="-124" type="curve" smooth="yes"/>
      <point x="217" y="-124"/>
      <point x="77" y="9"/>
      <point x="77" y="195" type="curve" smooth="yes"/>
      <point x="77" y="450"/>
      <point x="283" y="667"/>
      <point x="526" y="667" type="curve" smooth="yes"/>
      <point x="712" y="667"/>
      <point x="822" y="556"/>
      <point x="822" y="373" type="curve" smooth="yes"/>
      <point x="822" y="222"/>
      <point x="735" y="85"/>
      <point x="625" y="85" type="curve" smooth="yes"/>
      <point x="594" y="85"/>
      <point x="579" y="98"/>
      <point x="579" y="125" type="curve" smooth="yes"/>
      <point x="579" y="136"/>
      <point x="581" y="151"/>
      <point x="587" y="172" type="curve" smooth="yes"/>
      <point x="681" y="506" type="line"/>
    </contour>
    <contour>
      <point x="508" y="482" type="line"/>
      <point x="546" y="482"/>
      <point x="565" y="461"/>
      <point x="565" y="418" type="curve" smooth="yes"/>
      <point x="565" y="292"/>
      <point x="446" y="90"/>
      <point x="353" y="90" type="curve" smooth="yes"/>
      <point x="313" y="90"/>
      <point x="289" y="119"/>
      <point x="289" y="168" type="curve" smooth="yes"/>
      <point x="289" y="280"/>
      <point x="391" y="482"/>
      <point x="508" y="482" type="curve"/>
    </contour>
  </outline>
</glyph>
<glyph name="E" format="1">
  <unicode hex="0045"/>
  <advance width="641"/>
  <outline>
    <contour>
      <point x="215" y="383" type="line"/>
      <point x="215" y="603" type="line" smooth="yes"/>
      <point x="215" y="643"/>
      <point x="226" y="652"/>
      <point x="274" y="652" type="curve" smooth="yes"/>
      <point x="409" y="652" type="line" smooth="yes"/>
      <point x="507" y="652"/>
      <point x="535" y="629"/>
      <point x="543" y="543" type="curve"/>
      <point x="570" y="543" type="line"/>
      <point x="570" y="694" type="line"/>
      <point x="12" y="694" type="line"/>
      <point x="12" y="673" type="line" name="hr01"/>
      <point x="92" y="668"/>
      <point x="105" y="652"/>
      <point x="105" y="581" type="curve" smooth="yes"/>
      <point x="105" y="114" type="line" smooth="yes"/>
      <point x="105" y="38"/>
      <point x="92" y="31"/>
      <point x="12" y="20" type="curve"/>
      <point x="12" y="0" type="line"/>
      <point x="579" y="0" type="line"/>
      <point x="626" y="178" type="line"/>
      <point x="595" y="178" type="line"/>
      <point x="559" y="79"/>
      <point x="506" y="42"/>
      <point x="402" y="42" type="curve" smooth="yes"/>
      <point x="289" y="42" type="line" smooth="yes"/>
      <point x="217" y="42"/>
      <point x="215" y="47"/>
      <point x="215" y="97" type="curve" smooth="yes"/>
      <point x="215" y="343" type="line"/>
      <point x="353" y="343" type="line" smooth="yes"/>
      <point x="442" y="343"/>
      <point x="473" y="317"/>
      <point x="478" y="243" type="curve"/>
      <point x="502" y="243" type="line"/>
      <point x="502" y="483" type="line"/>
      <point x="478" y="483" type="line"/>
      <point x="473" y="408"/>
      <point x="442" y="383"/>
      <point x="353" y="383" type="curve" smooth="yes"/>
    </contour>
  </outline>
</glyph>
<glyph name="J" format="1">
  <unicode hex="004A"/>
  <advance width="408"/>
  <outline>
    <contour>
      <point x="293" y="581" type="line" smooth="yes"/>
      <point x="293" y="655"/>
      <point x="311" y="670"/>
      <point x="394" y="673" type="curve"/>
      <point x="394" y="694" type="line"/>
      <point x="82" y="694" type="line"/>
      <point x="82" y="673" type="line"/>
      <point x="165" y="670"/>
      <point x="183" y="655"/>
      <point x="183" y="581" type="curve" smooth="yes"/>
      <point x="183" y="144" type="line" smooth="yes"/>
      <point x="183" y="53"/>
      <point x="177" y="29"/>
      <point x="144" y="29" type="curve" smooth="yes"/>
      <point x="103" y="29"/>
      <point x="119" y="116"/>
      <point x="62" y="116" type="curve" smooth="yes" name="hr01"/>
      <point x="33" y="116"/>
      <point x="10" y="94"/>
      <point x="10" y="61" type="curve" smooth="yes"/>
      <point x="10" y="18"/>
      <point x="54" y="-13"/>
      <point x="117" y="-13" type="curve" smooth="yes"/>
      <point x="222" y="-13"/>
      <point x="293" y="73"/>
      <point x="293" y="208" type="curve" smooth="yes"/>
    </contour>
  </outline>
</glyph>
<glyph name="P" format="1">
  <unicode hex="0050"/>
  <advance width="583"/>
  <outline>
    <contour>
      <point x="214" y="306" type="line"/>
      <point x="259" y="302"/>
      <point x="279" y="301"/>
      <point x="302" y="301" type="curve" smooth="yes"/>
      <point x="467" y="301"/>
      <point x="568" y="378"/>
      <point x="568" y="506" type="curve" smooth="yes"/>
      <point x="568" y="630"/>
      <point x="477" y="694"/>
      <point x="300" y="694" type="curve" smooth="yes"/>
      <point x="11" y="694" type="line"/>
      <point x="11" y="673" type="line" name="hr01"/>
      <point x="91" y="668"/>
      <point x="104" y="652"/>
      <point x="104" y="581" type="curve" smooth="yes"/>
      <point x="104" y="114" type="line" smooth="yes"/>
      <point x="104" y="38"/>
      <point x="90" y="31"/>
      <point x="11" y="20" type="curve"/>
      <point x="11" y="0" type="line"/>
      <point x="307" y="0" type="line"/>
      <point x="307" y="20" type="line"/>
      <point x="230" y="31"/>
      <point x="214" y="38"/>
      <point x="214" y="114" type="curve" smooth="yes"/>
    </contour>
    <contour>
      <point x="214" y="617" type="line" smooth="yes"/>
      <point x="214" y="655"/>
      <point x="215" y="655"/>
      <point x="295" y="655" type="curve" smooth="yes" name="hr02"/>
      <point x="394" y="655"/>
      <point x="452" y="596"/>
      <point x="452" y="496" type="curve" smooth="yes"/>
      <point x="452" y="396"/>
      <point x="393" y="343"/>
      <point x="280" y="343" type="curve" smooth="yes"/>
      <point x="263" y="343"/>
      <point x="231" y="344"/>
      <point x="214" y="347" type="curve"/>
    </contour>
  </outline>
</glyph>
<glyph name="Q" format="1">
  <unicode hex="0051"/>
  <advance width="757"/>
  <outline>
    <contour>
      <point x="735" y="-163" type="line"/>
      <point x="624" y="-160"/>
      <point x="506" y="-96"/>
      <point x="451" y="-6" type="curve"/>
      <point x="617" y="28"/>
      <point x="722" y="168"/>
      <point x="722" y="347" type="curve" smooth="yes"/>
      <point x="722" y="556"/>
      <point x="576" y="708"/>
      <point x="379" y="708" type="curve" smooth="yes"/>
      <point x="177" y="708"/>
      <point x="35" y="557"/>
      <point x="35" y="347" type="curve" smooth="yes"/>
      <point x="35" y="181"/>
      <point x="130" y="41"/>
      <point x="280" y="-1" type="curve"/>
      <point x="386" y="-138"/>
      <point x="481" y="-182"/>
      <point x="735" y="-182" type="curve"/>
    </contour>
    <contour>
      <point x="370" y="668" type="curve" smooth="yes"/>
      <point x="508" y="668"/>
      <point x="600" y="538"/>
      <point x="600" y="343" type="curve" smooth="yes"/>
      <point x="600" y="140"/>
      <point x="520" y="27"/>
      <point x="383" y="27" type="curve" smooth="yes"/>
      <point x="245" y="27"/>
      <point x="157" y="156"/>
      <point x="157" y="353" type="curve" smooth="yes"/>
      <point x="157" y="549"/>
      <point x="236" y="668"/>
    </contour>
  </outline>
</glyph>
<glyph name="S" format="1">
  <unicode hex="0053"/>
  <advance width="583"/>
  <outline>
    <contour>
      <point x="493" y="486" type="line"/>
      <point x="493" y="708" type="line"/>
      <point x="445" y="708" type="line"/>
      <point x="444" y="684"/>
      <point x="439" y="675"/>
      <point x="411" y="675" type="curve" smooth="yes"/>
      <point x="404" y="675"/>
      <point x="393" y="678"/>
      <point x="380" y="684" type="curve"/>
      <point x="334" y="702"/>
      <point x="314" y="708"/>
      <point x="269" y="708" type="curve" smooth="yes"/>
      <point x="157" y="708"/>
      <point x="75" y="635"/>
      <point x="75" y="534" type="curve" smooth="yes"/>
      <point x="75" y="453"/>
      <point x="117" y="398"/>
      <point x="230" y="334" type="curve" smooth="yes"/>
      <point x="286" y="302" type="line" smooth="yes"/>
      <point x="369" y="254"/>
      <point x="406" y="206"/>
      <point x="406" y="146" type="curve" smooth="yes"/>
      <point x="406" y="80"/>
      <point x="354" y="32"/>
      <point x="285" y="32" type="curve" smooth="yes"/>
      <point x="187" y="32"/>
      <point x="115" y="93"/>
      <point x="70" y="215" type="curve"/>
      <point x="44" y="215" type="line"/>
      <point x="75" y="-9" type="line" name="hr01"/>
      <point x="99" y="-9" type="line"/>
      <point x="103" y="14"/>
      <point x="112" y="24"/>
      <point x="131" y="24" type="curve" smooth="yes"/>
      <point x="140" y="24"/>
      <point x="141" y="22"/>
      <point x="161" y="15" type="curve" smooth="yes"/>
      <point x="211" y="-4"/>
      <point x="255" y="-13"/>
      <point x="293" y="-13" type="curve" smooth="yes" name="hr02"/>
      <point x="422" y="-13"/>
      <point x="515" y="67"/>
      <point x="515" y="183" type="curve" smooth="yes"/>
      <point x="515" y="274"/>
      <point x="484" y="309"/>
      <point x="336" y="400" type="curve" smooth="yes"/>
      <point x="279" y="435" type="line" smooth="yes"/>
      <point x="190" y="489"/>
      <point x="166" y="517"/>
      <point x="166" y="564" type="curve" smooth="yes"/>
      <point x="166" y="625"/>
      <point x="206" y="663"/>
      <point x="273" y="663" type="curve" smooth="yes"/>
      <point x="365" y="663"/>
      <point x="429" y="604"/>
      <point x="464" y="486" type="curve"/>
    </contour>
  </outline>
</glyph>
<glyph name="X" format="1">
  <unicode hex="0058"/>
  <advance width="757"/>
  <outline>
    <contour>
      <point x="395" y="424" type="line"/>
      <point x="322" y="529" type="line" smooth="yes"/>
      <point x="264" y="612"/>
      <point x="264" y="630"/>
      <point x="264" y="642" type="curve" smooth="yes"/>
      <point x="264" y="666"/>
      <point x="280" y="673"/>
      <point x="343" y="673" type="curve"/>
      <point x="343" y="694" type="line"/>
      <point x="27" y="694" type="line"/>
      <point x="27" y="673" type="line"/>
      <point x="88" y="672"/>
      <point x="123" y="642"/>
      <point x="205" y="523" type="curve" smooth="yes"/>
      <point x="329" y="343" type="line"/>
      <point x="144" y="117" type="line" smooth="yes"/>
      <point x="85" y="46"/>
      <point x="60" y="20"/>
      <point x="17" y="20" type="curve" smooth="yes"/>
      <point x="12" y="20" type="line"/>
      <point x="12" y="0" type="line"/>
      <point x="258" y="0" type="line"/>
      <point x="258" y="20" type="line"/>
      <point x="206" y="22"/>
      <point x="180" y="35"/>
      <point x="180" y="60" type="curve" smooth="yes"/>
      <point x="180" y="75"/>
      <point x="184" y="82"/>
      <point x="201" y="101" type="curve"/>
      <point x="354" y="304" type="line"/>
      <point x="470" y="130" type="line" smooth="yes"/>
      <point x="492" y="97"/>
      <point x="507" y="65"/>
      <point x="507" y="52" type="curve" smooth="yes"/>
      <point x="507" y="31"/>
      <point x="487" y="24"/>
      <point x="428" y="20" type="curve"/>
      <point x="428" y="0" type="line"/>
      <point x="740" y="0" type="line"/>
      <point x="740" y="20" type="line"/>
      <point x="695" y="20"/>
      <point x="660" y="46"/>
      <point x="612" y="115" type="curve" smooth="yes"/>
      <point x="423" y="386" type="line"/>
      <point x="573" y="571" type="line" smooth="yes"/>
      <point x="632" y="644"/>
      <point x="678" y="673"/>
      <point x="733" y="673" type="curve"/>
      <point x="733" y="694" type="line"/>
      <point x="481" y="694" type="line"/>
      <point x="481" y="673" type="line"/>
      <point x="536" y="672"/>
      <point x="555" y="663"/>
      <point x="555" y="639" type="curve" smooth="yes"/>
      <point x="555" y="628"/>
      <point x="546" y="612"/>
      <point x="529" y="591" type="curve" smooth="yes"/>
    </contour>
  </outline>
</glyph>
<glyph name="bracketleft" format="1">
  <unicode hex="005B"/>
  <advance width="349"/>
  <outline>
    <contour>
      <point x="313" y="-124" type="line"/>
      <point x="243" y="-124" type="line" smooth="yes"/>
      <point x="178" y="-124"/>
      <point x="173" y="-118"/>
      <point x="173" y="-53" type="curve" smooth="yes"/>
      <point x="173" y="608" type="line" smooth="yes"/>
      <point x="173" y="671"/>
      <point x="178" y="679"/>
      <point x="243" y="679" type="curve" smooth="yes"/>
      <point x="313" y="679" type="line"/>
      <point x="313" y="705" type="line"/>
      <point x="92" y="705" type="line"/>
      <point x="92" y="-150" type="line"/>
      <point x="313" y="-150" type="line"/>
    </contour>
  </outline>
</glyph>
<glyph name="backslash" format="1">
  <unicode hex="005C"/>
  <advance width="292"/>
  <outline>
    <contour>
      <point x="-23" y="715" type="line"/>
      <point x="-87" y="715" type="line"/>
      <point x="313" y="-113" type="line"/>
      <point x="379" y="-113" type="line"/>
    </contour>
  </outline>
</glyph>
<glyph name="bracketright" format="1">
  <unicode hex="005D"/>
  <advance width="349"/>
  <outline>
    <contour>
      <point x="257" y="-150" type="line"/>
      <point x="257" y="705" type="line"/>
      <point x="36" y="705" type="line"/>
      <point x="36" y="679" type="line"/>
      <point x="106" y="679" type="line" smooth="yes"/>
      <point x="170" y="679"/>
      <point x="176" y="671"/>
      <point x="176" y="608" type="curve" smooth="yes"/>
      <point x="176" y="-53" type="line" smooth="yes"/>
      <point x="176" y="-118"/>
      <point x="170" y="-124"/>
      <point x="106" y="-124" type="curve" smooth="yes"/>
      <point x="36" y="-124" type="line"/>
      <point x="36" y="-150" type="line"/>
    </contour>
  </outline>
</glyph>
<glyph name="asciicircum" format="1">
  <unicode hex="005E"/>
  <advance width="492"/>
  <outline>
    <contour>
      <point x="478" y="269" type="line"/>
      <point x="282" y="694" type="line"/>
      <point x="211" y="694" type="line"/>
      <point x="13" y="269" type="line"/>
      <point x="91" y="269" type="line"/>
      <point x="247" y="616" type="line"/>
      <point x="399" y="269" type="line"/>
    </contour>
  </outline>
</glyph>
<glyph name="underscore" format="1">
  <unicode hex="005F"/>
  <advance width="524"/>
  <outline>
    <contour>
      <point x="0" y="-87" type="line"/>
      <point x="0" y="-138" type="line"/>
      <point x="524" y="-138" type="line"/>
      <point x="524" y="-87" type="line"/>
    </contour>
  </outline>
</glyph>
<glyph name="grave" format="1">
  <unicode hex="0060"/>
  <advance width="349"/>
  <outline>
    <contour>
      <point x="255" y="531" type="line"/>
      <point x="118" y="670" type="line" smooth="yes"/>
      <point x="87" y="701"/>
      <point x="80" y="711"/>
      <point x="55" y="711" type="curve" smooth="yes"/>
      <point x="34" y="711"/>
      <point x="16" y="696"/>
      <point x="16" y="676" type="curve" smooth="yes"/>
      <point x="16" y="657"/>
      <point x="26" y="647"/>
      <point x="57" y="627" type="curve" smooth="yes"/>
      <point x="210" y="531" type="line"/>
    </contour>
  </outline>
</glyph>
<glyph name="e" format="1">
  <unicode hex="0065"/>
  <advance width="466"/>
  <outline>
    <contour>
      <point x="422" y="173" type="line"/>
      <point x="393" y="106"/>
      <point x="333" y="65"/>
      <point x="264" y="65" type="curve" smooth="yes"/>
      <point x="166" y="65"/>
      <point x="100" y="154"/>
      <point x="97" y="289" type="curve"/>
      <point x="422" y="289" type="line"/>
      <point x="417" y="408"/>
      <point x="343" y="481"/>
      <point x="234" y="481" type="curve" smooth="yes"/>
      <point x="112" y="481"/>
      <point x="24" y="378"/>
      <point x="24" y="229" type="curve" smooth="yes"/>
      <point x="24" y="87"/>
      <point x="107" y="-11"/>
      <point x="229" y="-11" type="curve" smooth="yes"/>
      <point x="326" y="-11"/>
      <point x="401" y="51"/>
      <point x="441" y="167" type="curve"/>
    </contour>
    <contour>
      <point x="99" y="321" type="line"/>
      <point x="106" y="394"/>
      <point x="152" y="442"/>
      <point x="211" y="442" type="curve" smooth="yes"/>
      <point x="271" y="442"/>
      <point x="307" y="400"/>
      <point x="312" y="321" type="curve"/>
    </contour>
  </outline>
</glyph>
<glyph name="l" format="1">
  <unicode hex="006C"/>
  <advance width="292"/>
  <outline>
    <contour>
      <point x="190" y="715" type="line"/>
      <point x="20" y="660" type="line"/>
      <point x="20" y="643" type="line"/>
      <point x="37" y="645"/>
      <point x="49" y="646"/>
      <point x="55" y="646" type="curve" smooth="yes"/>
      <point x="92" y="646"/>
      <point x="100" y="632"/>
      <point x="100" y="572" type="curve" smooth="yes"/>
      <point x="100" y="99" type="line" smooth="yes"/>
      <point x="100" y="38"/>
      <point x="82" y="15"/>
      <point x="29" y="15" type="curve" smooth="yes"/>
      <point x="20" y="15" type="line"/>
      <point x="20" y="0" type="line"/>
      <point x="271" y="0" type="line"/>
      <point x="271" y="15" type="line"/>
      <point x="263" y="15" type="line" smooth="yes"/>
      <point x="210" y="15"/>
      <point x="190" y="38"/>
      <point x="190" y="99" type="curve" smooth="yes"/>
    </contour>
  </outline>
</glyph>
<glyph name="o" format="1">
  <unicode hex="006F"/>
  <advance width="523"/>
  <outline>
    <contour>
      <point x="268" y="481" type="curve" smooth="yes"/>
      <point x="136" y="481"/>
      <point x="32" y="371"/>
      <point x="32" y="227" type="curve" smooth="yes"/>
      <point x="32" y="90"/>
      <point x="126" y="-11"/>
      <point x="256" y="-11" type="curve" smooth="yes"/>
      <point x="388" y="-11"/>
      <point x="493" y="101"/>
      <point x="493" y="248" type="curve" smooth="yes"/>
      <point x="493" y="382"/>
      <point x="398" y="481"/>
    </contour>
    <contour>
      <point x="244" y="446" type="curve" smooth="yes"/>
      <point x="337" y="446"/>
      <point x="395" y="350"/>
      <point x="395" y="205" type="curve" smooth="yes"/>
      <point x="395" y="89"/>
      <point x="354" y="24"/>
      <point x="278" y="24" type="curve" smooth="yes"/>
      <point x="189" y="24"/>
      <point x="129" y="122"/>
      <point x="129" y="269" type="curve" smooth="yes"/>
      <point x="129" y="378"/>
      <point x="171" y="446"/>
    </contour>
  </outline>
</glyph>
<glyph name="q" format="1">
  <unicode hex="0071"/>
  <advance width="524"/>
  <outline>
    <contour>
      <point x="444" y="492" type="line"/>
      <point x="377" y="447" type="line"/>
      <point x="332" y="474"/>
      <point x="304" y="481"/>
      <point x="263" y="481" type="curve" smooth="yes" name="hr01"/>
      <point x="125" y="481"/>
      <point x="26" y="368"/>
      <point x="26" y="218" type="curve" smooth="yes"/>
      <point x="26" y="77"/>
      <point x="91" y="-11"/>
      <point x="200" y="-11" type="curve" smooth="yes"/>
      <point x="260" y="-11"/>
      <point x="302" y="11"/>
      <point x="354" y="70" type="curve"/>
      <point x="354" y="-128" type="line" smooth="yes"/>
      <point x="354" y="-189"/>
      <point x="336" y="-212"/>
      <point x="288" y="-212" type="curve" smooth="yes"/>
      <point x="276" y="-212" type="line"/>
      <point x="276" y="-227" type="line"/>
      <point x="522" y="-227" type="line"/>
      <point x="522" y="-212" type="line"/>
      <point x="512" y="-212" type="line" smooth="yes" name="hr02"/>
      <point x="463" y="-212"/>
      <point x="444" y="-188"/>
      <point x="444" y="-128" type="curve" smooth="yes"/>
    </contour>
    <contour>
      <point x="354" y="134" type="line"/>
      <point x="354" y="125" type="line" smooth="yes"/>
      <point x="354" y="91"/>
      <point x="300" y="53"/>
      <point x="247" y="53" type="curve" smooth="yes"/>
      <point x="166" y="53"/>
      <point x="117" y="130"/>
      <point x="117" y="253" type="curve" smooth="yes"/>
      <point x="117" y="369"/>
      <point x="172" y="451"/>
      <point x="254" y="451" type="curve" smooth="yes" name="hr03"/>
      <point x="319" y="451"/>
      <point x="354" y="421"/>
      <point x="354" y="353" type="curve" smooth="yes"/>
    </contour>
  </outline>
</glyph>
<glyph name="braceleft" format="1">
  <unicode hex="007B"/>
  <advance width="504"/>
  <outline>
    <contour>
      <point x="116" y="240" type="line"/>
      <point x="173" y="237"/>
      <point x="195" y="211"/>
      <point x="195" y="139" type="curve" smooth="yes"/>
      <point x="195" y="-38" type="line" smooth="yes"/>
      <point x="195" y="-165"/>
      <point x="225" y="-188"/>
      <point x="357" y="-193" type="curve"/>
      <point x="357" y="-173" type="line"/>
      <point x="291" y="-173"/>
      <point x="272" y="-147"/>
      <point x="272" y="-52" type="curve" smooth="yes"/>
      <point x="272" y="97" type="line" smooth="yes"/>
      <point x="272" y="204"/>
      <point x="255" y="240"/>
      <point x="186" y="251" type="curve"/>
      <point x="254" y="262"/>
      <point x="272" y="296"/>
      <point x="272" y="403" type="curve" smooth="yes"/>
      <point x="272" y="554" type="line" smooth="yes"/>
      <point x="272" y="648"/>
      <point x="291" y="674"/>
      <point x="357" y="674" type="curve"/>
      <point x="357" y="694" type="line"/>
      <point x="225" y="691"/>
      <point x="195" y="666"/>
      <point x="195" y="539" type="curve" smooth="yes"/>
      <point x="195" y="361" type="line" smooth="yes"/>
      <point x="195" y="290"/>
      <point x="173" y="264"/>
      <point x="116" y="261" type="curve"/>
    </contour>
  </outline>
</glyph>
<glyph name="braceright" format="1">
  <unicode hex="007D"/>
  <advance width="504"/>
  <outline>
    <contour>
      <point x="388" y="261" type="line"/>
      <point x="331" y="264"/>
      <point x="308" y="290"/>
      <point x="308" y="361" type="curve" smooth="yes"/>
      <point x="308" y="539" type="line" smooth="yes"/>
      <point x="308" y="666"/>
      <point x="281" y="691"/>
      <point x="145" y="694" type="curve"/>
      <point x="145" y="674" type="line"/>
      <point x="215" y="674"/>
      <point x="230" y="648"/>
      <point x="230" y="554" type="curve" smooth="yes"/>
      <point x="230" y="403" type="line" smooth="yes"/>
      <point x="230" y="296"/>
      <point x="252" y="262"/>
      <point x="316" y="251" type="curve"/>
      <point x="252" y="240"/>
      <point x="230" y="204"/>
      <point x="230" y="97" type="curve" smooth="yes"/>
      <point x="230" y="-52" type="line" smooth="yes"/>
      <point x="230" y="-147"/>
      <point x="215" y="-173"/>
      <point x="145" y="-173" type="curve"/>
      <point x="145" y="-193" type="line"/>
      <point x="281" y="-188"/>
      <point x="308" y="-165"/>
      <point x="308" y="-38" type="curve" smooth="yes"/>
      <point x="308" y="139" type="line" smooth="yes"/>
      <point x="308" y="211"/>
      <point x="331" y="237"/>
      <point x="388" y="240" type="curve"/>
    </contour>
  </outline>
</glyph>
<glyph name="asciitilde" format="1">
  <unicode hex="007E"/>
  <advance width="567"/>
  <outline>
    <contour>
      <point x="512" y="428" type="line"/>
      <point x="479" y="371"/>
      <point x="443" y="343"/>
      <point x="404" y="343" type="curve" smooth="yes"/>
      <point x="385" y="343"/>
      <point x="187" y="427"/>
      <point x="166" y="427" type="curve" smooth="yes" name="hr01"/>
      <point x="106" y="427"/>
      <point x="79" y="403"/>
      <point x="18" y="312" type="curve"/>
      <point x="54" y="266" type="line"/>
      <point x="102" y="338"/>
      <point x="119" y="357"/>
      <point x="165" y="357" type="curve" smooth="yes"/>
      <point x="195" y="357"/>
      <point x="359" y="273"/>
      <point x="401" y="273" type="curve" smooth="yes" name="hr02"/>
      <point x="456" y="273"/>
      <point x="508" y="312"/>
      <point x="548" y="383" type="curve"/>
    </contour>
  </outline>
</glyph>
<glyph name="exclamdown" format="1">
  <unicode hex="00A1"/>
  <advance width="349"/>
  <outline>
    <contour>
      <point x="180" y="325" type="line"/>
      <point x="165" y="325" type="line"/>
      <point x="117" y="-104" type="line"/>
      <point x="117" y="-114" type="line" smooth="yes"/>
      <point x="117" y="-171"/>
      <point x="136" y="-200"/>
      <point x="173" y="-200" type="curve" smooth="yes"/>
      <point x="210" y="-200"/>
      <point x="229" y="-171"/>
      <point x="229" y="-114" type="curve" smooth="yes"/>
      <point x="229" y="-103" type="line"/>
      <point x="228" y="-94"/>
      <point x="222" y="-13"/>
      <point x="180" y="325" type="curve"/>
    </contour>
    <contour>
      <point x="173" y="400" type="line"/>
      <point x="208" y="400"/>
      <point x="234" y="426"/>
      <point x="234" y="461" type="curve" smooth="yes"/>
      <point x="234" y="493"/>
      <point x="208" y="521"/>
      <point x="173" y="521" type="curve" smooth="yes"/>
      <point x="140" y="521"/>
      <point x="113" y="493"/>
      <point x="113" y="461" type="curve" smooth="yes"/>
      <point x="113" y="426"/>
      <point x="140" y="400"/>
      <point x="173" y="400" type="curve"/>
    </contour>
  </outline>
</glyph>
<glyph name="cent" format="1">
  <unicode hex="00A2"/>
  <advance width="524"/>
  <outline>
    <contour>
      <point x="210" y="-6" type="line"/>
      <point x="226" y="-10"/>
      <point x="238" y="-11"/>
      <point x="254" y="-11" type="curve" smooth="yes"/>
      <point x="345" y="-11"/>
      <point x="406" y="37"/>
      <point x="470" y="157" type="curve"/>
      <point x="453" y="166" type="line"/>
      <point x="395" y="87"/>
      <point x="358" y="65"/>
      <point x="296" y="65" type="curve" smooth="yes"/>
      <point x="276" y="65"/>
      <point x="257" y="69"/>
      <point x="238" y="77" type="curve"/>
      <point x="354" y="414" type="line"/>
      <point x="357" y="407"/>
      <point x="357" y="401"/>
      <point x="357" y="385" type="curve"/>
      <point x="356" y="378"/>
      <point x="356" y="374"/>
      <point x="356" y="373" type="curve" smooth="yes"/>
      <point x="356" y="342"/>
      <point x="378" y="321"/>
      <point x="406" y="321" type="curve" smooth="yes"/>
      <point x="434" y="321"/>
      <point x="455" y="342"/>
      <point x="455" y="374" type="curve" smooth="yes"/>
      <point x="455" y="410"/>
      <point x="422" y="448"/>
      <point x="373" y="468" type="curve"/>
      <point x="421" y="608" type="line"/>
      <point x="384" y="608" type="line"/>
      <point x="339" y="477" type="line"/>
      <point x="324" y="480"/>
      <point x="309" y="481"/>
      <point x="293" y="481" type="curve" smooth="yes"/>
      <point x="150" y="481"/>
      <point x="55" y="380"/>
      <point x="55" y="226" type="curve" smooth="yes"/>
      <point x="55" y="126"/>
      <point x="101" y="45"/>
      <point x="177" y="5" type="curve"/>
      <point x="126" y="-145" type="line"/>
      <point x="163" y="-145" type="line"/>
    </contour>
    <contour>
      <point x="209" y="95" type="line"/>
      <point x="164" y="136"/>
      <point x="138" y="198"/>
      <point x="138" y="271" type="curve" smooth="yes"/>
      <point x="138" y="384"/>
      <point x="193" y="451"/>
      <point x="286" y="451" type="curve" smooth="yes"/>
      <point x="305" y="451"/>
      <point x="314" y="448"/>
      <point x="327" y="443" type="curve"/>
    </contour>
  </outline>
</glyph>
<glyph name="sterling" format="1">
  <unicode hex="00A3"/>
  <advance width="524"/>
  <outline>
    <contour>
      <point x="27" y="392" type="line"/>
      <point x="27" y="343" type="line"/>
      <point x="136" y="343" type="line"/>
      <point x="155" y="208"/>
      <point x="157" y="199"/>
      <point x="157" y="166" type="curve"/>
      <point x="155" y="130" type="line"/>
      <point x="136" y="134"/>
      <point x="127" y="135"/>
      <point x="112" y="135" type="curve" smooth="yes"/>
      <point x="52" y="135"/>
      <point x="11" y="103"/>
      <point x="11" y="54" type="curve" smooth="yes"/>
      <point x="11" y="15"/>
      <point x="40" y="-13"/>
      <point x="84" y="-13" type="curve" smooth="yes"/>
      <point x="125" y="-13"/>
      <point x="153" y="3"/>
      <point x="184" y="50" type="curve"/>
      <point x="276" y="-5"/>
      <point x="291" y="-13"/>
      <point x="325" y="-13" type="curve" smooth="yes"/>
      <point x="333" y="-13" type="line" smooth="yes"/>
      <point x="415" y="-13"/>
      <point x="459" y="24"/>
      <point x="515" y="140" type="curve"/>
      <point x="500" y="150" type="line"/>
      <point x="459" y="94"/>
      <point x="423" y="76"/>
      <point x="356" y="76" type="curve" smooth="yes" name="hr01"/>
      <point x="315" y="76"/>
      <point x="267" y="89"/>
      <point x="212" y="115" type="curve"/>
      <point x="231" y="171"/>
      <point x="240" y="219"/>
      <point x="240" y="287" type="curve" smooth="yes"/>
      <point x="240" y="308"/>
      <point x="240" y="322"/>
      <point x="237" y="343" type="curve"/>
      <point x="364" y="343" type="line"/>
      <point x="364" y="392" type="line"/>
      <point x="232" y="392" type="line"/>
      <point x="231" y="402" type="line" smooth="yes"/>
      <point x="225" y="468"/>
      <point x="222" y="483"/>
      <point x="222" y="501" type="curve" smooth="yes" name="hr02"/>
      <point x="222" y="523" type="line" smooth="yes"/>
      <point x="222" y="629"/>
      <point x="255" y="682"/>
      <point x="321" y="682" type="curve" smooth="yes"/>
      <point x="353" y="682"/>
      <point x="380" y="660"/>
      <point x="380" y="635" type="curve" smooth="yes"/>
      <point x="380" y="625"/>
      <point x="377" y="613"/>
      <point x="377" y="612" type="curve"/>
      <point x="377" y="606" type="line" smooth="yes"/>
      <point x="377" y="577"/>
      <point x="392" y="558"/>
      <point x="421" y="558" type="curve" smooth="yes" name="hr03"/>
      <point x="452" y="558"/>
      <point x="476" y="580"/>
      <point x="476" y="612" type="curve" smooth="yes"/>
      <point x="476" y="665"/>
      <point x="415" y="708"/>
      <point x="336" y="708" type="curve" smooth="yes"/>
      <point x="205" y="708"/>
      <point x="127" y="613"/>
      <point x="127" y="458" type="curve" smooth="yes"/>
      <point x="127" y="435"/>
      <point x="128" y="420"/>
      <point x="131" y="392" type="curve"/>
    </contour>
    <contour>
      <point x="143" y="75" type="line"/>
      <point x="138" y="43"/>
      <point x="114" y="17"/>
      <point x="84" y="17" type="curve" smooth="yes"/>
      <point x="61" y="17"/>
      <point x="44" y="34"/>
      <point x="44" y="55" type="curve" smooth="yes"/>
      <point x="44" y="80"/>
      <point x="62" y="94"/>
      <point x="89" y="94" type="curve" smooth="yes"/>
      <point x="104" y="94"/>
      <point x="120" y="90"/>
      <point x="143" y="75" type="curve"/>
    </contour>
  </outline>
</glyph>
<glyph name="currency" format="1">
  <unicode hex="00A4"/>
  <advance width="524"/>
  <outline>
    <contour>
      <point x="-2" y="156" type="line"/>
      <point x="44" y="109" type="line"/>
      <point x="109" y="175" type="line"/>
      <point x="155" y="140"/>
      <point x="206" y="123"/>
      <point x="263" y="123" type="curve" smooth="yes" name="hr01"/>
      <point x="318" y="123"/>
      <point x="369" y="140"/>
      <point x="417" y="175" type="curve"/>
      <point x="481" y="109" type="line" name="hr02"/>
      <point x="527" y="156" type="line"/>
      <point x="462" y="220" type="line"/>
      <point x="497" y="267"/>
      <point x="515" y="319"/>
      <point x="515" y="374" type="curve" smooth="yes"/>
      <point x="515" y="430"/>
      <point x="497" y="481"/>
      <point x="462" y="527" type="curve"/>
      <point x="527" y="593" type="line"/>
      <point x="481" y="639" type="line"/>
      <point x="417" y="572" type="line"/>
      <point x="369" y="607"/>
      <point x="318" y="625"/>
      <point x="263" y="625" type="curve" smooth="yes" name="hr03"/>
      <point x="206" y="625"/>
      <point x="155" y="607"/>
      <point x="109" y="572" type="curve"/>
      <point x="44" y="639" type="line" name="hr04"/>
      <point x="-2" y="593" type="line"/>
      <point x="63" y="527" type="line"/>
      <point x="28" y="480"/>
      <point x="10" y="429"/>
      <point x="10" y="374" type="curve" smooth="yes"/>
      <point x="10" y="318"/>
      <point x="28" y="267"/>
      <point x="63" y="220" type="curve"/>
    </contour>
    <contour>
      <point x="263" y="556" type="line" name="hr05"/>
      <point x="365" y="556"/>
      <point x="444" y="473"/>
      <point x="444" y="374" type="curve" smooth="yes"/>
      <point x="444" y="273"/>
      <point x="365" y="191"/>
      <point x="263" y="191" type="curve" smooth="yes"/>
      <point x="163" y="191"/>
      <point x="81" y="273"/>
      <point x="81" y="374" type="curve" smooth="yes"/>
      <point x="81" y="473"/>
      <point x="163" y="556"/>
      <point x="263" y="556" type="curve"/>
    </contour>
  </outline>
</glyph>
<glyph name="yen" format="1">
  <unicode hex="00A5"/>
  <advance width="524"/>
  <outline>
    <contour>
      <point x="267" y="365" type="line"/>
      <point x="158" y="573" type="line" smooth="yes"/>
      <point x="141" y="606"/>
      <point x="131" y="630"/>
      <point x="131" y="642" type="curve" smooth="yes"/>
      <point x="131" y="661"/>
      <point x="150" y="670"/>
      <point x="190" y="673" type="curve"/>
      <point x="190" y="693" type="line"/>
      <point x="-45" y="693" type="line"/>
      <point x="-45" y="672" type="line"/>
      <point x="-6" y="667"/>
      <point x="10" y="653"/>
      <point x="47" y="585" type="curve" smooth="yes"/>
      <point x="178" y="343" type="line"/>
      <point x="29" y="343" type="line"/>
      <point x="29" y="299" type="line"/>
      <point x="199" y="299" type="line"/>
      <point x="199" y="238" type="line"/>
      <point x="29" y="238" type="line"/>
      <point x="29" y="194" type="line" name="hr01"/>
      <point x="199" y="194" type="line"/>
      <point x="199" y="114" type="line" smooth="yes"/>
      <point x="199" y="39"/>
      <point x="181" y="30"/>
      <point x="104" y="20" type="curve"/>
      <point x="104" y="0" type="line" name="hr02"/>
      <point x="381" y="0" type="line"/>
      <point x="381" y="20" type="line"/>
      <point x="301" y="31"/>
      <point x="288" y="38"/>
      <point x="288" y="114" type="curve" smooth="yes"/>
      <point x="288" y="194" type="line" name="hr03"/>
      <point x="460" y="194" type="line"/>
      <point x="460" y="238" type="line"/>
      <point x="288" y="238" type="line"/>
      <point x="288" y="299" type="line"/>
      <point x="460" y="299" type="line"/>
      <point x="460" y="343" type="line"/>
      <point x="301" y="343" type="line"/>
      <point x="410" y="552" type="line" smooth="yes"/>
      <point x="452" y="632"/>
      <point x="477" y="655"/>
      <point x="526" y="673" type="curve"/>
      <point x="526" y="693" type="line"/>
      <point x="341" y="693" type="line"/>
      <point x="341" y="673" type="line"/>
      <point x="381" y="670"/>
      <point x="397" y="660"/>
      <point x="397" y="637" type="curve" smooth="yes"/>
      <point x="397" y="626"/>
      <point x="391" y="607"/>
      <point x="381" y="587" type="curve" smooth="yes"/>
    </contour>
  </outline>
</glyph>
<glyph name="brokenbar" format="1">
  <unicode hex="00A6"/>
  <advance width="210"/>
  <outline>
    <contour>
      <point x="72" y="703" type="line"/>
      <point x="72" y="444" type="line"/>
      <point x="138" y="444" type="line"/>
      <point x="138" y="703" type="line"/>
    </contour>
    <contour>
      <point x="138" y="-9" type="line"/>
      <point x="138" y="285" type="line"/>
      <point x="72" y="285" type="line"/>
      <point x="72" y="-9" type="line"/>
    </contour>
  </outline>
</glyph>
<glyph name="section" format="1">
  <unicode hex="00A7"/>
  <advance width="524"/>
  <outline>
    <contour>
      <point x="329" y="130" type="line" smooth="yes"/>
      <point x="394" y="130"/>
      <point x="446" y="186"/>
      <point x="446" y="257" type="curve" smooth="yes" name="hr01"/>
      <point x="446" y="344"/>
      <point x="386" y="394"/>
      <point x="221" y="530" type="curve"/>
      <point x="194" y="555"/>
      <point x="177" y="585"/>
      <point x="177" y="610" type="curve" smooth="yes"/>
      <point x="177" y="653"/>
      <point x="215" y="685"/>
      <point x="264" y="685" type="curve" smooth="yes"/>
      <point x="301" y="685"/>
      <point x="329" y="669"/>
      <point x="329" y="648" type="curve" smooth="yes" name="hr02"/>
      <point x="329" y="636"/>
      <point x="296" y="617"/>
      <point x="296" y="592" type="curve" smooth="yes" name="hr03"/>
      <point x="296" y="565"/>
      <point x="317" y="547"/>
      <point x="345" y="547" type="curve" smooth="yes"/>
      <point x="376" y="547"/>
      <point x="397" y="570"/>
      <point x="397" y="606" type="curve" smooth="yes"/>
      <point x="397" y="664"/>
      <point x="342" y="708"/>
      <point x="265" y="708" type="curve" smooth="yes"/>
      <point x="178" y="708"/>
      <point x="117" y="656"/>
      <point x="117" y="579" type="curve" smooth="yes"/>
      <point x="117" y="524"/>
      <point x="122" y="501"/>
      <point x="215" y="423" type="curve"/>
      <point x="209" y="424"/>
      <point x="207" y="425"/>
      <point x="198" y="425" type="curve" smooth="yes"/>
      <point x="130" y="425"/>
      <point x="76" y="364"/>
      <point x="76" y="298" type="curve" smooth="yes" name="hr04"/>
      <point x="76" y="229"/>
      <point x="115" y="167"/>
      <point x="215" y="97" type="curve" smooth="yes" name="hr05"/>
      <point x="308" y="32"/>
      <point x="344" y="0"/>
      <point x="344" y="-52" type="curve" smooth="yes"/>
      <point x="344" y="-54" type="line" smooth="yes"/>
      <point x="344" y="-99"/>
      <point x="308" y="-132"/>
      <point x="256" y="-132" type="curve" smooth="yes"/>
      <point x="220" y="-132"/>
      <point x="180" y="-114"/>
      <point x="180" y="-93" type="curve" smooth="yes"/>
      <point x="180" y="-81"/>
      <point x="215" y="-59"/>
      <point x="215" y="-38" type="curve" smooth="yes"/>
      <point x="215" y="-9"/>
      <point x="193" y="10"/>
      <point x="166" y="10" type="curve" smooth="yes" name="hr06"/>
      <point x="133" y="10"/>
      <point x="109" y="-17"/>
      <point x="109" y="-50" type="curve" smooth="yes"/>
      <point x="109" y="-110"/>
      <point x="171" y="-157"/>
      <point x="252" y="-157" type="curve" smooth="yes"/>
      <point x="342" y="-157"/>
      <point x="407" y="-98"/>
      <point x="407" y="-27" type="curve" smooth="yes"/>
      <point x="407" y="27"/>
      <point x="375" y="79"/>
      <point x="312" y="130" type="curve"/>
    </contour>
    <contour>
      <point x="203" y="399" type="line"/>
      <point x="269" y="399"/>
      <point x="389" y="271"/>
      <point x="389" y="226" type="curve" smooth="yes" name="hr07"/>
      <point x="389" y="183"/>
      <point x="360" y="155"/>
      <point x="316" y="155" type="curve" smooth="yes"/>
      <point x="267" y="155"/>
      <point x="133" y="259"/>
      <point x="133" y="330" type="curve" smooth="yes"/>
      <point x="133" y="367"/>
      <point x="163" y="399"/>
      <point x="203" y="399" type="curve"/>
    </contour>
  </outline>
</glyph>
<glyph name="dieresis" format="1">
  <unicode hex="00A8"/>
  <advance width="349"/>
  <outline>
    <contour>
      <point x="72" y="653" type="line"/>
      <point x="41" y="653"/>
      <point x="18" y="630"/>
      <point x="18" y="601" type="curve" smooth="yes"/>
      <point x="18" y="573"/>
      <point x="43" y="549"/>
      <point x="72" y="549" type="curve" smooth="yes"/>
      <point x="100" y="549"/>
      <point x="124" y="572"/>
      <point x="124" y="601" type="curve" smooth="yes"/>
      <point x="124" y="630"/>
      <point x="100" y="653"/>
      <point x="72" y="653" type="curve"/>
    </contour>
    <contour>
      <point x="279" y="653" type="line"/>
      <point x="250" y="653"/>
      <point x="226" y="630"/>
      <point x="226" y="601" type="curve" smooth="yes"/>
      <point x="226" y="573"/>
      <point x="251" y="549"/>
      <point x="279" y="549" type="curve" smooth="yes"/>
      <point x="308" y="549"/>
      <point x="332" y="572"/>
      <point x="332" y="601" type="curve" smooth="yes"/>
      <point x="332" y="630"/>
      <point x="308" y="653"/>
      <point x="279" y="653" type="curve"/>
    </contour>
  </outline>
</glyph>
<glyph name="copyright" format="1">
  <unicode hex="00A9"/>
  <advance width="797"/>
  <outline>
    <contour>
      <point x="564" y="413" type="line"/>
      <point x="564" y="553" type="line"/>
      <point x="539" y="553" type="line"/>
      <point x="528" y="533"/>
      <point x="527" y="531"/>
      <point x="516" y="531" type="curve" smooth="yes"/>
      <point x="479" y="531"/>
      <point x="445" y="553"/>
      <point x="409" y="553" type="curve" smooth="yes"/>
      <point x="283" y="553"/>
      <point x="198" y="467"/>
      <point x="198" y="344" type="curve" smooth="yes"/>
      <point x="198" y="222"/>
      <point x="279" y="141"/>
      <point x="406" y="141" type="curve" smooth="yes"/>
      <point x="473" y="141"/>
      <point x="524" y="165"/>
      <point x="572" y="218" type="curve"/>
      <point x="557" y="234" type="line"/>
      <point x="508" y="191"/>
      <point x="471" y="175"/>
      <point x="418" y="175" type="curve" smooth="yes"/>
      <point x="329" y="175"/>
      <point x="274" y="240"/>
      <point x="274" y="348" type="curve" smooth="yes"/>
      <point x="274" y="457"/>
      <point x="326" y="521"/>
      <point x="413" y="521" type="curve" smooth="yes"/>
      <point x="481" y="521"/>
      <point x="524" y="485"/>
      <point x="541" y="413" type="curve"/>
    </contour>
    <contour>
      <point x="398" y="708" type="line"/>
      <point x="203" y="708"/>
      <point x="44" y="547"/>
      <point x="44" y="347" type="curve" smooth="yes"/>
      <point x="44" y="146"/>
      <point x="203" y="-13"/>
      <point x="398" y="-13" type="curve" smooth="yes"/>
      <point x="593" y="-13"/>
      <point x="752" y="146"/>
      <point x="752" y="347" type="curve" smooth="yes"/>
      <point x="752" y="547"/>
      <point x="593" y="708"/>
      <point x="398" y="708" type="curve"/>
    </contour>
    <contour>
      <point x="398" y="662" type="line"/>
      <point x="565" y="662"/>
      <point x="699" y="520"/>
      <point x="699" y="347" type="curve" smooth="yes"/>
      <point x="699" y="173"/>
      <point x="565" y="33"/>
      <point x="398" y="33" type="curve" smooth="yes"/>
      <point x="231" y="33"/>
      <point x="96" y="173"/>
      <point x="96" y="347" type="curve" smooth="yes"/>
      <point x="96" y="520"/>
      <point x="231" y="662"/>
      <point x="398" y="662" type="curve"/>
    </contour>
  </outline>
</glyph>
<glyph name="ordfeminine" format="1">
  <unicode hex="00AA"/>
  <advance width="290"/>
  <outline>
    <contour>
      <point x="283" y="291" type="line"/>
      <point x="283" y="340" type="line"/>
      <point x="17" y="340" type="line"/>
      <point x="17" y="291" type="line"/>
    </contour>
    <contour>
      <point x="274" y="470" type="line"/>
      <point x="265" y="458"/>
      <point x="261" y="454"/>
      <point x="254" y="454" type="curve" smooth="yes"/>
      <point x="243" y="454"/>
      <point x="240" y="458"/>
      <point x="240" y="481" type="curve" smooth="yes"/>
      <point x="240" y="611" type="line" smooth="yes"/>
      <point x="240" y="679"/>
      <point x="209" y="708"/>
      <point x="138" y="708" type="curve" smooth="yes"/>
      <point x="77" y="708"/>
      <point x="29" y="677"/>
      <point x="29" y="637" type="curve" smooth="yes"/>
      <point x="29" y="616"/>
      <point x="41" y="602"/>
      <point x="61" y="602" type="curve" smooth="yes"/>
      <point x="84" y="602"/>
      <point x="96" y="616"/>
      <point x="96" y="637" type="curve" smooth="yes"/>
      <point x="96" y="643"/>
      <point x="91" y="652"/>
      <point x="91" y="660" type="curve" smooth="yes"/>
      <point x="91" y="672"/>
      <point x="112" y="685"/>
      <point x="131" y="685" type="curve" smooth="yes" name="hr01"/>
      <point x="161" y="685"/>
      <point x="176" y="664"/>
      <point x="176" y="623" type="curve" smooth="yes"/>
      <point x="176" y="603" type="line"/>
      <point x="57" y="561"/>
      <point x="15" y="532"/>
      <point x="15" y="482" type="curve" smooth="yes"/>
      <point x="15" y="445"/>
      <point x="46" y="414"/>
      <point x="87" y="414" type="curve" smooth="yes"/>
      <point x="111" y="414"/>
      <point x="135" y="424"/>
      <point x="178" y="455" type="curve"/>
      <point x="186" y="428"/>
      <point x="202" y="414"/>
      <point x="227" y="414" type="curve" smooth="yes"/>
      <point x="252" y="414"/>
      <point x="265" y="425"/>
      <point x="292" y="458" type="curve"/>
    </contour>
    <contour>
      <point x="176" y="479" type="line"/>
      <point x="156" y="464"/>
      <point x="138" y="457"/>
      <point x="123" y="457" type="curve" smooth="yes"/>
      <point x="98" y="457"/>
      <point x="84" y="475"/>
      <point x="84" y="504" type="curve" smooth="yes"/>
      <point x="84" y="536"/>
      <point x="109" y="557"/>
      <point x="176" y="581" type="curve"/>
    </contour>
  </outline>
</glyph>
<glyph name="guillemotleft" format="1">
  <unicode hex="00AB"/>
  <advance width="524"/>
  <outline>
    <contour>
      <point x="343" y="345" type="line"/>
      <point x="233" y="246" type="line"/>
      <point x="285" y="202" type="line" smooth="yes"/>
      <point x="456" y="57"/>
      <point x="456" y="41"/>
      <point x="461" y="41" type="curve" smooth="yes"/>
      <point x="468" y="41"/>
      <point x="471" y="45"/>
      <point x="471" y="52" type="curve" smooth="yes"/>
      <point x="471" y="66"/>
      <point x="389" y="175"/>
      <point x="333" y="246" type="curve"/>
      <point x="389" y="312"/>
      <point x="469" y="439"/>
      <point x="469" y="437" type="curve" smooth="yes"/>
      <point x="469" y="444"/>
      <point x="464" y="446"/>
      <point x="458" y="446" type="curve" smooth="yes"/>
      <point x="453" y="446"/>
      <point x="449" y="445"/>
      <point x="445" y="442" type="curve" smooth="yes"/>
    </contour>
    <contour>
      <point x="142" y="345" type="line"/>
      <point x="34" y="246" type="line"/>
      <point x="84" y="202" type="line" smooth="yes"/>
      <point x="257" y="50"/>
      <point x="256" y="41"/>
      <point x="260" y="41" type="curve" smooth="yes"/>
      <point x="267" y="41"/>
      <point x="270" y="45"/>
      <point x="270" y="52" type="curve" smooth="yes"/>
      <point x="270" y="67"/>
      <point x="189" y="178"/>
      <point x="132" y="246" type="curve"/>
      <point x="195" y="315"/>
      <point x="268" y="439"/>
      <point x="268" y="437" type="curve" smooth="yes"/>
      <point x="268" y="443"/>
      <point x="263" y="446"/>
      <point x="257" y="446" type="curve" smooth="yes"/>
      <point x="253" y="446"/>
      <point x="249" y="445"/>
      <point x="246" y="442" type="curve" smooth="yes"/>
    </contour>
  </outline>
</glyph>
<glyph name="logicalnot" format="1">
  <unicode hex="00AC"/>
  <advance width="592"/>
  <outline>
    <contour>
      <point x="32" y="409" type="line"/>
      <point x="32" y="342" type="line"/>
      <point x="490" y="342" type="line"/>
      <point x="490" y="126" type="line"/>
      <point x="560" y="126" type="line"/>
      <point x="560" y="409" type="line"/>
    </contour>
  </outline>
</glyph>
<glyph name="registered" format="1">
  <unicode hex="00AE"/>
  <advance width="797"/>
  <outline>
    <contour>
      <point x="509" y="162" type="line"/>
      <point x="610" y="162" type="line"/>
      <point x="610" y="180" type="line"/>
      <point x="585" y="183"/>
      <point x="571" y="192"/>
      <point x="548" y="219" type="curve" smooth="yes"/>
      <point x="438" y="349" type="line"/>
      <point x="505" y="360"/>
      <point x="544" y="398"/>
      <point x="544" y="451" type="curve" smooth="yes"/>
      <point x="544" y="527"/>
      <point x="494" y="558"/>
      <point x="375" y="558" type="curve" smooth="yes"/>
      <point x="207" y="558" type="line"/>
      <point x="207" y="542" type="line" name="hr01"/>
      <point x="256" y="539"/>
      <point x="267" y="531"/>
      <point x="267" y="494" type="curve" smooth="yes"/>
      <point x="267" y="225" type="line" smooth="yes"/>
      <point x="267" y="189"/>
      <point x="256" y="180"/>
      <point x="207" y="177" type="curve"/>
      <point x="207" y="162" type="line" name="hr02"/>
      <point x="398" y="162" type="line"/>
      <point x="398" y="177" type="line" name="hr03"/>
      <point x="349" y="180"/>
      <point x="338" y="189"/>
      <point x="338" y="225" type="curve" smooth="yes"/>
      <point x="338" y="341" type="line" name="hr04"/>
      <point x="365" y="341" type="line"/>
    </contour>
    <contour>
      <point x="338" y="370" type="line"/>
      <point x="338" y="506" type="line" smooth="yes"/>
      <point x="338" y="526"/>
      <point x="338" y="527"/>
      <point x="378" y="527" type="curve" smooth="yes"/>
      <point x="439" y="527"/>
      <point x="470" y="501"/>
      <point x="470" y="450" type="curve" smooth="yes"/>
      <point x="470" y="393"/>
      <point x="438" y="370"/>
      <point x="355" y="370" type="curve" smooth="yes"/>
    </contour>
    <contour>
      <point x="399" y="708" type="line" name="hr05"/>
      <point x="205" y="708"/>
      <point x="45" y="547"/>
      <point x="45" y="347" type="curve" smooth="yes"/>
      <point x="45" y="146"/>
      <point x="205" y="-13"/>
      <point x="399" y="-13" type="curve" smooth="yes"/>
      <point x="594" y="-13"/>
      <point x="753" y="146"/>
      <point x="753" y="347" type="curve" smooth="yes"/>
      <point x="753" y="547"/>
      <point x="594" y="708"/>
      <point x="399" y="708" type="curve"/>
    </contour>
    <contour>
      <point x="399" y="662" type="line" name="hr06"/>
      <point x="566" y="662"/>
      <point x="700" y="520"/>
      <point x="700" y="347" type="curve" smooth="yes"/>
      <point x="700" y="173"/>
      <point x="566" y="33"/>
      <point x="399" y="33" type="curve" smooth="yes"/>
      <point x="232" y="33"/>
      <point x="97" y="173"/>
      <point x="97" y="347" type="curve" smooth="yes"/>
      <point x="97" y="520"/>
      <point x="232" y="662"/>
      <point x="399" y="662" type="curve"/>
    </contour>
  </outline>
</glyph>
<glyph name="degree" format="1">
  <unicode hex="00B0"/>
  <advance width="524"/>
  <outline>
    <contour>
      <point x="262" y="708" type="line"/>
      <point x="176" y="708"/>
      <point x="104" y="637"/>
      <point x="104" y="551" type="curve" smooth="yes"/>
      <point x="104" y="465"/>
      <point x="176" y="393"/>
      <point x="262" y="393" type="curve" smooth="yes"/>
      <point x="348" y="393"/>
      <point x="420" y="465"/>
      <point x="420" y="551" type="curve" smooth="yes"/>
      <point x="420" y="637"/>
      <point x="348" y="708"/>
      <point x="262" y="708" type="curve"/>
    </contour>
    <contour>
      <point x="262" y="665" type="line"/>
      <point x="324" y="665"/>
      <point x="377" y="613"/>
      <point x="377" y="551" type="curve" smooth="yes"/>
      <point x="377" y="486"/>
      <point x="324" y="436"/>
      <point x="262" y="436" type="curve" smooth="yes"/>
      <point x="201" y="436"/>
      <point x="147" y="486"/>
      <point x="147" y="551" type="curve" smooth="yes"/>
      <point x="147" y="612"/>
      <point x="201" y="665"/>
      <point x="262" y="665" type="curve"/>
    </contour>
  </outline>
</glyph>
<glyph name="plusminus" format="1">
  <unicode hex="00B1"/>
  <advance width="592"/>
  <outline>
    <contour>
      <point x="261" y="622" type="line"/>
      <point x="261" y="391" type="line"/>
      <point x="32" y="391" type="line"/>
      <point x="32" y="324" type="line"/>
      <point x="261" y="324" type="line"/>
      <point x="261" y="93" type="line"/>
      <point x="331" y="93" type="line"/>
      <point x="331" y="324" type="line"/>
      <point x="560" y="324" type="line"/>
      <point x="560" y="391" type="line"/>
      <point x="331" y="391" type="line"/>
      <point x="331" y="622" type="line"/>
    </contour>
    <contour>
      <point x="560" y="68" type="line"/>
      <point x="32" y="68" type="line"/>
      <point x="32" y="0" type="line"/>
      <point x="560" y="0" type="line"/>
    </contour>
  </outline>
</glyph>
<glyph name="twosuperior" format="1">
  <unicode hex="00B2"/>
  <advance width="319"/>
  <outline>
    <contour>
      <point x="308" y="368" type="line"/>
      <point x="291" y="376" type="line"/>
      <point x="269" y="334"/>
      <point x="264" y="333"/>
      <point x="222" y="333" type="curve" smooth="yes"/>
      <point x="92" y="333" type="line"/>
      <point x="175" y="416" type="line" smooth="yes"/>
      <point x="250" y="491"/>
      <point x="275" y="535"/>
      <point x="275" y="588" type="curve" smooth="yes"/>
      <point x="275" y="656"/>
      <point x="225" y="702"/>
      <point x="157" y="702" type="curve" smooth="yes"/>
      <point x="80" y="702"/>
      <point x="41" y="666"/>
      <point x="16" y="575" type="curve"/>
      <point x="37" y="569" type="line"/>
      <point x="57" y="628"/>
      <point x="83" y="650"/>
      <point x="128" y="650" type="curve" smooth="yes"/>
      <point x="180" y="650"/>
      <point x="213" y="617"/>
      <point x="213" y="566" type="curve" smooth="yes"/>
      <point x="213" y="515"/>
      <point x="183" y="460"/>
      <point x="122" y="399" type="curve" smooth="yes"/>
      <point x="15" y="292" type="line"/>
      <point x="15" y="278" type="line"/>
      <point x="271" y="278" type="line"/>
    </contour>
  </outline>
</glyph>
<glyph name="threesuperior" format="1">
  <unicode hex="00B3"/>
  <advance width="319"/>
  <outline>
    <contour>
      <point x="44" y="593" type="line"/>
      <point x="67" y="638"/>
      <point x="94" y="658"/>
      <point x="131" y="658" type="curve" smooth="yes"/>
      <point x="172" y="658"/>
      <point x="198" y="634"/>
      <point x="198" y="598" type="curve" smooth="yes"/>
      <point x="198" y="559"/>
      <point x="173" y="519"/>
      <point x="93" y="499" type="curve"/>
      <point x="93" y="482" type="line" name="hr01"/>
      <point x="185" y="482"/>
      <point x="223" y="455"/>
      <point x="223" y="391" type="curve" smooth="yes"/>
      <point x="223" y="336"/>
      <point x="191" y="300"/>
      <point x="143" y="300" type="curve" smooth="yes"/>
      <point x="120" y="300"/>
      <point x="68" y="334"/>
      <point x="52" y="334" type="curve" smooth="yes" name="hr02"/>
      <point x="36" y="334"/>
      <point x="25" y="323"/>
      <point x="25" y="308" type="curve" smooth="yes"/>
      <point x="25" y="282"/>
      <point x="49" y="269"/>
      <point x="98" y="269" type="curve" smooth="yes"/>
      <point x="206" y="269"/>
      <point x="278" y="328"/>
      <point x="278" y="417" type="curve" smooth="yes"/>
      <point x="278" y="470"/>
      <point x="259" y="502"/>
      <point x="203" y="530" type="curve"/>
      <point x="239" y="556"/>
      <point x="257" y="585"/>
      <point x="257" y="618" type="curve" smooth="yes" name="hr03"/>
      <point x="257" y="669"/>
      <point x="217" y="702"/>
      <point x="157" y="702" type="curve" smooth="yes"/>
      <point x="90" y="702"/>
      <point x="46" y="668"/>
      <point x="25" y="599" type="curve"/>
    </contour>
  </outline>
</glyph>
<glyph name="uni00B5" format="1">
  <unicode hex="00B5"/>
  <advance width="524"/>
  <outline>
    <contour>
      <point x="346" y="-13" type="line"/>
      <point x="388" y="0"/>
      <point x="515" y="38"/>
      <point x="506" y="36" type="curve"/>
      <point x="506" y="52" type="line"/>
      <point x="444" y="52"/>
      <point x="431" y="64"/>
      <point x="431" y="124" type="curve" smooth="yes"/>
      <point x="431" y="466" type="line"/>
      <point x="427" y="470" type="line"/>
      <point x="394" y="466"/>
      <point x="343" y="463"/>
      <point x="288" y="463" type="curve" smooth="yes"/>
      <point x="268" y="463" type="line"/>
      <point x="268" y="444" type="line"/>
      <point x="281" y="444" type="line" smooth="yes"/>
      <point x="328" y="444"/>
      <point x="344" y="423"/>
      <point x="344" y="358" type="curve" smooth="yes"/>
      <point x="344" y="115" type="line"/>
      <point x="318" y="64"/>
      <point x="287" y="39"/>
      <point x="251" y="39" type="curve" smooth="yes"/>
      <point x="194" y="39"/>
      <point x="172" y="77"/>
      <point x="172" y="182" type="curve" smooth="yes"/>
      <point x="172" y="466" type="line"/>
      <point x="167" y="470" type="line"/>
      <point x="146" y="465"/>
      <point x="94" y="463"/>
      <point x="57" y="463" type="curve" smooth="yes"/>
      <point x="15" y="463" type="line"/>
      <point x="15" y="444" type="line"/>
      <point x="23" y="444" type="line" smooth="yes"/>
      <point x="68" y="444"/>
      <point x="85" y="423"/>
      <point x="85" y="358" type="curve" smooth="yes"/>
      <point x="85" y="197" type="line"/>
      <point x="85" y="197"/>
      <point x="84" y="35"/>
      <point x="63" y="-50" type="curve"/>
      <point x="54" y="-99"/>
      <point x="53" y="-115"/>
      <point x="53" y="-124" type="curve" smooth="yes" name="hr01"/>
      <point x="53" y="-160"/>
      <point x="74" y="-183"/>
      <point x="103" y="-183" type="curve" smooth="yes"/>
      <point x="134" y="-183"/>
      <point x="152" y="-163"/>
      <point x="152" y="-130" type="curve" smooth="yes"/>
      <point x="152" y="-105"/>
      <point x="126" y="-17"/>
      <point x="123" y="18" type="curve"/>
      <point x="146" y="-5"/>
      <point x="169" y="-13"/>
      <point x="200" y="-13" type="curve" smooth="yes" name="hr02"/>
      <point x="257" y="-13"/>
      <point x="296" y="10"/>
      <point x="344" y="73" type="curve"/>
      <point x="344" y="42" type="line" smooth="yes"/>
      <point x="344" y="18"/>
      <point x="343" y="8"/>
      <point x="341" y="-9" type="curve"/>
    </contour>
  </outline>
</glyph>
<glyph name="paragraph" format="1">
  <unicode hex="00B6"/>
  <advance width="475"/>
  <outline>
    <contour>
      <point x="391" y="694" type="line"/>
      <point x="222" y="694" type="line" smooth="yes"/>
      <point x="94" y="694"/>
      <point x="0" y="599"/>
      <point x="0" y="470" type="curve" smooth="yes"/>
      <point x="0" y="354"/>
      <point x="67" y="265"/>
      <point x="175" y="244" type="curve" name="hr01"/>
      <point x="175" y="-216" type="line"/>
      <point x="222" y="-216" type="line"/>
      <point x="222" y="648" type="line"/>
      <point x="301" y="648" type="line"/>
      <point x="301" y="-216" type="line"/>
      <point x="348" y="-216" type="line"/>
      <point x="348" y="648" type="line"/>
      <point x="391" y="648" type="line"/>
    </contour>
  </outline>
</glyph>
<glyph name="periodcentered" format="1">
  <unicode hex="00B7"/>
  <advance width="262"/>
  <outline>
    <contour>
      <point x="132" y="334" type="line"/>
      <point x="97" y="334"/>
      <point x="72" y="307"/>
      <point x="72" y="272" type="curve" smooth="yes"/>
      <point x="72" y="240"/>
      <point x="97" y="212"/>
      <point x="132" y="212" type="curve" smooth="yes"/>
      <point x="167" y="212"/>
      <point x="193" y="240"/>
      <point x="193" y="272" type="curve" smooth="yes"/>
      <point x="193" y="307"/>
      <point x="167" y="334"/>
      <point x="132" y="334" type="curve"/>
    </contour>
  </outline>
</glyph>
<glyph name="cedilla" format="1">
  <unicode hex="00B8"/>
  <advance width="349"/>
  <outline>
    <contour>
      <point x="145" y="3" type="line"/>
      <point x="101" y="-99" type="line"/>
      <point x="111" y="-106" type="line"/>
      <point x="123" y="-102"/>
      <point x="134" y="-100"/>
      <point x="145" y="-100" type="curve" smooth="yes"/>
      <point x="177" y="-100"/>
      <point x="196" y="-117"/>
      <point x="196" y="-141" type="curve" smooth="yes"/>
      <point x="196" y="-169"/>
      <point x="172" y="-184"/>
      <point x="135" y="-184" type="curve" smooth="yes"/>
      <point x="116" y="-184"/>
      <point x="91" y="-180"/>
      <point x="71" y="-173" type="curve"/>
      <point x="55" y="-205" type="line"/>
      <point x="88" y="-218"/>
      <point x="111" y="-222"/>
      <point x="140" y="-222" type="curve" smooth="yes"/>
      <point x="217" y="-222"/>
      <point x="274" y="-185"/>
      <point x="274" y="-134" type="curve" smooth="yes"/>
      <point x="274" y="-91"/>
      <point x="238" y="-61"/>
      <point x="185" y="-61" type="curve" smooth="yes"/>
      <point x="177" y="-61"/>
      <point x="170" y="-61"/>
      <point x="157" y="-65" type="curve"/>
      <point x="183" y="3" type="line"/>
    </contour>
  </outline>
</glyph>
<glyph name="onesuperior" format="1">
  <unicode hex="00B9"/>
  <advance width="319"/>
  <outline>
    <contour>
      <point x="195" y="705" type="line"/>
      <point x="68" y="642" type="line"/>
      <point x="68" y="622" type="line"/>
      <point x="95" y="633"/>
      <point x="111" y="639"/>
      <point x="118" y="639" type="curve" smooth="yes"/>
      <point x="130" y="639"/>
      <point x="133" y="629"/>
      <point x="133" y="593" type="curve" smooth="yes"/>
      <point x="133" y="342" type="line" smooth="yes"/>
      <point x="133" y="303"/>
      <point x="121" y="297"/>
      <point x="73" y="294" type="curve"/>
      <point x="73" y="278" type="line"/>
      <point x="256" y="278" type="line"/>
      <point x="256" y="294" type="line"/>
      <point x="207" y="297"/>
      <point x="195" y="303"/>
      <point x="195" y="342" type="curve" smooth="yes"/>
    </contour>
  </outline>
</glyph>
<glyph name="ordmasculine" format="1">
  <unicode hex="00BA"/>
  <advance width="325"/>
  <outline>
    <contour>
      <point x="305" y="291" type="line"/>
      <point x="305" y="340" type="line"/>
      <point x="27" y="340" type="line"/>
      <point x="27" y="291" type="line"/>
    </contour>
    <contour>
      <point x="170" y="708" type="line"/>
      <point x="84" y="708"/>
      <point x="15" y="642"/>
      <point x="15" y="557" type="curve" smooth="yes"/>
      <point x="15" y="475"/>
      <point x="79" y="414"/>
      <point x="162" y="414" type="curve" smooth="yes"/>
      <point x="249" y="414"/>
      <point x="315" y="482"/>
      <point x="315" y="568" type="curve" smooth="yes"/>
      <point x="315" y="650"/>
      <point x="255" y="708"/>
      <point x="170" y="708" type="curve"/>
    </contour>
    <contour>
      <point x="154" y="681" type="line"/>
      <point x="210" y="681"/>
      <point x="247" y="626"/>
      <point x="247" y="542" type="curve" smooth="yes"/>
      <point x="247" y="477"/>
      <point x="220" y="440"/>
      <point x="175" y="440" type="curve" smooth="yes"/>
      <point x="120" y="440"/>
      <point x="84" y="496"/>
      <point x="84" y="580" type="curve" smooth="yes"/>
      <point x="84" y="643"/>
      <point x="111" y="681"/>
      <point x="154" y="681" type="curve"/>
    </contour>
  </outline>
</glyph>
<glyph name="guillemotright" format="1">
  <unicode hex="00BB"/>
  <advance width="524"/>
  <outline>
    <contour>
      <point x="291" y="246" type="line"/>
      <point x="238" y="291"/>
      <point x="83" y="433"/>
      <point x="83" y="437" type="curve"/>
      <point x="84" y="437" type="line"/>
      <point x="78" y="444"/>
      <point x="71" y="447"/>
      <point x="66" y="447" type="curve" smooth="yes"/>
      <point x="60" y="447"/>
      <point x="55" y="443"/>
      <point x="55" y="437" type="curve" smooth="yes"/>
      <point x="55" y="428"/>
      <point x="147" y="301"/>
      <point x="191" y="246" type="curve"/>
      <point x="135" y="175"/>
      <point x="53" y="66"/>
      <point x="53" y="52" type="curve" smooth="yes"/>
      <point x="53" y="45"/>
      <point x="56" y="41"/>
      <point x="63" y="41" type="curve"/>
      <point x="93" y="52"/>
      <point x="73" y="58"/>
      <point x="240" y="202" type="curve" smooth="yes"/>
    </contour>
    <contour>
      <point x="490" y="246" type="line"/>
      <point x="305" y="414"/>
      <point x="322" y="400"/>
      <point x="285" y="437" type="curve" smooth="yes"/>
      <point x="279" y="444"/>
      <point x="272" y="447"/>
      <point x="266" y="447" type="curve" smooth="yes"/>
      <point x="260" y="447"/>
      <point x="256" y="444"/>
      <point x="256" y="437" type="curve" smooth="yes"/>
      <point x="256" y="428"/>
      <point x="345" y="304"/>
      <point x="392" y="246" type="curve"/>
      <point x="335" y="177"/>
      <point x="254" y="67"/>
      <point x="254" y="52" type="curve" smooth="yes"/>
      <point x="254" y="45"/>
      <point x="257" y="41"/>
      <point x="264" y="41" type="curve"/>
      <point x="294" y="54"/>
      <point x="260" y="45"/>
      <point x="440" y="202" type="curve" smooth="yes"/>
    </contour>
  </outline>
</glyph>
<glyph name="onequarter" format="1">
  <unicode hex="00BC"/>
  <advance width="815"/>
  <outline>
    <contour>
      <point x="195" y="705" type="line"/>
      <point x="68" y="642" type="line"/>
      <point x="68" y="622" type="line"/>
      <point x="95" y="633"/>
      <point x="111" y="639"/>
      <point x="118" y="639" type="curve" smooth="yes"/>
      <point x="130" y="639"/>
      <point x="133" y="629"/>
      <point x="133" y="593" type="curve" smooth="yes"/>
      <point x="133" y="342" type="line" smooth="yes"/>
      <point x="133" y="303"/>
      <point x="121" y="297"/>
      <point x="73" y="294" type="curve"/>
      <point x="73" y="278" type="line"/>
      <point x="256" y="278" type="line"/>
      <point x="256" y="294" type="line"/>
      <point x="207" y="297"/>
      <point x="195" y="303"/>
      <point x="195" y="342" type="curve" smooth="yes"/>
    </contour>
    <contour>
      <point x="620" y="708" type="line"/>
      <point x="141" y="-13" type="line"/>
      <point x="204" y="-13" type="line"/>
      <point x="683" y="708" type="line"/>
    </contour>
    <contour>
      <point x="700" y="425" type="line"/>
      <point x="499" y="147" type="line"/>
      <point x="499" y="102" type="line"/>
      <point x="679" y="102" type="line"/>
      <point x="679" y="0" type="line" name="hr01"/>
      <point x="735" y="0" type="line"/>
      <point x="735" y="102" type="line"/>
      <point x="800" y="102" type="line"/>
      <point x="800" y="151" type="line"/>
      <point x="735" y="151" type="line"/>
      <point x="735" y="425" type="line"/>
    </contour>
    <contour>
      <point x="538" y="151" type="line"/>
      <point x="679" y="343" type="line"/>
      <point x="679" y="151" type="line"/>
    </contour>
  </outline>
</glyph>
<glyph name="onehalf" format="1">
  <unicode hex="00BD"/>
  <advance width="815"/>
  <outline>
    <contour>
      <point x="195" y="705" type="line"/>
      <point x="68" y="642" type="line"/>
      <point x="68" y="622" type="line"/>
      <point x="95" y="633"/>
      <point x="111" y="639"/>
      <point x="118" y="639" type="curve" smooth="yes"/>
      <point x="130" y="639"/>
      <point x="133" y="629"/>
      <point x="133" y="593" type="curve" smooth="yes"/>
      <point x="133" y="342" type="line" smooth="yes"/>
      <point x="133" y="303"/>
      <point x="121" y="297"/>
      <point x="73" y="294" type="curve"/>
      <point x="73" y="278" type="line"/>
      <point x="256" y="278" type="line"/>
      <point x="256" y="294" type="line"/>
      <point x="207" y="297"/>
      <point x="195" y="303"/>
      <point x="195" y="342" type="curve" smooth="yes"/>
    </contour>
    <contour>
      <point x="620" y="708" type="line"/>
      <point x="141" y="-13" type="line"/>
      <point x="204" y="-13" type="line"/>
      <point x="683" y="708" type="line"/>
    </contour>
    <contour>
      <point x="803" y="90" type="line"/>
      <point x="785" y="97" type="line"/>
      <point x="760" y="55"/>
      <point x="760" y="54"/>
      <point x="711" y="54" type="curve" smooth="yes" name="hr01"/>
      <point x="587" y="54" type="line"/>
      <point x="670" y="137" type="line" smooth="yes"/>
      <point x="745" y="212"/>
      <point x="771" y="261"/>
      <point x="771" y="310" type="curve" smooth="yes"/>
      <point x="771" y="377"/>
      <point x="719" y="425"/>
      <point x="651" y="425" type="curve" smooth="yes"/>
      <point x="576" y="425"/>
      <point x="535" y="387"/>
      <point x="512" y="298" type="curve"/>
      <point x="531" y="292" type="line"/>
      <point x="554" y="351"/>
      <point x="578" y="373"/>
      <point x="623" y="373" type="curve" smooth="yes"/>
      <point x="675" y="373"/>
      <point x="708" y="338"/>
      <point x="708" y="289" type="curve" smooth="yes"/>
      <point x="708" y="287" type="line" smooth="yes"/>
      <point x="708" y="236"/>
      <point x="675" y="183"/>
      <point x="616" y="122" type="curve" smooth="yes"/>
      <point x="511" y="13" type="line"/>
      <point x="511" y="0" type="line"/>
      <point x="767" y="0" type="line"/>
    </contour>
  </outline>
</glyph>
<glyph name="threequarters" format="1">
  <unicode hex="00BE"/>
  <advance width="815"/>
  <outline>
    <contour>
      <point x="44" y="593" type="line"/>
      <point x="67" y="638"/>
      <point x="94" y="658"/>
      <point x="131" y="658" type="curve" smooth="yes"/>
      <point x="172" y="658"/>
      <point x="198" y="634"/>
      <point x="198" y="598" type="curve" smooth="yes"/>
      <point x="198" y="559"/>
      <point x="173" y="519"/>
      <point x="93" y="499" type="curve"/>
      <point x="93" y="482" type="line" name="hr01"/>
      <point x="185" y="482"/>
      <point x="223" y="455"/>
      <point x="223" y="391" type="curve" smooth="yes"/>
      <point x="223" y="336"/>
      <point x="191" y="300"/>
      <point x="143" y="300" type="curve" smooth="yes"/>
      <point x="120" y="300"/>
      <point x="68" y="334"/>
      <point x="52" y="334" type="curve" smooth="yes" name="hr02"/>
      <point x="36" y="334"/>
      <point x="25" y="323"/>
      <point x="25" y="308" type="curve" smooth="yes"/>
      <point x="25" y="282"/>
      <point x="49" y="269"/>
      <point x="98" y="269" type="curve" smooth="yes"/>
      <point x="206" y="269"/>
      <point x="278" y="328"/>
      <point x="278" y="417" type="curve" smooth="yes"/>
      <point x="278" y="470"/>
      <point x="259" y="502"/>
      <point x="203" y="530" type="curve"/>
      <point x="239" y="556"/>
      <point x="257" y="585"/>
      <point x="257" y="618" type="curve" smooth="yes" name="hr03"/>
      <point x="257" y="669"/>
      <point x="217" y="702"/>
      <point x="157" y="702" type="curve" smooth="yes"/>
      <point x="90" y="702"/>
      <point x="46" y="668"/>
      <point x="25" y="599" type="curve"/>
    </contour>
    <contour>
      <point x="620" y="708" type="line" name="hr04"/>
      <point x="141" y="-13" type="line"/>
      <point x="204" y="-13" type="line"/>
      <point x="683" y="708" type="line"/>
    </contour>
    <contour>
      <point x="700" y="425" type="line"/>
      <point x="499" y="147" type="line"/>
      <point x="499" y="102" type="line"/>
      <point x="679" y="102" type="line"/>
      <point x="679" y="0" type="line" name="hr05"/>
      <point x="735" y="0" type="line"/>
      <point x="735" y="102" type="line"/>
      <point x="800" y="102" type="line"/>
      <point x="800" y="151" type="line"/>
      <point x="735" y="151" type="line"/>
      <point x="735" y="425" type="line"/>
    </contour>
    <contour>
      <point x="538" y="151" type="line"/>
      <point x="679" y="343" type="line"/>
      <point x="679" y="151" type="line"/>
    </contour>
  </outline>
</glyph>
<glyph name="questiondown" format="1">
  <unicode hex="00BF"/>
  <advance width="466"/>
  <outline>
    <contour>
      <point x="228" y="296" type="line"/>
      <point x="223" y="244"/>
      <point x="202" y="188"/>
      <point x="167" y="143" type="curve" smooth="yes"/>
      <point x="102" y="59" type="line"/>
      <point x="67" y="7"/>
      <point x="51" y="-28"/>
      <point x="51" y="-73" type="curve" smooth="yes"/>
      <point x="51" y="-169"/>
      <point x="131" y="-240"/>
      <point x="236" y="-240" type="curve" smooth="yes"/>
      <point x="337" y="-240"/>
      <point x="414" y="-175"/>
      <point x="414" y="-92" type="curve" smooth="yes"/>
      <point x="414" y="-49"/>
      <point x="393" y="-25"/>
      <point x="360" y="-25" type="curve" smooth="yes"/>
      <point x="336" y="-25"/>
      <point x="315" y="-43"/>
      <point x="315" y="-71" type="curve" smooth="yes"/>
      <point x="315" y="-98"/>
      <point x="354" y="-124"/>
      <point x="354" y="-143" type="curve" smooth="yes" name="hr01"/>
      <point x="354" y="-179"/>
      <point x="313" y="-208"/>
      <point x="261" y="-208" type="curve" smooth="yes"/>
      <point x="194" y="-208"/>
      <point x="148" y="-153"/>
      <point x="148" y="-73" type="curve" smooth="yes"/>
      <point x="148" y="-26"/>
      <point x="161" y="24"/>
      <point x="190" y="85" type="curve" smooth="yes"/>
      <point x="237" y="182"/>
      <point x="247" y="214"/>
      <point x="249" y="296" type="curve"/>
    </contour>
    <contour>
      <point x="239" y="481" type="line"/>
      <point x="206" y="481"/>
      <point x="178" y="453"/>
      <point x="178" y="421" type="curve" smooth="yes"/>
      <point x="178" y="386"/>
      <point x="206" y="359"/>
      <point x="239" y="359" type="curve" smooth="yes"/>
      <point x="272" y="359"/>
      <point x="300" y="386"/>
      <point x="300" y="421" type="curve" smooth="yes"/>
      <point x="300" y="453"/>
      <point x="272" y="481"/>
      <point x="239" y="481" type="curve"/>
    </contour>
  </outline>
</glyph>
<glyph name="Agrave" format="1">
  <unicode hex="00C0"/>
  <advance width="757"/>
  <outline>
    <contour>
      <point x="384" y="708" type="line"/>
      <point x="364" y="708" type="line"/>
      <point x="133" y="164" type="line" smooth="yes"/>
      <point x="87" y="56"/>
      <point x="64" y="29"/>
      <point x="15" y="20" type="curve"/>
      <point x="15" y="0" type="line"/>
      <point x="225" y="0" type="line"/>
      <point x="225" y="20" type="line"/>
      <point x="173" y="24"/>
      <point x="155" y="34"/>
      <point x="155" y="61" type="curve" smooth="yes"/>
      <point x="155" y="104"/>
      <point x="186" y="170"/>
      <point x="187" y="172" type="curve" smooth="yes"/>
      <point x="210" y="224" type="line"/>
      <point x="483" y="224" type="line"/>
      <point x="532" y="103" type="line" smooth="yes"/>
      <point x="540" y="84"/>
      <point x="544" y="65"/>
      <point x="544" y="56" type="curve" smooth="yes"/>
      <point x="544" y="32"/>
      <point x="527" y="25"/>
      <point x="472" y="20" type="curve"/>
      <point x="472" y="0" type="line"/>
      <point x="740" y="0" type="line"/>
      <point x="740" y="20" type="line"/>
      <point x="699" y="20"/>
      <point x="674" y="42"/>
      <point x="642" y="117" type="curve" smooth="yes"/>
    </contour>
    <contour>
      <point x="347" y="553" type="line"/>
      <point x="465" y="268" type="line"/>
      <point x="227" y="268" type="line"/>
    </contour>
    <contour>
      <point x="323" y="894" type="line" smooth="yes"/>
      <point x="289" y="928"/>
      <point x="285" y="935"/>
      <point x="261" y="935" type="curve" smooth="yes"/>
      <point x="238" y="935"/>
      <point x="222" y="920"/>
      <point x="222" y="901" type="curve" smooth="yes"/>
      <point x="222" y="881"/>
      <point x="230" y="872"/>
      <point x="263" y="851" type="curve" smooth="yes"/>
      <point x="410" y="756" type="line"/>
      <point x="457" y="756" type="line"/>
    </contour>
  </outline>
</glyph>
<glyph name="Atilde" format="1">
  <unicode hex="00C3"/>
  <advance width="757"/>
  <outline>
    <contour>
      <point x="384" y="708" type="line"/>
      <point x="364" y="708" type="line"/>
      <point x="133" y="164" type="line" smooth="yes"/>
      <point x="87" y="56"/>
      <point x="64" y="29"/>
      <point x="15" y="20" type="curve"/>
      <point x="15" y="0" type="line"/>
      <point x="225" y="0" type="line"/>
      <point x="225" y="20" type="line"/>
      <point x="173" y="24"/>
      <point x="155" y="34"/>
      <point x="155" y="61" type="curve" smooth="yes"/>
      <point x="155" y="104"/>
      <point x="186" y="169"/>
      <point x="187" y="172" type="curve" smooth="yes"/>
      <point x="210" y="224" type="line"/>
      <point x="483" y="224" type="line"/>
      <point x="532" y="103" type="line" smooth="yes"/>
      <point x="540" y="84"/>
      <point x="544" y="65"/>
      <point x="544" y="56" type="curve" smooth="yes"/>
      <point x="544" y="32"/>
      <point x="527" y="25"/>
      <point x="472" y="20" type="curve"/>
      <point x="472" y="0" type="line"/>
      <point x="740" y="0" type="line"/>
      <point x="740" y="20" type="line"/>
      <point x="699" y="20"/>
      <point x="674" y="42"/>
      <point x="642" y="117" type="curve" smooth="yes"/>
    </contour>
    <contour>
      <point x="347" y="553" type="line"/>
      <point x="465" y="268" type="line"/>
      <point x="227" y="268" type="line"/>
    </contour>
    <contour>
      <point x="236" y="782" type="line"/>
      <point x="247" y="815"/>
      <point x="268" y="831"/>
      <point x="299" y="831" type="curve" smooth="yes"/>
      <point x="342" y="831"/>
      <point x="400" y="785"/>
      <point x="433" y="785" type="curve" smooth="yes" name="hr01"/>
      <point x="497" y="785"/>
      <point x="541" y="826"/>
      <point x="552" y="893" type="curve"/>
      <point x="520" y="893" type="line"/>
      <point x="509" y="861"/>
      <point x="488" y="845"/>
      <point x="457" y="845" type="curve" smooth="yes"/>
      <point x="424" y="845"/>
      <point x="361" y="891"/>
      <point x="323" y="891" type="curve" smooth="yes" name="hr02"/>
      <point x="258" y="891"/>
      <point x="214" y="850"/>
      <point x="205" y="782" type="curve"/>
    </contour>
  </outline>
</glyph>
<glyph name="Adieresis" format="1">
  <unicode hex="00C4"/>
  <advance width="757"/>
  <outline>
    <contour>
      <point x="384" y="708" type="line"/>
      <point x="364" y="708" type="line"/>
      <point x="133" y="164" type="line" smooth="yes"/>
      <point x="87" y="56"/>
      <point x="64" y="29"/>
      <point x="15" y="20" type="curve"/>
      <point x="15" y="0" type="line"/>
      <point x="225" y="0" type="line"/>
      <point x="225" y="20" type="line"/>
      <point x="173" y="24"/>
      <point x="155" y="34"/>
      <point x="155" y="61" type="curve" smooth="yes"/>
      <point x="155" y="104"/>
      <point x="186" y="170"/>
      <point x="187" y="172" type="curve" smooth="yes"/>
      <point x="210" y="224" type="line"/>
      <point x="483" y="224" type="line"/>
      <point x="532" y="103" type="line" smooth="yes"/>
      <point x="540" y="84"/>
      <point x="544" y="65"/>
      <point x="544" y="56" type="curve" smooth="yes"/>
      <point x="544" y="32"/>
      <point x="527" y="25"/>
      <point x="472" y="20" type="curve"/>
      <point x="472" y="0" type="line"/>
      <point x="740" y="0" type="line"/>
      <point x="740" y="20" type="line"/>
      <point x="699" y="20"/>
      <point x="674" y="42"/>
      <point x="642" y="117" type="curve" smooth="yes"/>
    </contour>
    <contour>
      <point x="347" y="553" type="line"/>
      <point x="465" y="268" type="line"/>
      <point x="227" y="268" type="line"/>
    </contour>
    <contour>
      <point x="273" y="878" type="line"/>
      <point x="245" y="878"/>
      <point x="221" y="854"/>
      <point x="221" y="825" type="curve" smooth="yes"/>
      <point x="221" y="797"/>
      <point x="246" y="773"/>
      <point x="273" y="773" type="curve" smooth="yes"/>
      <point x="304" y="773"/>
      <point x="326" y="796"/>
      <point x="326" y="825" type="curve" smooth="yes"/>
      <point x="326" y="854"/>
      <point x="304" y="878"/>
      <point x="273" y="878" type="curve"/>
    </contour>
    <contour>
      <point x="481" y="878" type="line"/>
      <point x="453" y="878"/>
      <point x="429" y="854"/>
      <point x="429" y="825" type="curve" smooth="yes"/>
      <point x="429" y="797"/>
      <point x="454" y="773"/>
      <point x="481" y="773" type="curve" smooth="yes"/>
      <point x="512" y="773"/>
      <point x="534" y="796"/>
      <point x="534" y="825" type="curve" smooth="yes"/>
      <point x="534" y="854"/>
      <point x="512" y="878"/>
      <point x="481" y="878" type="curve"/>
    </contour>
  </outline>
</glyph>
<glyph name="Aring" format="1">
  <unicode hex="00C5"/>
  <advance width="757"/>
  <outline>
    <contour>
      <point x="384" y="708" type="line"/>
      <point x="364" y="708" type="line"/>
      <point x="133" y="164" type="line" smooth="yes"/>
      <point x="87" y="56"/>
      <point x="64" y="29"/>
      <point x="15" y="20" type="curve"/>
      <point x="15" y="0" type="line"/>
      <point x="225" y="0" type="line"/>
      <point x="225" y="20" type="line"/>
      <point x="173" y="24"/>
      <point x="155" y="34"/>
      <point x="155" y="61" type="curve" smooth="yes"/>
      <point x="155" y="104"/>
      <point x="186" y="170"/>
      <point x="187" y="172" type="curve" smooth="yes"/>
      <point x="210" y="224" type="line"/>
      <point x="483" y="224" type="line"/>
      <point x="532" y="103" type="line" smooth="yes"/>
      <point x="540" y="84"/>
      <point x="544" y="65"/>
      <point x="544" y="56" type="curve" smooth="yes"/>
      <point x="544" y="32"/>
      <point x="527" y="25"/>
      <point x="472" y="20" type="curve"/>
      <point x="472" y="0" type="line"/>
      <point x="740" y="0" type="line"/>
      <point x="740" y="20" type="line"/>
      <point x="699" y="20"/>
      <point x="674" y="42"/>
      <point x="642" y="117" type="curve" smooth="yes"/>
    </contour>
    <contour>
      <point x="347" y="553" type="line"/>
      <point x="465" y="268" type="line"/>
      <point x="227" y="268" type="line"/>
    </contour>
    <contour>
      <point x="374" y="937" type="line"/>
      <point x="317" y="937"/>
      <point x="269" y="889"/>
      <point x="269" y="832" type="curve" smooth="yes"/>
      <point x="269" y="776"/>
      <point x="317" y="728"/>
      <point x="374" y="728" type="curve" smooth="yes"/>
      <point x="431" y="728"/>
      <point x="478" y="776"/>
      <point x="478" y="832" type="curve" smooth="yes"/>
      <point x="478" y="889"/>
      <point x="431" y="937"/>
      <point x="374" y="937" type="curve"/>
    </contour>
    <contour>
      <point x="374" y="897" type="line"/>
      <point x="409" y="897"/>
      <point x="437" y="868"/>
      <point x="437" y="832" type="curve" smooth="yes"/>
      <point x="437" y="795"/>
      <point x="409" y="768"/>
      <point x="374" y="768" type="curve" smooth="yes"/>
      <point x="338" y="768"/>
      <point x="310" y="797"/>
      <point x="310" y="832" type="curve" smooth="yes"/>
      <point x="310" y="868"/>
      <point x="338" y="897"/>
      <point x="374" y="897" type="curve"/>
    </contour>
  </outline>
</glyph>
<glyph name="AE" format="1">
  <unicode hex="00C6"/>
  <advance width="932"/>
  <outline>
    <contour>
      <point x="856" y="694" type="line"/>
      <point x="272" y="694" type="line"/>
      <point x="272" y="673" type="line"/>
      <point x="339" y="669"/>
      <point x="364" y="666"/>
      <point x="364" y="639" type="curve" smooth="yes"/>
      <point x="364" y="627"/>
      <point x="358" y="614"/>
      <point x="351" y="599" type="curve" smooth="yes"/>
      <point x="104" y="114" type="line" smooth="yes"/>
      <point x="69" y="44"/>
      <point x="47" y="20"/>
      <point x="7" y="20" type="curve"/>
      <point x="5" y="0" type="line"/>
      <point x="218" y="0" type="line"/>
      <point x="218" y="20" type="line"/>
      <point x="175" y="24"/>
      <point x="148" y="38"/>
      <point x="148" y="59" type="curve" smooth="yes"/>
      <point x="148" y="70"/>
      <point x="154" y="84"/>
      <point x="158" y="93" type="curve"/>
      <point x="158" y="94"/>
      <point x="159" y="95"/>
      <point x="159" y="95" type="curve"/>
      <point x="238" y="269" type="line"/>
      <point x="424" y="269" type="line"/>
      <point x="424" y="114" type="line" smooth="yes"/>
      <point x="424" y="38"/>
      <point x="406" y="31"/>
      <point x="331" y="20" type="curve"/>
      <point x="331" y="0" type="line"/>
      <point x="864" y="0" type="line"/>
      <point x="911" y="178" type="line"/>
      <point x="879" y="178" type="line"/>
      <point x="841" y="79"/>
      <point x="791" y="42"/>
      <point x="688" y="42" type="curve" smooth="yes"/>
      <point x="606" y="42" type="line" smooth="yes"/>
      <point x="538" y="42"/>
      <point x="532" y="45"/>
      <point x="532" y="97" type="curve" smooth="yes"/>
      <point x="532" y="342" type="line"/>
      <point x="649" y="342" type="line" smooth="yes"/>
      <point x="737" y="342"/>
      <point x="769" y="317"/>
      <point x="774" y="242" type="curve" name="hr01"/>
      <point x="798" y="242" type="line"/>
      <point x="798" y="484" type="line"/>
      <point x="774" y="484" type="line"/>
      <point x="769" y="409"/>
      <point x="737" y="384"/>
      <point x="649" y="384" type="curve" smooth="yes"/>
      <point x="532" y="384" type="line" name="hr02"/>
      <point x="532" y="597" type="line" smooth="yes"/>
      <point x="532" y="643"/>
      <point x="544" y="652"/>
      <point x="592" y="652" type="curve" smooth="yes"/>
      <point x="698" y="652" type="line" smooth="yes"/>
      <point x="777" y="652"/>
      <point x="820" y="616"/>
      <point x="829" y="543" type="curve"/>
      <point x="856" y="543" type="line"/>
    </contour>
    <contour>
      <point x="424" y="639" type="line" name="hr03"/>
      <point x="424" y="312" type="line"/>
      <point x="259" y="312" type="line"/>
    </contour>
  </outline>
</glyph>
<glyph name="Ccedilla" format="1">
  <unicode hex="00C7"/>
  <advance width="699"/>
  <outline>
    <contour>
      <point x="408" y="-13" type="line"/>
      <point x="515" y="-6"/>
      <point x="591" y="31"/>
      <point x="668" y="118" type="curve"/>
      <point x="648" y="139" type="line"/>
      <point x="564" y="63"/>
      <point x="504" y="35"/>
      <point x="409" y="35" type="curve" smooth="yes"/>
      <point x="251" y="35"/>
      <point x="157" y="154"/>
      <point x="157" y="349" type="curve" smooth="yes"/>
      <point x="157" y="545"/>
      <point x="249" y="663"/>
      <point x="401" y="663" type="curve" smooth="yes"/>
      <point x="517" y="663"/>
      <point x="595" y="596"/>
      <point x="627" y="472" type="curve"/>
      <point x="655" y="472" type="line"/>
      <point x="655" y="708" type="line"/>
      <point x="622" y="708" type="line"/>
      <point x="607" y="677"/>
      <point x="600" y="670"/>
      <point x="579" y="670" type="curve" smooth="yes"/>
      <point x="567" y="670"/>
      <point x="559" y="671"/>
      <point x="542" y="679" type="curve"/>
      <point x="485" y="699"/>
      <point x="443" y="708"/>
      <point x="394" y="708" type="curve" smooth="yes"/>
      <point x="181" y="708"/>
      <point x="35" y="557"/>
      <point x="35" y="342" type="curve" smooth="yes"/>
      <point x="35" y="134"/>
      <point x="166" y="-5"/>
      <point x="370" y="-13" type="curve"/>
      <point x="333" y="-99" type="line"/>
      <point x="341" y="-106" type="line"/>
      <point x="353" y="-102"/>
      <point x="365" y="-100"/>
      <point x="377" y="-100" type="curve" smooth="yes"/>
      <point x="406" y="-100"/>
      <point x="427" y="-117"/>
      <point x="427" y="-141" type="curve" smooth="yes"/>
      <point x="427" y="-169"/>
      <point x="402" y="-184"/>
      <point x="366" y="-184" type="curve" smooth="yes"/>
      <point x="346" y="-184"/>
      <point x="321" y="-180"/>
      <point x="301" y="-173" type="curve"/>
      <point x="287" y="-205" type="line"/>
      <point x="318" y="-218"/>
      <point x="340" y="-222"/>
      <point x="371" y="-222" type="curve" smooth="yes"/>
      <point x="446" y="-222"/>
      <point x="506" y="-185"/>
      <point x="506" y="-134" type="curve" smooth="yes"/>
      <point x="506" y="-91"/>
      <point x="469" y="-61"/>
      <point x="417" y="-61" type="curve" smooth="yes"/>
      <point x="408" y="-61"/>
      <point x="400" y="-61"/>
      <point x="387" y="-65" type="curve"/>
    </contour>
  </outline>
</glyph>
<glyph name="Igrave" format="1">
  <unicode hex="00CC"/>
  <advance width="349"/>
  <outline>
    <contour>
      <point x="229" y="581" type="line" smooth="yes"/>
      <point x="229" y="653"/>
      <point x="248" y="670"/>
      <point x="332" y="673" type="curve"/>
      <point x="332" y="694" type="line"/>
      <point x="18" y="694" type="line"/>
      <point x="18" y="673" type="line"/>
      <point x="103" y="670"/>
      <point x="121" y="653"/>
      <point x="121" y="581" type="curve" smooth="yes"/>
      <point x="121" y="114" type="line" smooth="yes"/>
      <point x="121" y="37"/>
      <point x="103" y="28"/>
      <point x="18" y="20" type="curve"/>
      <point x="18" y="0" type="line"/>
      <point x="332" y="0" type="line"/>
      <point x="332" y="20" type="line"/>
      <point x="254" y="28"/>
      <point x="229" y="37"/>
      <point x="229" y="102" type="curve" smooth="yes"/>
    </contour>
    <contour>
      <point x="123" y="894" type="line" smooth="yes"/>
      <point x="89" y="928"/>
      <point x="85" y="935"/>
      <point x="61" y="935" type="curve" smooth="yes"/>
      <point x="38" y="935"/>
      <point x="22" y="920"/>
      <point x="22" y="901" type="curve" smooth="yes"/>
      <point x="22" y="881"/>
      <point x="30" y="872"/>
      <point x="63" y="851" type="curve" smooth="yes"/>
      <point x="210" y="756" type="line"/>
      <point x="257" y="756" type="line"/>
    </contour>
  </outline>
</glyph>
<glyph name="Iacute" format="1">
  <unicode hex="00CD"/>
  <advance width="349"/>
  <outline>
    <contour>
      <point x="229" y="581" type="line" smooth="yes"/>
      <point x="229" y="653"/>
      <point x="248" y="670"/>
      <point x="332" y="673" type="curve"/>
      <point x="332" y="694" type="line"/>
      <point x="18" y="694" type="line"/>
      <point x="18" y="673" type="line"/>
      <point x="103" y="670"/>
      <point x="121" y="653"/>
      <point x="121" y="581" type="curve" smooth="yes"/>
      <point x="121" y="114" type="line" smooth="yes"/>
      <point x="121" y="37"/>
      <point x="103" y="28"/>
      <point x="18" y="20" type="curve"/>
      <point x="18" y="0" type="line"/>
      <point x="332" y="0" type="line"/>
      <point x="332" y="20" type="line"/>
      <point x="248" y="28"/>
      <point x="229" y="38"/>
      <point x="229" y="114" type="curve" smooth="yes"/>
    </contour>
    <contour>
      <point x="97" y="756" type="line"/>
      <point x="144" y="756" type="line"/>
      <point x="292" y="851" type="line" smooth="yes"/>
      <point x="324" y="872"/>
      <point x="333" y="881"/>
      <point x="333" y="901" type="curve" smooth="yes"/>
      <point x="333" y="920"/>
      <point x="315" y="935"/>
      <point x="294" y="935" type="curve" smooth="yes"/>
      <point x="272" y="935"/>
      <point x="265" y="928"/>
      <point x="238" y="901" type="curve" smooth="yes"/>
    </contour>
  </outline>
</glyph>
<glyph name="Icircumflex" format="1">
  <unicode hex="00CE"/>
  <advance width="349"/>
  <outline>
    <contour>
      <point x="229" y="581" type="line" smooth="yes"/>
      <point x="229" y="653"/>
      <point x="248" y="670"/>
      <point x="332" y="673" type="curve"/>
      <point x="332" y="694" type="line"/>
      <point x="18" y="694" type="line"/>
      <point x="18" y="673" type="line"/>
      <point x="103" y="670"/>
      <point x="121" y="653"/>
      <point x="121" y="581" type="curve" smooth="yes"/>
      <point x="121" y="114" type="line" smooth="yes"/>
      <point x="121" y="37"/>
      <point x="103" y="28"/>
      <point x="18" y="20" type="curve"/>
      <point x="18" y="0" type="line"/>
      <point x="332" y="0" type="line"/>
      <point x="332" y="20" type="line"/>
      <point x="248" y="28"/>
      <point x="229" y="38"/>
      <point x="229" y="114" type="curve" smooth="yes"/>
    </contour>
    <contour>
      <point x="142" y="931" type="line"/>
      <point x="11" y="756" type="line"/>
      <point x="48" y="756" type="line"/>
      <point x="176" y="862" type="line"/>
      <point x="301" y="756" type="line"/>
      <point x="339" y="756" type="line"/>
      <point x="209" y="931" type="line"/>
    </contour>
  </outline>
</glyph>
<glyph name="Idieresis" format="1">
  <unicode hex="00CF"/>
  <advance width="349"/>
  <outline>
    <contour>
      <point x="229" y="581" type="line" smooth="yes"/>
      <point x="229" y="653"/>
      <point x="248" y="670"/>
      <point x="332" y="673" type="curve" name="hr01"/>
      <point x="332" y="694" type="line"/>
      <point x="18" y="694" type="line"/>
      <point x="18" y="673" type="line"/>
      <point x="103" y="670"/>
      <point x="121" y="653"/>
      <point x="121" y="581" type="curve" smooth="yes" name="hr02"/>
      <point x="121" y="114" type="line" smooth="yes"/>
      <point x="121" y="37"/>
      <point x="103" y="28"/>
      <point x="18" y="20" type="curve" name="hr03"/>
      <point x="18" y="0" type="line"/>
      <point x="332" y="0" type="line"/>
      <point x="332" y="20" type="line"/>
      <point x="248" y="28"/>
      <point x="229" y="38"/>
      <point x="229" y="114" type="curve" smooth="yes" name="hr04"/>
    </contour>
    <contour>
      <point x="72" y="878" type="line"/>
      <point x="41" y="878"/>
      <point x="18" y="854"/>
      <point x="18" y="825" type="curve" smooth="yes" name="hr05"/>
      <point x="18" y="797"/>
      <point x="43" y="773"/>
      <point x="72" y="773" type="curve" smooth="yes"/>
      <point x="100" y="773"/>
      <point x="124" y="796"/>
      <point x="124" y="825" type="curve" smooth="yes"/>
      <point x="124" y="854"/>
      <point x="100" y="878"/>
      <point x="72" y="878" type="curve"/>
    </contour>
    <contour>
      <point x="279" y="878" type="line"/>
      <point x="250" y="878"/>
      <point x="226" y="854"/>
      <point x="226" y="825" type="curve" smooth="yes"/>
      <point x="226" y="797"/>
      <point x="251" y="773"/>
      <point x="279" y="773" type="curve" smooth="yes"/>
      <point x="308" y="773"/>
      <point x="332" y="796"/>
      <point x="332" y="825" type="curve" smooth="yes"/>
      <point x="332" y="854"/>
      <point x="308" y="878"/>
      <point x="279" y="878" type="curve"/>
    </contour>
  </outline>
</glyph>
<glyph name="Eth" format="1">
  <unicode hex="00D0"/>
  <advance width="757"/>
  <outline>
    <contour>
      <point x="115" y="340" type="line"/>
      <point x="115" y="114" type="line" smooth="yes"/>
      <point x="115" y="39"/>
      <point x="97" y="30"/>
      <point x="20" y="20" type="curve"/>
      <point x="20" y="0" type="line"/>
      <point x="281" y="0" type="line" smooth="yes"/>
      <point x="568" y="0"/>
      <point x="723" y="124"/>
      <point x="723" y="346" type="curve" smooth="yes"/>
      <point x="723" y="559"/>
      <point x="595" y="694"/>
      <point x="296" y="694" type="curve" smooth="yes"/>
      <point x="20" y="694" type="line"/>
      <point x="20" y="673" type="line" name="hr01"/>
      <point x="98" y="668"/>
      <point x="115" y="652"/>
      <point x="115" y="581" type="curve" smooth="yes"/>
      <point x="115" y="385" type="line"/>
      <point x="20" y="385" type="line"/>
      <point x="20" y="340" type="line"/>
    </contour>
    <contour>
      <point x="223" y="340" type="line"/>
      <point x="370" y="340" type="line"/>
      <point x="370" y="385" type="line"/>
      <point x="223" y="385" type="line"/>
      <point x="223" y="601" type="line" smooth="yes"/>
      <point x="223" y="648"/>
      <point x="228" y="651"/>
      <point x="294" y="651" type="curve" smooth="yes" name="hr02"/>
      <point x="493" y="651"/>
      <point x="606" y="542"/>
      <point x="606" y="347" type="curve" smooth="yes"/>
      <point x="606" y="152"/>
      <point x="498" y="43"/>
      <point x="302" y="43" type="curve" smooth="yes"/>
      <point x="234" y="43"/>
      <point x="223" y="52"/>
      <point x="223" y="113" type="curve" smooth="yes"/>
    </contour>
  </outline>
</glyph>
<glyph name="Ntilde" format="1">
  <unicode hex="00D1"/>
  <advance width="757"/>
  <outline>
    <contour>
      <point x="194" y="694" type="line"/>
      <point x="12" y="694" type="line"/>
      <point x="12" y="673" type="line"/>
      <point x="64" y="673"/>
      <point x="79" y="662"/>
      <point x="115" y="621" type="curve"/>
      <point x="115" y="114" type="line" smooth="yes"/>
      <point x="115" y="38"/>
      <point x="96" y="28"/>
      <point x="12" y="20" type="curve"/>
      <point x="12" y="0" type="line"/>
      <point x="264" y="0" type="line"/>
      <point x="264" y="20" type="line"/>
      <point x="180" y="28"/>
      <point x="163" y="38"/>
      <point x="163" y="114" type="curve" smooth="yes"/>
      <point x="163" y="561" type="line"/>
      <point x="624" y="-13" type="line" name="hr01"/>
      <point x="642" y="-13" type="line"/>
      <point x="642" y="581" type="line" smooth="yes"/>
      <point x="642" y="653"/>
      <point x="659" y="670"/>
      <point x="743" y="673" type="curve"/>
      <point x="743" y="694" type="line"/>
      <point x="492" y="694" type="line"/>
      <point x="492" y="673" type="line"/>
      <point x="575" y="670"/>
      <point x="594" y="653"/>
      <point x="594" y="581" type="curve" smooth="yes"/>
      <point x="594" y="194" type="line"/>
    </contour>
    <contour>
      <point x="236" y="782" type="line"/>
      <point x="247" y="815"/>
      <point x="268" y="831"/>
      <point x="299" y="831" type="curve" smooth="yes"/>
      <point x="342" y="831"/>
      <point x="400" y="785"/>
      <point x="433" y="785" type="curve" smooth="yes" name="hr02"/>
      <point x="497" y="785"/>
      <point x="541" y="826"/>
      <point x="552" y="893" type="curve"/>
      <point x="520" y="893" type="line"/>
      <point x="509" y="861"/>
      <point x="488" y="845"/>
      <point x="457" y="845" type="curve" smooth="yes"/>
      <point x="424" y="845"/>
      <point x="361" y="891"/>
      <point x="323" y="891" type="curve" smooth="yes" name="hr03"/>
      <point x="258" y="891"/>
      <point x="214" y="850"/>
      <point x="205" y="782" type="curve"/>
    </contour>
  </outline>
</glyph>
<glyph name="Oacute" format="1">
  <unicode hex="00D3"/>
  <advance width="757"/>
  <outline>
    <contour>
      <point x="379" y="708" type="line"/>
      <point x="177" y="708"/>
      <point x="35" y="557"/>
      <point x="35" y="347" type="curve" smooth="yes"/>
      <point x="35" y="137"/>
      <point x="178" y="-13"/>
      <point x="377" y="-13" type="curve" smooth="yes"/>
      <point x="577" y="-13"/>
      <point x="722" y="136"/>
      <point x="722" y="347" type="curve" smooth="yes"/>
      <point x="722" y="556"/>
      <point x="576" y="708"/>
      <point x="379" y="708" type="curve"/>
    </contour>
    <contour>
      <point x="370" y="668" type="line"/>
      <point x="508" y="668"/>
      <point x="600" y="538"/>
      <point x="600" y="343" type="curve" smooth="yes"/>
      <point x="600" y="140"/>
      <point x="520" y="27"/>
      <point x="383" y="27" type="curve" smooth="yes"/>
      <point x="245" y="27"/>
      <point x="157" y="156"/>
      <point x="157" y="353" type="curve" smooth="yes"/>
      <point x="157" y="549"/>
      <point x="236" y="668"/>
      <point x="370" y="668" type="curve"/>
    </contour>
    <contour>
      <point x="302" y="756" type="line"/>
      <point x="349" y="756" type="line"/>
      <point x="496" y="851" type="line" smooth="yes"/>
      <point x="529" y="872"/>
      <point x="537" y="881"/>
      <point x="537" y="901" type="curve" smooth="yes"/>
      <point x="537" y="920"/>
      <point x="521" y="935"/>
      <point x="498" y="935" type="curve" smooth="yes"/>
      <point x="474" y="935"/>
      <point x="470" y="928"/>
      <point x="436" y="894" type="curve" smooth="yes"/>
    </contour>
  </outline>
</glyph>
<glyph name="Otilde" format="1">
  <unicode hex="00D5"/>
  <advance width="757"/>
  <outline>
    <contour>
      <point x="379" y="708" type="line"/>
      <point x="177" y="708"/>
      <point x="35" y="557"/>
      <point x="35" y="347" type="curve" smooth="yes"/>
      <point x="35" y="137"/>
      <point x="178" y="-13"/>
      <point x="377" y="-13" type="curve" smooth="yes"/>
      <point x="577" y="-13"/>
      <point x="722" y="136"/>
      <point x="722" y="347" type="curve" smooth="yes"/>
      <point x="722" y="556"/>
      <point x="576" y="708"/>
      <point x="379" y="708" type="curve"/>
    </contour>
    <contour>
      <point x="370" y="668" type="line"/>
      <point x="508" y="668"/>
      <point x="600" y="538"/>
      <point x="600" y="343" type="curve" smooth="yes"/>
      <point x="600" y="140"/>
      <point x="520" y="27"/>
      <point x="383" y="27" type="curve" smooth="yes"/>
      <point x="245" y="27"/>
      <point x="157" y="156"/>
      <point x="157" y="353" type="curve" smooth="yes"/>
      <point x="157" y="549"/>
      <point x="236" y="668"/>
      <point x="370" y="668" type="curve"/>
    </contour>
    <contour>
      <point x="236" y="782" type="line"/>
      <point x="247" y="815"/>
      <point x="268" y="831"/>
      <point x="299" y="831" type="curve" smooth="yes"/>
      <point x="342" y="831"/>
      <point x="400" y="785"/>
      <point x="433" y="785" type="curve" smooth="yes" name="hr01"/>
      <point x="497" y="785"/>
      <point x="541" y="826"/>
      <point x="552" y="893" type="curve"/>
      <point x="520" y="893" type="line"/>
      <point x="509" y="861"/>
      <point x="488" y="845"/>
      <point x="457" y="845" type="curve" smooth="yes"/>
      <point x="424" y="845"/>
      <point x="361" y="891"/>
      <point x="323" y="891" type="curve" smooth="yes" name="hr02"/>
      <point x="258" y="891"/>
      <point x="214" y="850"/>
      <point x="205" y="782" type="curve"/>
    </contour>
  </outline>
</glyph>
<glyph name="multiply" format="1">
  <unicode hex="00D7"/>
  <advance width="592"/>
  <outline>
    <contour>
      <point x="85" y="436" type="line"/>
      <point x="249" y="272" type="line"/>
      <point x="85" y="109" type="line"/>
      <point x="132" y="61" type="line"/>
      <point x="296" y="225" type="line"/>
      <point x="458" y="61" type="line"/>
      <point x="507" y="109" type="line"/>
      <point x="343" y="272" type="line"/>
      <point x="507" y="436" type="line"/>
      <point x="458" y="483" type="line"/>
      <point x="296" y="319" type="line"/>
      <point x="132" y="483" type="line"/>
    </contour>
  </outline>
</glyph>
<glyph name="Ugrave" format="1">
  <unicode hex="00D9"/>
  <advance width="757"/>
  <outline>
    <contour>
      <point x="219" y="581" type="line" smooth="yes"/>
      <point x="219" y="653"/>
      <point x="237" y="667"/>
      <point x="312" y="673" type="curve"/>
      <point x="312" y="694" type="line"/>
      <point x="16" y="694" type="line"/>
      <point x="16" y="673" type="line"/>
      <point x="95" y="665"/>
      <point x="111" y="651"/>
      <point x="111" y="581" type="curve" smooth="yes"/>
      <point x="111" y="244" type="line" smooth="yes"/>
      <point x="111" y="67"/>
      <point x="193" y="-13"/>
      <point x="378" y="-13" type="curve" smooth="yes"/>
      <point x="540" y="-13"/>
      <point x="643" y="64"/>
      <point x="643" y="246" type="curve" smooth="yes"/>
      <point x="643" y="581" type="line" smooth="yes"/>
      <point x="643" y="653"/>
      <point x="661" y="670"/>
      <point x="739" y="673" type="curve"/>
      <point x="739" y="694" type="line"/>
      <point x="498" y="694" type="line"/>
      <point x="498" y="673" type="line"/>
      <point x="576" y="670"/>
      <point x="595" y="652"/>
      <point x="595" y="581" type="curve" smooth="yes"/>
      <point x="595" y="239" type="line" smooth="yes"/>
      <point x="595" y="96"/>
      <point x="535" y="36"/>
      <point x="395" y="36" type="curve" smooth="yes"/>
      <point x="270" y="36"/>
      <point x="219" y="93"/>
      <point x="219" y="233" type="curve" smooth="yes"/>
    </contour>
    <contour>
      <point x="323" y="894" type="line" smooth="yes"/>
      <point x="289" y="928"/>
      <point x="285" y="935"/>
      <point x="261" y="935" type="curve" smooth="yes"/>
      <point x="238" y="935"/>
      <point x="222" y="920"/>
      <point x="222" y="901" type="curve" smooth="yes"/>
      <point x="222" y="881"/>
      <point x="230" y="872"/>
      <point x="263" y="851" type="curve" smooth="yes"/>
      <point x="410" y="756" type="line"/>
      <point x="457" y="756" type="line"/>
    </contour>
  </outline>
</glyph>
<glyph name="Thorn" format="1">
  <unicode hex="00DE"/>
  <advance width="593"/>
  <outline>
    <contour>
      <point x="223" y="166" type="line"/>
      <point x="268" y="162"/>
      <point x="288" y="161"/>
      <point x="311" y="161" type="curve" smooth="yes"/>
      <point x="476" y="161"/>
      <point x="578" y="237"/>
      <point x="578" y="365" type="curve" smooth="yes"/>
      <point x="578" y="489"/>
      <point x="486" y="554"/>
      <point x="309" y="554" type="curve" smooth="yes"/>
      <point x="223" y="554" type="line"/>
      <point x="223" y="581" type="line" smooth="yes"/>
      <point x="223" y="652"/>
      <point x="239" y="668"/>
      <point x="316" y="673" type="curve"/>
      <point x="316" y="694" type="line"/>
      <point x="20" y="694" type="line"/>
      <point x="20" y="673" type="line"/>
      <point x="98" y="668"/>
      <point x="115" y="652"/>
      <point x="115" y="581" type="curve" smooth="yes"/>
      <point x="115" y="114" type="line" smooth="yes"/>
      <point x="115" y="39"/>
      <point x="97" y="30"/>
      <point x="20" y="20" type="curve"/>
      <point x="20" y="0" type="line" name="hr01"/>
      <point x="316" y="0" type="line"/>
      <point x="316" y="20" type="line"/>
      <point x="239" y="31"/>
      <point x="223" y="38"/>
      <point x="223" y="114" type="curve" smooth="yes"/>
    </contour>
    <contour>
      <point x="223" y="477" type="line" smooth="yes"/>
      <point x="223" y="512"/>
      <point x="226" y="513"/>
      <point x="304" y="513" type="curve" smooth="yes"/>
      <point x="404" y="513"/>
      <point x="462" y="455"/>
      <point x="462" y="355" type="curve" smooth="yes"/>
      <point x="462" y="255"/>
      <point x="403" y="203"/>
      <point x="290" y="203" type="curve" smooth="yes"/>
      <point x="271" y="203"/>
      <point x="242" y="204"/>
      <point x="223" y="207" type="curve"/>
    </contour>
  </outline>
</glyph>
<glyph name="uni00DF" format="1">
  <unicode hex="00DF"/>
  <advance width="524"/>
  <outline>
    <contour>
      <point x="220" y="379" type="line"/>
      <point x="337" y="376"/>
      <point x="389" y="315"/>
      <point x="389" y="171" type="curve" smooth="yes"/>
      <point x="389" y="74"/>
      <point x="368" y="25"/>
      <point x="326" y="25" type="curve" smooth="yes"/>
      <point x="277" y="25"/>
      <point x="310" y="120"/>
      <point x="249" y="120" type="curve" smooth="yes" name="hr01"/>
      <point x="220" y="120"/>
      <point x="201" y="97"/>
      <point x="201" y="70" type="curve" smooth="yes"/>
      <point x="201" y="25"/>
      <point x="244" y="-9"/>
      <point x="303" y="-9" type="curve" smooth="yes"/>
      <point x="409" y="-9"/>
      <point x="490" y="81"/>
      <point x="490" y="196" type="curve" smooth="yes"/>
      <point x="490" y="301"/>
      <point x="426" y="372"/>
      <point x="303" y="395" type="curve"/>
      <point x="396" y="430"/>
      <point x="442" y="487"/>
      <point x="442" y="562" type="curve" smooth="yes" name="hr02"/>
      <point x="442" y="654"/>
      <point x="372" y="715"/>
      <point x="265" y="715" type="curve" smooth="yes"/>
      <point x="136" y="715"/>
      <point x="80" y="642"/>
      <point x="80" y="477" type="curve" smooth="yes"/>
      <point x="80" y="99" type="line" smooth="yes"/>
      <point x="80" y="38"/>
      <point x="65" y="20"/>
      <point x="12" y="15" type="curve"/>
      <point x="12" y="0" type="line"/>
      <point x="170" y="0" type="line"/>
      <point x="170" y="567" type="line" smooth="yes"/>
      <point x="170" y="646"/>
      <point x="201" y="688"/>
      <point x="257" y="688" type="curve" smooth="yes"/>
      <point x="314" y="688"/>
      <point x="348" y="633"/>
      <point x="348" y="541" type="curve" smooth="yes"/>
      <point x="348" y="445"/>
      <point x="313" y="408"/>
      <point x="220" y="404" type="curve"/>
    </contour>
  </outline>
</glyph>
<glyph name="egrave" format="1">
  <unicode hex="00E8"/>
  <advance width="466"/>
  <outline>
    <contour>
      <point x="422" y="173" type="line"/>
      <point x="393" y="106"/>
      <point x="333" y="65"/>
      <point x="264" y="65" type="curve" smooth="yes"/>
      <point x="166" y="65"/>
      <point x="100" y="154"/>
      <point x="97" y="289" type="curve"/>
      <point x="422" y="289" type="line"/>
      <point x="417" y="408"/>
      <point x="343" y="481"/>
      <point x="234" y="481" type="curve" smooth="yes"/>
      <point x="112" y="481"/>
      <point x="24" y="378"/>
      <point x="24" y="229" type="curve" smooth="yes"/>
      <point x="24" y="87"/>
      <point x="107" y="-11"/>
      <point x="229" y="-11" type="curve" smooth="yes"/>
      <point x="326" y="-11"/>
      <point x="401" y="51"/>
      <point x="441" y="167" type="curve"/>
    </contour>
    <contour>
      <point x="99" y="321" type="line"/>
      <point x="106" y="394"/>
      <point x="152" y="442"/>
      <point x="211" y="442" type="curve" smooth="yes"/>
      <point x="268" y="442"/>
      <point x="311" y="400"/>
      <point x="312" y="321" type="curve"/>
    </contour>
    <contour>
      <point x="309" y="531" type="line"/>
      <point x="172" y="670" type="line" smooth="yes"/>
      <point x="141" y="701"/>
      <point x="134" y="711"/>
      <point x="111" y="711" type="curve" smooth="yes"/>
      <point x="87" y="711"/>
      <point x="72" y="696"/>
      <point x="72" y="676" type="curve" smooth="yes"/>
      <point x="72" y="657"/>
      <point x="80" y="647"/>
      <point x="113" y="627" type="curve" smooth="yes"/>
      <point x="264" y="531" type="line"/>
    </contour>
  </outline>
</glyph>
<glyph name="eacute" format="1">
  <unicode hex="00E9"/>
  <advance width="466"/>
  <outline>
    <contour>
      <point x="422" y="173" type="line"/>
      <point x="393" y="106"/>
      <point x="333" y="65"/>
      <point x="264" y="65" type="curve" smooth="yes"/>
      <point x="166" y="65"/>
      <point x="100" y="154"/>
      <point x="97" y="289" type="curve"/>
      <point x="422" y="289" type="line"/>
      <point x="417" y="408"/>
      <point x="343" y="481"/>
      <point x="234" y="481" type="curve" smooth="yes"/>
      <point x="112" y="481"/>
      <point x="24" y="378"/>
      <point x="24" y="229" type="curve" smooth="yes"/>
      <point x="24" y="87"/>
      <point x="107" y="-11"/>
      <point x="229" y="-11" type="curve" smooth="yes"/>
      <point x="326" y="-11"/>
      <point x="401" y="51"/>
      <point x="441" y="167" type="curve"/>
    </contour>
    <contour>
      <point x="99" y="321" type="line"/>
      <point x="106" y="394"/>
      <point x="152" y="442"/>
      <point x="211" y="442" type="curve" smooth="yes"/>
      <point x="271" y="442"/>
      <point x="307" y="400"/>
      <point x="312" y="321" type="curve"/>
    </contour>
    <contour>
      <point x="157" y="531" type="line"/>
      <point x="204" y="531" type="line"/>
      <point x="350" y="627" type="line" smooth="yes"/>
      <point x="384" y="649"/>
      <point x="391" y="657"/>
      <point x="391" y="676" type="curve" smooth="yes"/>
      <point x="391" y="696"/>
      <point x="375" y="711"/>
      <point x="352" y="711" type="curve" smooth="yes"/>
      <point x="329" y="711"/>
      <point x="322" y="701"/>
      <point x="291" y="670" type="curve" smooth="yes"/>
    </contour>
  </outline>
</glyph>
<glyph name="igrave" format="1">
  <unicode hex="00EC"/>
  <advance width="292"/>
  <outline>
    <contour>
      <point x="24" y="409" type="line"/>
      <point x="39" y="410"/>
      <point x="50" y="411"/>
      <point x="57" y="411" type="curve" smooth="yes"/>
      <point x="94" y="411"/>
      <point x="102" y="398"/>
      <point x="102" y="339" type="curve" smooth="yes"/>
      <point x="102" y="99" type="line" smooth="yes"/>
      <point x="102" y="38"/>
      <point x="84" y="15"/>
      <point x="31" y="15" type="curve" smooth="yes"/>
      <point x="24" y="15" type="line"/>
      <point x="24" y="0" type="line"/>
      <point x="271" y="0" type="line"/>
      <point x="271" y="15" type="line"/>
      <point x="265" y="15" type="line" smooth="yes"/>
      <point x="212" y="15"/>
      <point x="193" y="38"/>
      <point x="193" y="99" type="curve" smooth="yes"/>
      <point x="193" y="481" type="line"/>
      <point x="181" y="477"/>
      <point x="216" y="482"/>
      <point x="24" y="426" type="curve"/>
    </contour>
    <contour>
      <point x="226" y="531" type="line"/>
      <point x="89" y="670" type="line" smooth="yes"/>
      <point x="58" y="701"/>
      <point x="51" y="711"/>
      <point x="28" y="711" type="curve" smooth="yes"/>
      <point x="4" y="711"/>
      <point x="-11" y="696"/>
      <point x="-11" y="676" type="curve" smooth="yes"/>
      <point x="-11" y="657"/>
      <point x="-3" y="647"/>
      <point x="30" y="627" type="curve" smooth="yes"/>
      <point x="181" y="531" type="line"/>
    </contour>
  </outline>
</glyph>
<glyph name="iacute" format="1">
  <unicode hex="00ED"/>
  <advance width="292"/>
  <outline>
    <contour>
      <point x="24" y="409" type="line"/>
      <point x="39" y="410"/>
      <point x="50" y="411"/>
      <point x="57" y="411" type="curve" smooth="yes"/>
      <point x="94" y="411"/>
      <point x="102" y="398"/>
      <point x="102" y="339" type="curve" smooth="yes"/>
      <point x="102" y="99" type="line" smooth="yes"/>
      <point x="102" y="38"/>
      <point x="84" y="15"/>
      <point x="31" y="15" type="curve" smooth="yes"/>
      <point x="24" y="15" type="line"/>
      <point x="24" y="0" type="line"/>
      <point x="271" y="0" type="line"/>
      <point x="271" y="15" type="line"/>
      <point x="265" y="15" type="line" smooth="yes"/>
      <point x="212" y="15"/>
      <point x="193" y="38"/>
      <point x="193" y="99" type="curve" smooth="yes"/>
      <point x="193" y="481" type="line"/>
      <point x="181" y="477"/>
      <point x="216" y="482"/>
      <point x="24" y="426" type="curve"/>
    </contour>
    <contour>
      <point x="70" y="531" type="line"/>
      <point x="117" y="531" type="line"/>
      <point x="263" y="627" type="line" smooth="yes"/>
      <point x="297" y="649"/>
      <point x="304" y="657"/>
      <point x="304" y="676" type="curve" smooth="yes"/>
      <point x="304" y="696"/>
      <point x="288" y="711"/>
      <point x="265" y="711" type="curve" smooth="yes"/>
      <point x="242" y="711"/>
      <point x="235" y="701"/>
      <point x="204" y="670" type="curve" smooth="yes"/>
    </contour>
  </outline>
</glyph>
<glyph name="icircumflex" format="1">
  <unicode hex="00EE"/>
  <advance width="292"/>
  <outline>
    <contour>
      <point x="24" y="409" type="line"/>
      <point x="39" y="410"/>
      <point x="50" y="411"/>
      <point x="57" y="411" type="curve" smooth="yes"/>
      <point x="94" y="411"/>
      <point x="102" y="398"/>
      <point x="102" y="339" type="curve" smooth="yes"/>
      <point x="102" y="99" type="line" smooth="yes"/>
      <point x="102" y="38"/>
      <point x="84" y="15"/>
      <point x="31" y="15" type="curve" smooth="yes"/>
      <point x="24" y="15" type="line"/>
      <point x="24" y="0" type="line"/>
      <point x="271" y="0" type="line"/>
      <point x="271" y="15" type="line"/>
      <point x="265" y="15" type="line" smooth="yes"/>
      <point x="212" y="15"/>
      <point x="193" y="38"/>
      <point x="193" y="99" type="curve" smooth="yes"/>
      <point x="193" y="481" type="line"/>
      <point x="181" y="477"/>
      <point x="216" y="482"/>
      <point x="24" y="426" type="curve"/>
    </contour>
    <contour>
      <point x="115" y="707" type="line"/>
      <point x="-16" y="531" type="line"/>
      <point x="19" y="531" type="line"/>
      <point x="147" y="638" type="line"/>
      <point x="272" y="531" type="line"/>
      <point x="310" y="531" type="line"/>
      <point x="180" y="707" type="line"/>
    </contour>
  </outline>
</glyph>
<glyph name="idieresis" format="1">
  <unicode hex="00EF"/>
  <advance width="292"/>
  <outline>
    <contour>
      <point x="24" y="409" type="line"/>
      <point x="39" y="410"/>
      <point x="50" y="411"/>
      <point x="57" y="411" type="curve" smooth="yes"/>
      <point x="94" y="411"/>
      <point x="102" y="398"/>
      <point x="102" y="339" type="curve" smooth="yes"/>
      <point x="102" y="99" type="line" smooth="yes"/>
      <point x="102" y="38"/>
      <point x="84" y="15"/>
      <point x="31" y="15" type="curve" smooth="yes"/>
      <point x="24" y="15" type="line"/>
      <point x="24" y="0" type="line"/>
      <point x="271" y="0" type="line"/>
      <point x="271" y="15" type="line"/>
      <point x="265" y="15" type="line" smooth="yes"/>
      <point x="212" y="15"/>
      <point x="193" y="38"/>
      <point x="193" y="99" type="curve" smooth="yes"/>
      <point x="193" y="481" type="line"/>
      <point x="181" y="477"/>
      <point x="216" y="482"/>
      <point x="24" y="426" type="curve"/>
    </contour>
    <contour>
      <point x="43" y="653" type="line"/>
      <point x="12" y="653"/>
      <point x="-9" y="630"/>
      <point x="-9" y="601" type="curve" smooth="yes"/>
      <point x="-9" y="573"/>
      <point x="16" y="549"/>
      <point x="43" y="549" type="curve" smooth="yes" name="hr01"/>
      <point x="72" y="549"/>
      <point x="95" y="572"/>
      <point x="95" y="601" type="curve" smooth="yes"/>
      <point x="95" y="630"/>
      <point x="72" y="653"/>
      <point x="43" y="653" type="curve"/>
    </contour>
    <contour>
      <point x="251" y="653" type="line"/>
      <point x="220" y="653"/>
      <point x="199" y="630"/>
      <point x="199" y="601" type="curve" smooth="yes"/>
      <point x="199" y="573"/>
      <point x="222" y="549"/>
      <point x="251" y="549" type="curve" smooth="yes"/>
      <point x="279" y="549"/>
      <point x="303" y="572"/>
      <point x="303" y="601" type="curve" smooth="yes"/>
      <point x="303" y="630"/>
      <point x="279" y="653"/>
      <point x="251" y="653" type="curve"/>
    </contour>
  </outline>
</glyph>
<glyph name="eth" format="1">
  <unicode hex="00F0"/>
  <advance width="524"/>
  <outline>
    <contour>
      <point x="266" y="638" type="line"/>
      <point x="204" y="669"/>
      <point x="143" y="685"/>
      <point x="84" y="685" type="curve" smooth="yes"/>
      <point x="70" y="685"/>
      <point x="65" y="685"/>
      <point x="58" y="684" type="curve"/>
      <point x="58" y="649" type="line"/>
      <point x="105" y="648"/>
      <point x="142" y="636"/>
      <point x="194" y="607" type="curve"/>
      <point x="47" y="547" type="line"/>
      <point x="78" y="515" type="line"/>
      <point x="234" y="580" type="line"/>
      <point x="281" y="547"/>
      <point x="321" y="495"/>
      <point x="342" y="446" type="curve"/>
      <point x="315" y="469"/>
      <point x="282" y="481"/>
      <point x="245" y="481" type="curve" smooth="yes"/>
      <point x="127" y="481"/>
      <point x="29" y="365"/>
      <point x="29" y="227" type="curve" smooth="yes"/>
      <point x="29" y="89"/>
      <point x="123" y="-11"/>
      <point x="255" y="-11" type="curve" smooth="yes"/>
      <point x="389" y="-11"/>
      <point x="489" y="101"/>
      <point x="489" y="248" type="curve" smooth="yes"/>
      <point x="489" y="376"/>
      <point x="412" y="532"/>
      <point x="308" y="610" type="curve"/>
      <point x="431" y="662" type="line"/>
      <point x="399" y="692" type="line" name="hr01"/>
    </contour>
    <contour>
      <point x="243" y="446" type="line"/>
      <point x="338" y="446"/>
      <point x="395" y="354"/>
      <point x="395" y="205" type="curve" smooth="yes"/>
      <point x="395" y="88"/>
      <point x="353" y="24"/>
      <point x="276" y="24" type="curve" smooth="yes"/>
      <point x="187" y="24"/>
      <point x="126" y="121"/>
      <point x="126" y="269" type="curve" smooth="yes"/>
      <point x="126" y="380"/>
      <point x="168" y="446"/>
      <point x="243" y="446" type="curve"/>
    </contour>
  </outline>
</glyph>
<glyph name="ntilde" format="1">
  <unicode hex="00F1"/>
  <advance width="524"/>
  <outline>
    <contour>
      <point x="167" y="365" type="line"/>
      <point x="212" y="410"/>
      <point x="239" y="422"/>
      <point x="276" y="422" type="curve" smooth="yes"/>
      <point x="333" y="422"/>
      <point x="356" y="393"/>
      <point x="356" y="317" type="curve" smooth="yes"/>
      <point x="356" y="99" type="line" smooth="yes"/>
      <point x="356" y="38"/>
      <point x="343" y="20"/>
      <point x="290" y="15" type="curve"/>
      <point x="290" y="0" type="line"/>
      <point x="514" y="0" type="line"/>
      <point x="514" y="15" type="line"/>
      <point x="461" y="20"/>
      <point x="446" y="38"/>
      <point x="446" y="99" type="curve" smooth="yes"/>
      <point x="446" y="307" type="line" smooth="yes"/>
      <point x="446" y="439"/>
      <point x="412" y="481"/>
      <point x="323" y="481" type="curve" smooth="yes"/>
      <point x="267" y="481"/>
      <point x="224" y="459"/>
      <point x="167" y="400" type="curve"/>
      <point x="167" y="481" type="line"/>
      <point x="163" y="480" type="line"/>
      <point x="80" y="452" type="line" smooth="yes"/>
      <point x="45" y="440"/>
      <point x="30" y="434"/>
      <point x="9" y="430" type="curve"/>
      <point x="9" y="412" type="line"/>
      <point x="14" y="413"/>
      <point x="19" y="413"/>
      <point x="23" y="413" type="curve" smooth="yes"/>
      <point x="32" y="413" type="line" smooth="yes"/>
      <point x="67" y="413"/>
      <point x="77" y="400"/>
      <point x="77" y="340" type="curve" smooth="yes"/>
      <point x="77" y="99" type="line" smooth="yes"/>
      <point x="77" y="38"/>
      <point x="62" y="20"/>
      <point x="9" y="15" type="curve"/>
      <point x="9" y="0" type="line"/>
      <point x="233" y="0" type="line"/>
      <point x="233" y="15" type="line"/>
      <point x="181" y="20"/>
      <point x="167" y="38"/>
      <point x="167" y="99" type="curve" smooth="yes"/>
    </contour>
    <contour>
      <point x="120" y="558" type="line"/>
      <point x="131" y="591"/>
      <point x="151" y="607"/>
      <point x="182" y="607" type="curve" smooth="yes"/>
      <point x="223" y="607"/>
      <point x="281" y="561"/>
      <point x="316" y="561" type="curve" smooth="yes" name="hr01"/>
      <point x="381" y="561"/>
      <point x="426" y="601"/>
      <point x="435" y="669" type="curve"/>
      <point x="403" y="669" type="line"/>
      <point x="392" y="637"/>
      <point x="372" y="621"/>
      <point x="341" y="621" type="curve" smooth="yes"/>
      <point x="306" y="621"/>
      <point x="245" y="667"/>
      <point x="207" y="667" type="curve" smooth="yes" name="hr02"/>
      <point x="143" y="667"/>
      <point x="97" y="625"/>
      <point x="88" y="558" type="curve"/>
    </contour>
  </outline>
</glyph>
<glyph name="oacute" format="1">
  <unicode hex="00F3"/>
  <advance width="524"/>
  <outline>
    <contour>
      <point x="268" y="481" type="line"/>
      <point x="136" y="481"/>
      <point x="32" y="371"/>
      <point x="32" y="227" type="curve" smooth="yes"/>
      <point x="32" y="90"/>
      <point x="126" y="-11"/>
      <point x="256" y="-11" type="curve" smooth="yes"/>
      <point x="388" y="-11"/>
      <point x="493" y="101"/>
      <point x="493" y="248" type="curve" smooth="yes"/>
      <point x="493" y="382"/>
      <point x="398" y="481"/>
      <point x="268" y="481" type="curve"/>
    </contour>
    <contour>
      <point x="244" y="446" type="line"/>
      <point x="337" y="446"/>
      <point x="395" y="350"/>
      <point x="395" y="205" type="curve" smooth="yes"/>
      <point x="395" y="89"/>
      <point x="354" y="24"/>
      <point x="278" y="24" type="curve" smooth="yes"/>
      <point x="189" y="24"/>
      <point x="129" y="122"/>
      <point x="129" y="269" type="curve" smooth="yes"/>
      <point x="129" y="378"/>
      <point x="171" y="446"/>
      <point x="244" y="446" type="curve"/>
    </contour>
    <contour>
      <point x="186" y="531" type="line"/>
      <point x="233" y="531" type="line"/>
      <point x="381" y="627" type="line" smooth="yes"/>
      <point x="414" y="648"/>
      <point x="422" y="657"/>
      <point x="422" y="676" type="curve" smooth="yes"/>
      <point x="422" y="696"/>
      <point x="404" y="711"/>
      <point x="383" y="711" type="curve" smooth="yes"/>
      <point x="359" y="711"/>
      <point x="352" y="701"/>
      <point x="321" y="670" type="curve" smooth="yes"/>
    </contour>
  </outline>
</glyph>
<glyph name="ocircumflex" format="1">
  <unicode hex="00F4"/>
  <advance width="524"/>
  <outline>
    <contour>
      <point x="268" y="481" type="line"/>
      <point x="136" y="481"/>
      <point x="32" y="371"/>
      <point x="32" y="227" type="curve" smooth="yes"/>
      <point x="32" y="90"/>
      <point x="126" y="-11"/>
      <point x="256" y="-11" type="curve" smooth="yes"/>
      <point x="388" y="-11"/>
      <point x="493" y="101"/>
      <point x="493" y="248" type="curve" smooth="yes"/>
      <point x="493" y="382"/>
      <point x="398" y="481"/>
      <point x="268" y="481" type="curve"/>
    </contour>
    <contour>
      <point x="244" y="446" type="line"/>
      <point x="337" y="446"/>
      <point x="395" y="350"/>
      <point x="395" y="205" type="curve" smooth="yes"/>
      <point x="395" y="89"/>
      <point x="354" y="24"/>
      <point x="278" y="24" type="curve" smooth="yes"/>
      <point x="189" y="24"/>
      <point x="129" y="122"/>
      <point x="129" y="269" type="curve" smooth="yes"/>
      <point x="129" y="378"/>
      <point x="171" y="446"/>
      <point x="244" y="446" type="curve"/>
    </contour>
    <contour>
      <point x="229" y="707" type="line"/>
      <point x="98" y="531" type="line"/>
      <point x="135" y="531" type="line"/>
      <point x="263" y="638" type="line"/>
      <point x="388" y="531" type="line"/>
      <point x="426" y="531" type="line"/>
      <point x="296" y="707" type="line"/>
    </contour>
  </outline>
</glyph>
<glyph name="otilde" format="1">
  <unicode hex="00F5"/>
  <advance width="524"/>
  <outline>
    <contour>
      <point x="268" y="481" type="line"/>
      <point x="136" y="481"/>
      <point x="32" y="371"/>
      <point x="32" y="227" type="curve" smooth="yes"/>
      <point x="32" y="90"/>
      <point x="126" y="-11"/>
      <point x="256" y="-11" type="curve" smooth="yes"/>
      <point x="388" y="-11"/>
      <point x="493" y="101"/>
      <point x="493" y="248" type="curve" smooth="yes"/>
      <point x="493" y="382"/>
      <point x="398" y="481"/>
      <point x="268" y="481" type="curve"/>
    </contour>
    <contour>
      <point x="244" y="446" type="line"/>
      <point x="337" y="446"/>
      <point x="395" y="350"/>
      <point x="395" y="205" type="curve" smooth="yes"/>
      <point x="395" y="89"/>
      <point x="354" y="24"/>
      <point x="278" y="24" type="curve" smooth="yes"/>
      <point x="189" y="24"/>
      <point x="129" y="122"/>
      <point x="129" y="269" type="curve" smooth="yes"/>
      <point x="129" y="378"/>
      <point x="171" y="446"/>
      <point x="244" y="446" type="curve"/>
    </contour>
    <contour>
      <point x="121" y="558" type="line"/>
      <point x="132" y="591"/>
      <point x="152" y="607"/>
      <point x="183" y="607" type="curve" smooth="yes"/>
      <point x="224" y="607"/>
      <point x="282" y="561"/>
      <point x="317" y="561" type="curve" smooth="yes" name="hr01"/>
      <point x="382" y="561"/>
      <point x="427" y="601"/>
      <point x="436" y="669" type="curve"/>
      <point x="404" y="669" type="line"/>
      <point x="393" y="637"/>
      <point x="373" y="621"/>
      <point x="342" y="621" type="curve" smooth="yes"/>
      <point x="307" y="621"/>
      <point x="246" y="667"/>
      <point x="208" y="667" type="curve" smooth="yes" name="hr02"/>
      <point x="144" y="667"/>
      <point x="98" y="625"/>
      <point x="89" y="558" type="curve"/>
    </contour>
  </outline>
</glyph>
<glyph name="divide" format="1">
  <unicode hex="00F7"/>
  <advance width="592"/>
  <outline>
    <contour>
      <point x="32" y="216" type="line"/>
      <point x="560" y="216" type="line"/>
      <point x="560" y="280" type="line"/>
      <point x="32" y="280" type="line"/>
    </contour>
    <contour>
      <point x="293" y="448" type="line"/>
      <point x="262" y="448"/>
      <point x="239" y="425"/>
      <point x="239" y="396" type="curve" smooth="yes"/>
      <point x="239" y="368"/>
      <point x="264" y="344"/>
      <point x="293" y="344" type="curve" smooth="yes"/>
      <point x="321" y="344"/>
      <point x="345" y="367"/>
      <point x="345" y="396" type="curve" smooth="yes"/>
      <point x="345" y="425"/>
      <point x="321" y="448"/>
      <point x="293" y="448" type="curve"/>
    </contour>
    <contour>
      <point x="294" y="135" type="line"/>
      <point x="265" y="135"/>
      <point x="241" y="112"/>
      <point x="241" y="83" type="curve" smooth="yes"/>
      <point x="241" y="55"/>
      <point x="266" y="31"/>
      <point x="294" y="31" type="curve" smooth="yes"/>
      <point x="323" y="31"/>
      <point x="347" y="54"/>
      <point x="347" y="83" type="curve" smooth="yes"/>
      <point x="347" y="112"/>
      <point x="323" y="135"/>
      <point x="294" y="135" type="curve"/>
    </contour>
  </outline>
</glyph>
<glyph name="ucircumflex" format="1">
  <unicode hex="00FB"/>
  <advance width="524"/>
  <outline>
    <contour>
      <point x="353" y="-11" type="line"/>
      <point x="386" y="1"/>
      <point x="443" y="21"/>
      <point x="502" y="38" type="curve"/>
      <point x="502" y="53" type="line"/>
      <point x="442" y="56"/>
      <point x="438" y="63"/>
      <point x="438" y="141" type="curve" smooth="yes"/>
      <point x="438" y="470" type="line"/>
      <point x="282" y="470" type="line"/>
      <point x="282" y="453" type="line"/>
      <point x="291" y="453" type="line" smooth="yes"/>
      <point x="339" y="453"/>
      <point x="348" y="437"/>
      <point x="348" y="366" type="curve" smooth="yes"/>
      <point x="348" y="97" type="line"/>
      <point x="307" y="61"/>
      <point x="282" y="48"/>
      <point x="246" y="48" type="curve" smooth="yes"/>
      <point x="190" y="48"/>
      <point x="166" y="78"/>
      <point x="166" y="150" type="curve" smooth="yes"/>
      <point x="166" y="470" type="line"/>
      <point x="9" y="470" type="line"/>
      <point x="9" y="453" type="line"/>
      <point x="17" y="453" type="line" smooth="yes"/>
      <point x="66" y="453"/>
      <point x="76" y="437"/>
      <point x="76" y="366" type="curve" smooth="yes"/>
      <point x="76" y="136" type="line" smooth="yes"/>
      <point x="76" y="38"/>
      <point x="117" y="-11"/>
      <point x="200" y="-11" type="curve" smooth="yes"/>
      <point x="256" y="-11"/>
      <point x="300" y="12"/>
      <point x="353" y="68" type="curve"/>
    </contour>
    <contour>
      <point x="223" y="707" type="line"/>
      <point x="92" y="531" type="line"/>
      <point x="129" y="531" type="line"/>
      <point x="257" y="638" type="line"/>
      <point x="382" y="531" type="line"/>
      <point x="420" y="531" type="line"/>
      <point x="290" y="707" type="line"/>
    </contour>
  </outline>
</glyph>
<glyph name="yacute" format="1">
  <unicode hex="00FD"/>
  <advance width="524"/>
  <outline>
    <contour>
      <point x="301" y="125" type="line"/>
      <point x="183" y="384" type="line" smooth="yes"/>
      <point x="176" y="399"/>
      <point x="171" y="418"/>
      <point x="171" y="425" type="curve" smooth="yes"/>
      <point x="171" y="444"/>
      <point x="188" y="453"/>
      <point x="231" y="454" type="curve"/>
      <point x="231" y="470" type="line"/>
      <point x="15" y="470" type="line"/>
      <point x="15" y="454" type="line"/>
      <point x="50" y="447"/>
      <point x="62" y="436"/>
      <point x="82" y="392" type="curve" smooth="yes"/>
      <point x="255" y="16" type="line"/>
      <point x="237" y="-30" type="line" smooth="yes"/>
      <point x="204" y="-115"/>
      <point x="182" y="-141"/>
      <point x="151" y="-141" type="curve" smooth="yes"/>
      <point x="139" y="-141"/>
      <point x="98" y="-119"/>
      <point x="83" y="-119" type="curve" smooth="yes"/>
      <point x="51" y="-119"/>
      <point x="31" y="-136"/>
      <point x="31" y="-164" type="curve" smooth="yes"/>
      <point x="31" y="-200"/>
      <point x="64" y="-227"/>
      <point x="108" y="-227" type="curve" smooth="yes"/>
      <point x="176" y="-227"/>
      <point x="223" y="-177"/>
      <point x="271" y="-53" type="curve" smooth="yes"/>
      <point x="441" y="388" type="line" smooth="yes"/>
      <point x="457" y="428"/>
      <point x="474" y="447"/>
      <point x="499" y="454" type="curve"/>
      <point x="499" y="470" type="line"/>
      <point x="355" y="470" type="line"/>
      <point x="355" y="454" type="line"/>
      <point x="392" y="449"/>
      <point x="404" y="441"/>
      <point x="404" y="426" type="curve" smooth="yes"/>
      <point x="404" y="422"/>
      <point x="401" y="408"/>
      <point x="398" y="399" type="curve" smooth="yes"/>
    </contour>
    <contour>
      <point x="181" y="531" type="line"/>
      <point x="229" y="531" type="line"/>
      <point x="377" y="627" type="line" smooth="yes"/>
      <point x="408" y="647"/>
      <point x="417" y="657"/>
      <point x="417" y="676" type="curve" smooth="yes"/>
      <point x="417" y="696"/>
      <point x="399" y="711"/>
      <point x="379" y="711" type="curve" smooth="yes"/>
      <point x="359" y="711"/>
      <point x="348" y="705"/>
      <point x="323" y="678" type="curve" smooth="yes"/>
    </contour>
  </outline>
</glyph>
<glyph name="Amacron" format="1">
  <unicode hex="0100"/>
  <advance width="757"/>
  <outline>
    <contour>
      <point x="384" y="708" type="line"/>
      <point x="364" y="708" type="line"/>
      <point x="133" y="164" type="line" smooth="yes"/>
      <point x="87" y="56"/>
      <point x="64" y="29"/>
      <point x="15" y="20" type="curve"/>
      <point x="15" y="0" type="line"/>
      <point x="225" y="0" type="line"/>
      <point x="225" y="20" type="line"/>
      <point x="173" y="24"/>
      <point x="155" y="34"/>
      <point x="155" y="61" type="curve" smooth="yes"/>
      <point x="155" y="104"/>
      <point x="186" y="171"/>
      <point x="187" y="172" type="curve" smooth="yes"/>
      <point x="210" y="224" type="line"/>
      <point x="483" y="224" type="line"/>
      <point x="540" y="84"/>
      <point x="544" y="65"/>
      <point x="544" y="56" type="curve" smooth="yes"/>
      <point x="544" y="32"/>
      <point x="527" y="25"/>
      <point x="472" y="20" type="curve"/>
      <point x="472" y="0" type="line"/>
      <point x="740" y="0" type="line"/>
      <point x="740" y="20" type="line"/>
      <point x="699" y="20"/>
      <point x="674" y="42"/>
      <point x="642" y="117" type="curve" smooth="yes"/>
    </contour>
    <contour>
      <point x="347" y="553" type="line"/>
      <point x="465" y="268" type="line"/>
      <point x="227" y="268" type="line"/>
    </contour>
    <contour>
      <point x="212" y="857" type="line"/>
      <point x="212" y="800" type="line"/>
      <point x="538" y="800" type="line"/>
      <point x="538" y="857" type="line"/>
    </contour>
  </outline>
</glyph>
<glyph name="amacron" format="1">
  <unicode hex="0101"/>
  <advance width="466"/>
  <outline>
    <contour>
      <point x="449" y="70" type="line"/>
      <point x="437" y="53"/>
      <point x="425" y="44"/>
      <point x="413" y="44" type="curve" smooth="yes"/>
      <point x="389" y="44"/>
      <point x="384" y="57"/>
      <point x="384" y="96" type="curve" smooth="yes"/>
      <point x="384" y="322" type="line" smooth="yes"/>
      <point x="384" y="427"/>
      <point x="338" y="480"/>
      <point x="229" y="480" type="curve" smooth="yes"/>
      <point x="141" y="480"/>
      <point x="60" y="427"/>
      <point x="60" y="365" type="curve" smooth="yes"/>
      <point x="60" y="333"/>
      <point x="79" y="312"/>
      <point x="108" y="312" type="curve" smooth="yes"/>
      <point x="139" y="312"/>
      <point x="157" y="334"/>
      <point x="157" y="366" type="curve" smooth="yes"/>
      <point x="157" y="376"/>
      <point x="150" y="394"/>
      <point x="150" y="407" type="curve" smooth="yes"/>
      <point x="150" y="431"/>
      <point x="182" y="453"/>
      <point x="218" y="453" type="curve" smooth="yes" name="hr01"/>
      <point x="271" y="453"/>
      <point x="294" y="421"/>
      <point x="294" y="342" type="curve" smooth="yes"/>
      <point x="294" y="305" type="line"/>
      <point x="103" y="233"/>
      <point x="42" y="189"/>
      <point x="42" y="99" type="curve" smooth="yes"/>
      <point x="42" y="37"/>
      <point x="89" y="-12"/>
      <point x="148" y="-12" type="curve" smooth="yes"/>
      <point x="189" y="-12"/>
      <point x="241" y="15"/>
      <point x="296" y="60" type="curve"/>
      <point x="301" y="17"/>
      <point x="331" y="-12"/>
      <point x="371" y="-12" type="curve" smooth="yes"/>
      <point x="407" y="-12"/>
      <point x="426" y="2"/>
      <point x="467" y="56" type="curve"/>
    </contour>
    <contour>
      <point x="294" y="91" type="line"/>
      <point x="259" y="64"/>
      <point x="229" y="50"/>
      <point x="205" y="50" type="curve" smooth="yes"/>
      <point x="164" y="50"/>
      <point x="137" y="83"/>
      <point x="137" y="136" type="curve" smooth="yes"/>
      <point x="137" y="198"/>
      <point x="175" y="232"/>
      <point x="294" y="273" type="curve"/>
    </contour>
    <contour>
      <point x="71" y="630" type="line"/>
      <point x="71" y="573" type="line"/>
      <point x="397" y="573" type="line"/>
      <point x="397" y="630" type="line"/>
    </contour>
  </outline>
</glyph>
<glyph name="Cacute" format="1">
  <unicode hex="0106"/>
  <advance width="699"/>
  <outline>
    <contour>
      <point x="655" y="472" type="line"/>
      <point x="655" y="708" type="line"/>
      <point x="622" y="708" type="line"/>
      <point x="607" y="677"/>
      <point x="600" y="670"/>
      <point x="579" y="670" type="curve" smooth="yes"/>
      <point x="567" y="670"/>
      <point x="559" y="671"/>
      <point x="542" y="679" type="curve"/>
      <point x="485" y="699"/>
      <point x="443" y="708"/>
      <point x="394" y="708" type="curve" smooth="yes"/>
      <point x="181" y="708"/>
      <point x="35" y="557"/>
      <point x="35" y="342" type="curve" smooth="yes"/>
      <point x="35" y="129"/>
      <point x="175" y="-13"/>
      <point x="388" y="-13" type="curve" smooth="yes"/>
      <point x="501" y="-13"/>
      <point x="587" y="26"/>
      <point x="668" y="118" type="curve"/>
      <point x="648" y="139" type="line"/>
      <point x="564" y="66"/>
      <point x="506" y="35"/>
      <point x="409" y="35" type="curve" smooth="yes"/>
      <point x="251" y="35"/>
      <point x="157" y="154"/>
      <point x="157" y="349" type="curve" smooth="yes"/>
      <point x="157" y="545"/>
      <point x="249" y="664"/>
      <point x="401" y="664" type="curve" smooth="yes"/>
      <point x="517" y="664"/>
      <point x="595" y="597"/>
      <point x="627" y="472" type="curve"/>
    </contour>
    <contour>
      <point x="288" y="756" type="line"/>
      <point x="335" y="756" type="line"/>
      <point x="481" y="851" type="line" smooth="yes"/>
      <point x="515" y="873"/>
      <point x="522" y="881"/>
      <point x="522" y="901" type="curve" smooth="yes"/>
      <point x="522" y="920"/>
      <point x="506" y="935"/>
      <point x="483" y="935" type="curve" smooth="yes"/>
      <point x="459" y="935"/>
      <point x="455" y="927"/>
      <point x="422" y="894" type="curve" smooth="yes"/>
    </contour>
  </outline>
</glyph>
<glyph name="cacute" format="1">
  <unicode hex="0107"/>
  <advance width="466"/>
  <outline>
    <contour>
      <point x="416" y="166" type="line"/>
      <point x="358" y="87"/>
      <point x="327" y="65"/>
      <point x="266" y="65" type="curve" smooth="yes"/>
      <point x="174" y="65"/>
      <point x="109" y="149"/>
      <point x="109" y="271" type="curve" smooth="yes"/>
      <point x="109" y="380"/>
      <point x="164" y="451"/>
      <point x="253" y="451" type="curve" smooth="yes"/>
      <point x="296" y="451"/>
      <point x="319" y="430"/>
      <point x="319" y="393" type="curve"/>
      <point x="318" y="378"/>
      <point x="318" y="374"/>
      <point x="318" y="373" type="curve" smooth="yes"/>
      <point x="318" y="342"/>
      <point x="340" y="321"/>
      <point x="368" y="321" type="curve" smooth="yes" name="hr01"/>
      <point x="396" y="321"/>
      <point x="418" y="342"/>
      <point x="418" y="374" type="curve" smooth="yes"/>
      <point x="418" y="432"/>
      <point x="345" y="481"/>
      <point x="259" y="481" type="curve" smooth="yes"/>
      <point x="121" y="481"/>
      <point x="27" y="378"/>
      <point x="27" y="226" type="curve" smooth="yes"/>
      <point x="27" y="92"/>
      <point x="109" y="-11"/>
      <point x="224" y="-11" type="curve" smooth="yes"/>
      <point x="315" y="-11"/>
      <point x="373" y="34"/>
      <point x="432" y="157" type="curve"/>
    </contour>
    <contour>
      <point x="130" y="531" type="line"/>
      <point x="177" y="531" type="line"/>
      <point x="324" y="627" type="line" smooth="yes"/>
      <point x="357" y="648"/>
      <point x="365" y="657"/>
      <point x="365" y="676" type="curve" smooth="yes"/>
      <point x="365" y="696"/>
      <point x="349" y="711"/>
      <point x="326" y="711" type="curve" smooth="yes"/>
      <point x="305" y="711"/>
      <point x="297" y="703"/>
      <point x="268" y="674" type="curve" smooth="yes"/>
    </contour>
  </outline>
</glyph>
<glyph name="uni010A" format="1">
  <unicode hex="010A"/>
  <advance width="699"/>
  <outline>
    <contour>
      <point x="655" y="472" type="line"/>
      <point x="655" y="708" type="line"/>
      <point x="622" y="708" type="line"/>
      <point x="607" y="677"/>
      <point x="600" y="670"/>
      <point x="579" y="670" type="curve" smooth="yes"/>
      <point x="567" y="670"/>
      <point x="559" y="671"/>
      <point x="542" y="679" type="curve"/>
      <point x="485" y="699"/>
      <point x="443" y="708"/>
      <point x="394" y="708" type="curve" smooth="yes"/>
      <point x="181" y="708"/>
      <point x="35" y="557"/>
      <point x="35" y="342" type="curve" smooth="yes"/>
      <point x="35" y="129"/>
      <point x="175" y="-13"/>
      <point x="388" y="-13" type="curve" smooth="yes"/>
      <point x="501" y="-13"/>
      <point x="587" y="26"/>
      <point x="668" y="118" type="curve"/>
      <point x="648" y="139" type="line"/>
      <point x="564" y="66"/>
      <point x="506" y="35"/>
      <point x="409" y="35" type="curve" smooth="yes"/>
      <point x="251" y="35"/>
      <point x="157" y="154"/>
      <point x="157" y="349" type="curve" smooth="yes"/>
      <point x="157" y="545"/>
      <point x="249" y="664"/>
      <point x="401" y="664" type="curve" smooth="yes"/>
      <point x="517" y="664"/>
      <point x="595" y="597"/>
      <point x="627" y="472" type="curve"/>
    </contour>
    <contour>
      <point x="394" y="878" type="line"/>
      <point x="366" y="878"/>
      <point x="342" y="854"/>
      <point x="342" y="825" type="curve" smooth="yes"/>
      <point x="342" y="797"/>
      <point x="367" y="773"/>
      <point x="394" y="773" type="curve" smooth="yes"/>
      <point x="425" y="773"/>
      <point x="447" y="796"/>
      <point x="447" y="825" type="curve" smooth="yes"/>
      <point x="447" y="854"/>
      <point x="425" y="878"/>
      <point x="394" y="878" type="curve"/>
    </contour>
  </outline>
</glyph>
<glyph name="uni010B" format="1">
  <unicode hex="010B"/>
  <advance width="466"/>
  <outline>
    <contour>
      <point x="416" y="166" type="line"/>
      <point x="358" y="87"/>
      <point x="327" y="65"/>
      <point x="266" y="65" type="curve" smooth="yes"/>
      <point x="174" y="65"/>
      <point x="109" y="149"/>
      <point x="109" y="271" type="curve" smooth="yes"/>
      <point x="109" y="380"/>
      <point x="164" y="451"/>
      <point x="253" y="451" type="curve" smooth="yes"/>
      <point x="296" y="451"/>
      <point x="319" y="430"/>
      <point x="319" y="393" type="curve"/>
      <point x="318" y="378"/>
      <point x="318" y="374"/>
      <point x="318" y="373" type="curve" smooth="yes"/>
      <point x="318" y="342"/>
      <point x="340" y="321"/>
      <point x="368" y="321" type="curve" smooth="yes" name="hr01"/>
      <point x="396" y="321"/>
      <point x="418" y="342"/>
      <point x="418" y="374" type="curve" smooth="yes"/>
      <point x="418" y="432"/>
      <point x="345" y="481"/>
      <point x="259" y="481" type="curve" smooth="yes"/>
      <point x="121" y="481"/>
      <point x="27" y="378"/>
      <point x="27" y="226" type="curve" smooth="yes"/>
      <point x="27" y="92"/>
      <point x="109" y="-11"/>
      <point x="224" y="-11" type="curve" smooth="yes"/>
      <point x="315" y="-11"/>
      <point x="373" y="34"/>
      <point x="432" y="157" type="curve"/>
    </contour>
    <contour>
      <point x="257" y="654" type="line"/>
      <point x="229" y="654"/>
      <point x="205" y="630"/>
      <point x="205" y="601" type="curve" smooth="yes"/>
      <point x="205" y="573"/>
      <point x="230" y="549"/>
      <point x="257" y="549" type="curve" smooth="yes"/>
      <point x="288" y="549"/>
      <point x="310" y="572"/>
      <point x="310" y="601" type="curve" smooth="yes"/>
      <point x="310" y="630"/>
      <point x="288" y="654"/>
      <point x="257" y="654" type="curve"/>
    </contour>
  </outline>
</glyph>
<glyph name="ccaron" format="1">
  <unicode hex="010D"/>
  <advance width="466"/>
  <outline>
    <contour>
      <point x="416" y="166" type="line"/>
      <point x="358" y="87"/>
      <point x="327" y="65"/>
      <point x="266" y="65" type="curve" smooth="yes"/>
      <point x="174" y="65"/>
      <point x="109" y="149"/>
      <point x="109" y="271" type="curve" smooth="yes"/>
      <point x="109" y="380"/>
      <point x="164" y="451"/>
      <point x="253" y="451" type="curve" smooth="yes"/>
      <point x="296" y="451"/>
      <point x="319" y="430"/>
      <point x="319" y="393" type="curve"/>
      <point x="318" y="378"/>
      <point x="318" y="374"/>
      <point x="318" y="373" type="curve" smooth="yes"/>
      <point x="318" y="342"/>
      <point x="340" y="321"/>
      <point x="368" y="321" type="curve" smooth="yes" name="hr01"/>
      <point x="396" y="321"/>
      <point x="418" y="342"/>
      <point x="418" y="374" type="curve" smooth="yes"/>
      <point x="418" y="432"/>
      <point x="345" y="481"/>
      <point x="259" y="481" type="curve" smooth="yes"/>
      <point x="121" y="481"/>
      <point x="27" y="378"/>
      <point x="27" y="226" type="curve" smooth="yes"/>
      <point x="27" y="92"/>
      <point x="109" y="-11"/>
      <point x="224" y="-11" type="curve" smooth="yes"/>
      <point x="315" y="-11"/>
      <point x="373" y="34"/>
      <point x="432" y="157" type="curve"/>
    </contour>
    <contour>
      <point x="280" y="531" type="line"/>
      <point x="411" y="707" type="line"/>
      <point x="375" y="707" type="line"/>
      <point x="247" y="601" type="line"/>
      <point x="122" y="707" type="line"/>
      <point x="84" y="707" type="line"/>
      <point x="214" y="531" type="line"/>
    </contour>
  </outline>
</glyph>
<glyph name="dcaron" format="1">
  <unicode hex="010F"/>
  <advance width="670"/>
  <outline>
    <contour>
      <point x="515" y="63" type="line"/>
      <point x="490" y="63" type="line" smooth="yes"/>
      <point x="453" y="63"/>
      <point x="445" y="70"/>
      <point x="445" y="113" type="curve" smooth="yes"/>
      <point x="445" y="715" type="line"/>
      <point x="279" y="657" type="line"/>
      <point x="278" y="643" type="line"/>
      <point x="293" y="645"/>
      <point x="303" y="646"/>
      <point x="310" y="646" type="curve" smooth="yes"/>
      <point x="347" y="646"/>
      <point x="355" y="632"/>
      <point x="355" y="572" type="curve" smooth="yes"/>
      <point x="355" y="442" type="line"/>
      <point x="323" y="471"/>
      <point x="288" y="481"/>
      <point x="248" y="481" type="curve" smooth="yes"/>
      <point x="127" y="481"/>
      <point x="28" y="361"/>
      <point x="28" y="219" type="curve" smooth="yes"/>
      <point x="28" y="87"/>
      <point x="105" y="-11"/>
      <point x="216" y="-11" type="curve" smooth="yes"/>
      <point x="271" y="-11"/>
      <point x="317" y="14"/>
      <point x="355" y="65" type="curve"/>
      <point x="355" y="-11" type="line"/>
      <point x="528" y="57"/>
      <point x="493" y="40"/>
      <point x="515" y="47" type="curve"/>
    </contour>
    <contour>
      <point x="355" y="129" type="line" smooth="yes"/>
      <point x="355" y="85"/>
      <point x="312" y="52"/>
      <point x="257" y="52" type="curve" smooth="yes"/>
      <point x="173" y="52"/>
      <point x="120" y="132"/>
      <point x="120" y="248" type="curve" smooth="yes"/>
      <point x="120" y="371"/>
      <point x="169" y="447"/>
      <point x="250" y="447" type="curve" smooth="yes"/>
      <point x="317" y="447"/>
      <point x="355" y="400"/>
      <point x="355" y="315" type="curve" smooth="yes"/>
    </contour>
    <contour>
      <point x="539" y="460" type="line"/>
      <point x="609" y="497"/>
      <point x="656" y="559"/>
      <point x="656" y="621" type="curve" smooth="yes"/>
      <point x="656" y="670"/>
      <point x="620" y="714"/>
      <point x="572" y="714" type="curve" smooth="yes" name="hr01"/>
      <point x="542" y="714"/>
      <point x="511" y="685"/>
      <point x="511" y="654" type="curve" smooth="yes"/>
      <point x="511" y="618"/>
      <point x="531" y="601"/>
      <point x="572" y="601" type="curve"/>
      <point x="601" y="605" type="line"/>
      <point x="610" y="604"/>
      <point x="615" y="600"/>
      <point x="615" y="592" type="curve" smooth="yes" name="hr02"/>
      <point x="615" y="556"/>
      <point x="587" y="518"/>
      <point x="529" y="479" type="curve"/>
    </contour>
  </outline>
</glyph>
<glyph name="uni0110" format="1">
  <unicode hex="0110"/>
  <advance width="757"/>
  <outline>
    <contour>
      <point x="23" y="373" type="line"/>
      <point x="23" y="315" type="line"/>
      <point x="115" y="315" type="line"/>
      <point x="115" y="114" type="line" smooth="yes"/>
      <point x="115" y="39"/>
      <point x="97" y="30"/>
      <point x="20" y="20" type="curve"/>
      <point x="20" y="0" type="line"/>
      <point x="281" y="0" type="line" smooth="yes"/>
      <point x="568" y="0"/>
      <point x="723" y="124"/>
      <point x="723" y="346" type="curve" smooth="yes"/>
      <point x="723" y="561"/>
      <point x="597" y="694"/>
      <point x="296" y="694" type="curve" smooth="yes"/>
      <point x="20" y="694" type="line"/>
      <point x="20" y="673" type="line" name="hr01"/>
      <point x="98" y="668"/>
      <point x="115" y="652"/>
      <point x="115" y="581" type="curve" smooth="yes"/>
      <point x="115" y="373" type="line"/>
    </contour>
    <contour>
      <point x="223" y="601" type="line" smooth="yes"/>
      <point x="223" y="649"/>
      <point x="228" y="652"/>
      <point x="294" y="652" type="curve" smooth="yes" name="hr02"/>
      <point x="493" y="652"/>
      <point x="606" y="542"/>
      <point x="606" y="347" type="curve" smooth="yes"/>
      <point x="606" y="151"/>
      <point x="498" y="45"/>
      <point x="297" y="43" type="curve" smooth="yes"/>
      <point x="234" y="43"/>
      <point x="223" y="52"/>
      <point x="223" y="113" type="curve" smooth="yes"/>
      <point x="223" y="315" type="line"/>
      <point x="349" y="315" type="line"/>
      <point x="349" y="373" type="line"/>
      <point x="223" y="373" type="line"/>
    </contour>
  </outline>
</glyph>
<glyph name="uni0111" format="1">
  <unicode hex="0111"/>
  <advance width="524"/>
  <outline>
    <contour>
      <point x="190" y="588" type="line"/>
      <point x="190" y="531" type="line"/>
      <point x="355" y="531" type="line"/>
      <point x="355" y="442" type="line"/>
      <point x="323" y="471"/>
      <point x="288" y="481"/>
      <point x="248" y="481" type="curve" smooth="yes"/>
      <point x="127" y="481"/>
      <point x="28" y="361"/>
      <point x="28" y="219" type="curve" smooth="yes"/>
      <point x="28" y="87"/>
      <point x="105" y="-11"/>
      <point x="216" y="-11" type="curve" smooth="yes"/>
      <point x="271" y="-11"/>
      <point x="317" y="14"/>
      <point x="355" y="65" type="curve"/>
      <point x="355" y="-11" type="line"/>
      <point x="408" y="10"/>
      <point x="429" y="18"/>
      <point x="432" y="19" type="curve" smooth="yes"/>
      <point x="515" y="47" type="line"/>
      <point x="515" y="63" type="line"/>
      <point x="490" y="63" type="line" smooth="yes"/>
      <point x="453" y="63"/>
      <point x="445" y="70"/>
      <point x="445" y="113" type="curve" smooth="yes"/>
      <point x="445" y="531" type="line"/>
      <point x="518" y="531" type="line" name="hr01"/>
      <point x="518" y="588" type="line"/>
      <point x="445" y="588" type="line" name="hr02"/>
      <point x="445" y="715" type="line"/>
      <point x="278" y="660" type="line"/>
      <point x="278" y="643" type="line"/>
      <point x="293" y="645"/>
      <point x="303" y="646"/>
      <point x="310" y="646" type="curve" smooth="yes"/>
      <point x="329" y="646"/>
      <point x="341" y="627"/>
      <point x="347" y="588" type="curve"/>
    </contour>
    <contour>
      <point x="355" y="129" type="line" smooth="yes"/>
      <point x="355" y="85"/>
      <point x="312" y="52"/>
      <point x="257" y="52" type="curve" smooth="yes"/>
      <point x="173" y="52"/>
      <point x="120" y="132"/>
      <point x="120" y="248" type="curve" smooth="yes"/>
      <point x="120" y="371"/>
      <point x="169" y="447"/>
      <point x="250" y="447" type="curve" smooth="yes"/>
      <point x="317" y="447"/>
      <point x="355" y="400"/>
      <point x="355" y="315" type="curve" smooth="yes"/>
    </contour>
  </outline>
</glyph>
<glyph name="ebreve" format="1">
  <unicode hex="0115"/>
  <advance width="466"/>
  <outline>
    <contour>
      <point x="422" y="173" type="line"/>
      <point x="393" y="106"/>
      <point x="333" y="65"/>
      <point x="264" y="65" type="curve" smooth="yes"/>
      <point x="166" y="65"/>
      <point x="100" y="154"/>
      <point x="97" y="289" type="curve"/>
      <point x="422" y="289" type="line"/>
      <point x="417" y="408"/>
      <point x="343" y="481"/>
      <point x="234" y="481" type="curve" smooth="yes"/>
      <point x="112" y="481"/>
      <point x="24" y="378"/>
      <point x="24" y="229" type="curve" smooth="yes"/>
      <point x="24" y="87"/>
      <point x="107" y="-11"/>
      <point x="229" y="-11" type="curve" smooth="yes"/>
      <point x="326" y="-11"/>
      <point x="401" y="51"/>
      <point x="441" y="167" type="curve"/>
    </contour>
    <contour>
      <point x="356" y="696" type="line"/>
      <point x="345" y="633"/>
      <point x="303" y="595"/>
      <point x="243" y="595" type="curve" smooth="yes" name="hr01"/>
      <point x="183" y="595"/>
      <point x="139" y="633"/>
      <point x="128" y="696" type="curve" name="hr02"/>
      <point x="94" y="696" type="line"/>
      <point x="101" y="592"/>
      <point x="156" y="531"/>
      <point x="243" y="531" type="curve" smooth="yes"/>
      <point x="327" y="531"/>
      <point x="383" y="592"/>
      <point x="390" y="696" type="curve"/>
    </contour>
    <contour>
      <point x="99" y="321" type="line"/>
      <point x="106" y="394"/>
      <point x="152" y="442"/>
      <point x="211" y="442" type="curve" smooth="yes"/>
      <point x="271" y="442"/>
      <point x="307" y="400"/>
      <point x="312" y="321" type="curve"/>
    </contour>
  </outline>
</glyph>
<glyph name="Eogonek" format="1">
  <unicode hex="0118"/>
  <advance width="641"/>
  <outline>
    <contour>
      <point x="436" y="0" type="line"/>
      <point x="388" y="-35"/>
      <point x="377" y="-50"/>
      <point x="377" y="-81" type="curve" smooth="yes"/>
      <point x="377" y="-122"/>
      <point x="410" y="-152"/>
      <point x="451" y="-152" type="curve" smooth="yes"/>
      <point x="483" y="-152"/>
      <point x="514" y="-137"/>
      <point x="562" y="-93" type="curve"/>
      <point x="544" y="-73" type="line"/>
      <point x="515" y="-97"/>
      <point x="492" y="-109"/>
      <point x="473" y="-109" type="curve" smooth="yes"/>
      <point x="449" y="-109"/>
      <point x="433" y="-91"/>
      <point x="433" y="-63" type="curve" smooth="yes"/>
      <point x="433" y="-46"/>
      <point x="447" y="-25"/>
      <point x="475" y="0" type="curve"/>
      <point x="579" y="0" type="line"/>
      <point x="626" y="178" type="line"/>
      <point x="595" y="178" type="line"/>
      <point x="559" y="79"/>
      <point x="506" y="42"/>
      <point x="402" y="42" type="curve" smooth="yes"/>
      <point x="289" y="42" type="line" smooth="yes"/>
      <point x="217" y="42"/>
      <point x="215" y="47"/>
      <point x="215" y="97" type="curve" smooth="yes"/>
      <point x="215" y="343" type="line"/>
      <point x="353" y="343" type="line" smooth="yes"/>
      <point x="442" y="343"/>
      <point x="473" y="317"/>
      <point x="478" y="243" type="curve"/>
      <point x="502" y="243" type="line"/>
      <point x="502" y="483" type="line"/>
      <point x="478" y="483" type="line"/>
      <point x="473" y="408"/>
      <point x="442" y="383"/>
      <point x="353" y="383" type="curve" smooth="yes"/>
      <point x="215" y="383" type="line"/>
      <point x="215" y="603" type="line" smooth="yes"/>
      <point x="215" y="643"/>
      <point x="226" y="652"/>
      <point x="274" y="652" type="curve" smooth="yes"/>
      <point x="409" y="652" type="line" smooth="yes"/>
      <point x="507" y="652"/>
      <point x="535" y="629"/>
      <point x="543" y="543" type="curve"/>
      <point x="570" y="543" type="line"/>
      <point x="570" y="694" type="line"/>
      <point x="12" y="694" type="line"/>
      <point x="12" y="673" type="line" name="hr01"/>
      <point x="92" y="668"/>
      <point x="105" y="652"/>
      <point x="105" y="581" type="curve" smooth="yes"/>
      <point x="105" y="114" type="line" smooth="yes"/>
      <point x="105" y="38"/>
      <point x="92" y="31"/>
      <point x="12" y="20" type="curve"/>
      <point x="12" y="0" type="line"/>
    </contour>
  </outline>
</glyph>
